<svg width="300" height="226" viewBox="0 0 300 226" fill="none" xmlns="http://www.w3.org/2000/svg">
<path d="M202.106 96.6169C180.815 96.6169 159.142 95.7521 138.868 90.1049C118.975 84.5849 100.711 73.8756 84.431 61.4874C73.7725 53.4237 64.0808 47.0133 50.2426 47.98C36.6932 48.7217 23.7426 53.8057 13.307 62.4795C-4.29591 77.7421 -1.65038 106.309 5.39587 126.379C15.978 156.599 48.1822 177.534 75.5532 191.22C107.172 207.017 141.92 216.174 176.745 221.465C207.27 226.095 246.495 229.478 272.95 209.535C297.243 191.22 303.908 149.4 297.955 121.164C296.513 112.815 292.071 105.28 285.465 99.9747C268.397 87.5102 242.934 95.8284 223.753 96.2608C216.631 96.4134 209.381 96.5915 202.106 96.6169Z" fill="#EFDFAF"/>
<path d="M65.4135 18.28L189.741 1.4702C193.449 0.968969 196.862 3.56866 197.363 7.27669L221.474 185.6C221.975 189.308 219.375 192.721 215.667 193.223L91.3394 210.032C87.6313 210.534 84.2187 207.934 83.7173 204.226L59.607 25.9021L59.569 25.5554C59.2691 21.9835 61.8212 18.7657 65.4135 18.28Z" fill="#BEF1DD" stroke="#969696"/>
<path d="M230.977 27.147H105.518C101.5 27.147 98.2432 30.4042 98.2432 34.4222V214.369C98.2432 218.387 101.5 221.644 105.518 221.644H230.977C234.995 221.644 238.253 218.387 238.253 214.369V34.4222C238.253 30.4042 234.995 27.147 230.977 27.147Z" fill="white" stroke="#969696" stroke-linecap="round" stroke-linejoin="round"/>
<path d="M198.391 166.852H138.078C135.817 166.852 133.983 168.686 133.983 170.948V170.973C133.983 173.235 135.817 175.068 138.078 175.068H198.391C200.653 175.068 202.487 173.235 202.487 170.973V170.948C202.487 168.686 200.653 166.852 198.391 166.852Z" fill="#969696"/>
<path d="M196.23 200.429H138.359C137.671 200.429 137.113 200.987 137.113 201.676V202.057C137.113 202.746 137.671 203.304 138.359 203.304H196.23C196.919 203.304 197.477 202.746 197.477 202.057V201.676C197.477 200.987 196.919 200.429 196.23 200.429Z" fill="#969696"/>
<path d="M210.984 186.973H125.742C124.829 186.973 124.088 187.713 124.088 188.626C124.088 189.539 124.829 190.28 125.742 190.28H210.984C211.897 190.28 212.637 189.539 212.637 188.626C212.637 187.713 211.897 186.973 210.984 186.973Z" fill="#969696"/>
<path d="M226.577 33.0742H109.92C107.026 33.0742 104.68 35.4203 104.68 38.3144V139.48C104.68 142.374 107.026 144.72 109.92 144.72H226.577C229.471 144.72 231.818 142.374 231.818 139.48V38.3144C231.818 35.4203 229.471 33.0742 226.577 33.0742Z" fill="#BEF1DD" stroke="#969696" stroke-linecap="round" stroke-linejoin="round"/>
</svg>
