<svg width="300" height="209" viewBox="0 0 300 209" fill="none" xmlns="http://www.w3.org/2000/svg">
<path d="M235.287 166.337C236.734 166.337 237.906 165.165 237.906 163.719C237.906 162.272 236.734 161.1 235.287 161.1C233.841 161.1 232.669 162.272 232.669 163.719C232.669 165.165 233.841 166.337 235.287 166.337Z" fill="#CFCFCF"/>
<path d="M202.115 80.4524C180.794 80.4524 159.136 79.5842 138.878 73.9543C118.62 68.3245 100.824 57.709 84.4266 45.301C73.7658 37.2063 64.0284 30.7922 50.2336 31.7725C36.704 32.4934 23.7646 37.5506 13.3265 46.1973C-4.38559 61.6303 -1.58748 90.1716 5.40781 110.226C15.9847 140.476 48.191 161.455 75.5566 175.151C107.175 190.949 141.9 200.136 176.737 205.429C207.516 210.079 246.494 213.44 272.936 193.469C297.251 175.151 303.911 133.278 297.951 105.016C296.508 96.6637 292.071 89.1248 285.471 83.8135C268.403 71.3215 242.94 79.6682 223.745 80.0883C216.666 80.2564 209.391 80.4244 202.115 80.4524Z" fill="#EFDFAF"/>
<path d="M253.518 43.0991L59.988 25.9633C54.3787 25.4666 49.4289 29.6111 48.9323 35.2204L36.8833 171.299C36.3866 176.909 40.5312 181.858 46.1404 182.355L239.67 199.491C245.279 199.988 250.229 195.843 250.726 190.234L262.775 54.1548C263.271 48.5456 259.127 43.5958 253.518 43.0991Z" fill="#BEF1DD" stroke="#969696" stroke-linecap="round" stroke-linejoin="round"/>
<path d="M206.75 92.8526L97.3178 83.163C94.7598 82.9365 92.5024 84.8266 92.2759 87.3847L91.6015 95.002C91.375 97.56 93.2651 99.8174 95.8231 100.044L205.256 109.733C207.814 109.96 210.071 108.07 210.297 105.512L210.972 97.8945C211.198 95.3364 209.308 93.0791 206.75 92.8526Z" fill="white" stroke="#969696" stroke-linecap="round" stroke-linejoin="round"/>
<path d="M203.831 125.744L94.3984 116.055C91.8403 115.828 89.583 117.718 89.3565 120.276L88.682 127.894C88.4555 130.452 90.3456 132.709 92.9037 132.935L202.336 142.625C204.894 142.852 207.151 140.961 207.378 138.403L208.052 130.786C208.279 128.228 206.389 125.971 203.831 125.744Z" fill="white" stroke="#969696" stroke-linecap="round" stroke-linejoin="round"/>
<path d="M127.52 153.226L164.714 156.52C166.396 156.669 167.638 158.153 167.49 159.835L166.622 169.629C166.473 171.311 164.989 172.554 163.307 172.405L126.114 169.111C124.432 168.963 123.189 167.478 123.338 165.796L124.205 156.002C124.354 154.32 125.838 153.077 127.52 153.226Z" fill="#EFDFAF" stroke="#969696"/>
<path d="M182.543 33.5438C182.543 39.9803 180.635 46.2723 177.059 51.624C173.483 56.9757 168.4 61.1469 162.454 63.61C156.507 66.0732 149.964 66.7177 143.651 65.462C137.338 64.2063 131.54 61.1068 126.988 56.5555C122.437 52.0042 119.338 46.2056 118.082 39.8928C116.826 33.58 117.471 27.0366 119.934 21.09C122.397 15.1435 126.568 10.0609 131.92 6.48499C137.272 2.90907 143.563 1.00044 150 1.00044C154.28 0.978092 158.522 1.80459 162.48 3.43214C166.439 5.05968 170.035 7.45595 173.061 10.4824C176.088 13.5087 178.484 17.1052 180.112 21.0636C181.739 25.0221 182.566 29.2639 182.543 33.5438Z" fill="white" stroke="#969696" stroke-linecap="round" stroke-linejoin="round"/>
<path d="M174.314 54.7343C171.309 58.2949 167.579 61.1532 163.382 63.1129C159.185 65.0726 154.62 66.0873 150 66.0873C145.38 66.0873 140.814 65.0726 136.617 63.1129C132.42 61.1532 128.691 58.2949 125.686 54.7343C126.102 48.479 128.845 42.6176 133.359 38.3363C137.873 34.055 143.821 31.6733 150 31.6733C156.179 31.6733 162.127 34.055 166.641 38.3363C171.155 42.6176 173.898 48.479 174.314 54.7343Z" fill="#EFDFAF"/>
<path d="M150 27.1845C155.991 27.1845 160.848 22.3278 160.848 16.3366C160.848 10.3455 155.991 5.48877 150 5.48877C144.009 5.48877 139.152 10.3455 139.152 16.3366C139.152 22.3278 144.009 27.1845 150 27.1845Z" fill="#EFDFAF"/>
<path d="M122.319 99.005C125.005 99.005 127.182 96.8278 127.182 94.1422C127.182 91.4565 125.005 89.2793 122.319 89.2793C119.634 89.2793 117.457 91.4565 117.457 94.1422C117.457 96.8278 119.634 99.005 122.319 99.005Z" fill="#EFDFAF"/>
<path d="M141.771 100.501C144.456 100.501 146.633 98.3239 146.633 95.6382C146.633 92.9526 144.456 90.7754 141.771 90.7754C139.085 90.7754 136.908 92.9526 136.908 95.6382C136.908 98.3239 139.085 100.501 141.771 100.501Z" fill="#EFDFAF"/>
<path d="M161.222 101.998C163.907 101.998 166.085 99.8205 166.085 97.1348C166.085 94.4491 163.907 92.272 161.222 92.272C158.536 92.272 156.359 94.4491 156.359 97.1348C156.359 99.8205 158.536 101.998 161.222 101.998Z" fill="#EFDFAF"/>
<path d="M180.673 103.494C183.359 103.494 185.536 101.484 185.536 99.0049C185.536 96.5258 183.359 94.5161 180.673 94.5161C177.988 94.5161 175.811 96.5258 175.811 99.0049C175.811 101.484 177.988 103.494 180.673 103.494Z" fill="#EFDFAF"/>
<path d="M182.543 33.5439C182.543 39.9803 180.635 46.2723 177.059 51.624C173.483 56.9757 168.4 61.1469 162.454 63.61C156.507 66.0732 149.964 66.7176 143.651 65.462C137.338 64.2063 131.54 61.1068 126.988 56.5555C122.437 52.0042 119.338 46.2056 118.082 39.8928C116.826 33.58 117.471 27.0366 119.934 21.09C122.397 15.1435 126.568 10.0609 131.92 6.48499C137.272 2.90907 143.563 1.00044 150 1.00044C154.28 0.978092 158.522 1.80459 162.48 3.43214C166.439 5.05968 170.035 7.45595 173.061 10.4824C176.088 13.5087 178.484 17.1052 180.112 21.0636C181.739 25.0221 182.566 29.2639 182.543 33.5439Z" stroke="#969696" stroke-linecap="round" stroke-linejoin="round"/>
</svg>
