<svg width="300" height="207" viewBox="0 0 300 207" fill="none" xmlns="http://www.w3.org/2000/svg">
<path d="M202.106 78.0217C180.815 78.0217 159.142 77.1569 138.868 71.5097C118.975 65.9897 100.711 55.2804 84.431 42.8922C73.7725 34.8284 64.0808 28.4181 50.2426 29.3848C36.6932 30.1265 23.7426 35.2105 13.307 43.8843C-4.29591 59.1469 -1.65038 87.7135 5.39587 107.784C15.978 138.004 48.1822 158.939 75.5532 172.625C107.172 188.422 141.92 197.579 176.745 202.87C207.27 207.5 246.495 210.883 272.95 190.94C297.243 172.625 303.908 130.805 297.955 102.569C296.513 94.2202 292.071 86.6852 285.465 81.3795C268.397 68.915 242.934 77.2332 223.753 77.6656C216.631 77.8182 209.381 77.9963 202.106 78.0217Z" fill="#EFDFAF"/>
<path d="M245.969 17.5087L37.5112 41.0701C32.1227 41.6791 28.2481 46.5411 28.8572 51.9297L45.019 194.921C45.6281 200.309 50.4901 204.184 55.8787 203.575L264.336 180.013C269.725 179.404 273.6 174.542 272.991 169.154L256.829 26.1627C256.22 20.7742 251.358 16.8996 245.969 17.5087Z" fill="white" stroke="#969696" stroke-linecap="round" stroke-linejoin="round"/>
<path d="M229.874 63.1027L63.3509 81.9244C59.4979 82.3599 56.7275 85.8363 57.163 89.6893L67.4338 180.559C67.8693 184.412 71.3458 187.183 75.1987 186.747L241.722 167.926C245.575 167.49 248.346 164.014 247.91 160.161L237.639 69.2906C237.204 65.4376 233.727 62.6672 229.874 63.1027Z" fill="#BEF1DD" stroke="#969696" stroke-linecap="round" stroke-linejoin="round"/>
<path d="M258.819 43.7798L256.845 26.3135C256.703 25.0297 256.31 23.7865 255.687 22.6551C255.064 21.5236 254.224 20.5262 253.215 19.72C252.206 18.9138 251.048 18.3145 249.807 17.9566C248.566 17.5987 247.266 17.4891 245.983 17.6342L37.5249 41.1955C36.2415 41.3406 34.9993 41.7374 33.8695 42.3633C32.7397 42.9892 31.7445 43.8319 30.9409 44.843C30.1372 45.8541 29.541 47.0139 29.1863 48.2558C28.8316 49.4977 28.7254 50.7974 28.8737 52.0805L30.8736 69.7742L258.819 43.7798Z" fill="#BEF1DD" stroke="#969696" stroke-linejoin="round"/>
<path d="M94.4009 18.0259L97.9578 49.4955" stroke="#969696" stroke-linecap="round" stroke-linejoin="round"/>
<path d="M185.396 7.73975L188.953 39.2094" stroke="#969696" stroke-linecap="round" stroke-linejoin="round"/>
<path d="M123.581 151.864C124.378 144.503 127.658 137.633 132.882 132.385C138.105 127.137 144.96 123.825 152.317 122.993C159.674 122.162 167.096 123.86 173.359 127.81C179.621 131.759 184.352 137.724 186.773 144.721" stroke="#969696" stroke-linecap="round" stroke-linejoin="round"/>
<path d="M186.632 106.544C189.116 106.263 190.903 104.021 190.622 101.536C190.341 99.0515 188.099 97.2648 185.615 97.5457C183.13 97.8265 181.343 100.069 181.624 102.553C181.905 105.038 184.147 106.825 186.632 106.544Z" fill="#969696"/>
<path d="M115.224 114.615C117.709 114.334 119.496 112.092 119.215 109.607C118.934 107.122 116.692 105.336 114.207 105.616C111.722 105.897 109.936 108.139 110.217 110.624C110.497 113.109 112.739 114.896 115.224 114.615Z" fill="#969696"/>
</svg>
