<?xml version="1.0" encoding="UTF-8"?>
<svg id="Layer_1" data-name="Layer 1" xmlns="http://www.w3.org/2000/svg" viewBox="0 0 85.75 74.8">
  <defs>
    <style>
      .cls-1 {
        fill: #fa3928;
      }

      .cls-2 {
        fill: #ff9c24;
      }
    </style>
  </defs>
  <path class="cls-2" d="M28.8,25.7l-.5-.1v-.5l1.1-7.7-.1-1.6-.9-2.3-1-.8.1-.6-.1-.1-.3.3-.5-.1-.2-.5-.3-.1-.5.4h-1.4l.2-.8.7-1.5-.2-.1-.7.4-.1-.3-.4.1v.4l.4.3-.3,1.3v.2h-.2l-1.9.7-1.6,1.8-.4.2.2.1.1.5-.4.4v.5l-.3.3-.1,1,.1.1-.4,1.1-.1,1.3-.1.1v.9l-.6,4.3.1.4v.3l-.3.2-.3,1.7.2.3-.2.4-.6,4,.1.1-.6,4.7-.2.2-.6,4.8v.2l-.2,1.4-.2.6-.2,2.3-.1.2-.2,1.8v.2l-.3,1.3.1.2-.3.8-.3,2-.1.2.1.4-.4,3,.1,2.5.4,1.1,1.1,1.3.8.5.8.3,1.2.2,1.1-.1.2.1,1.4-.6,1.2-.8,1.1-1.3.6-1.7.1-1.6.3-.4v-1.5l.1-.2.2-.9.1-.2.1-.9-.1-.2.1-.8v-.2l.1-.8.2-.3.1-.8v-.2l.1-.8.1-.1.2-2,.3-.7.5-.2.2-.7,1-.3h5.3l.3-.1h2.4l.5.3.5-.2,1.3.2.2.2-.2.4.4-.1.1,2.1-.6,3.6.1.2-.6,4.1-.1.2-.3,2.2.1.2-.5,1.6.1.4-.8,1.9-2,4.7-.2.1-.2.6-.4.2-1.2,1.5-2.4,2-1.8,1.2-.1.2-1.4.7-1.4.5-.6.2-4.1.9-1.1-.2-.5-.4-.3.6-.4.1-.2-.1h-3.1l-2.6-.5-3.3-.8-1.2-.6-.5-.7-.8-.3-1.1-.9-.4-1.2h-.2l-.1.2h-.2l-.2-.3.2-.8-.3.1v-.2l-.2.3-.4-.2-.3-.3-.2-.6-.3-.3v-.9l.4-.7-.2-.2h-.2l-.4.4-.9-1.5.3-1.4-.1-.4-.3-.2-.4-1.4-.2-.3.1-1.3v-.2l.3-1.8-.1-.9.4-1.2-.2-.8.4-2.7-.1-.2.2-1.5.3-.5v-1.6l.2-.2.1-.8.1-.2.2-1.5-.1-.2.2-1.2.1-.2.2-.8-.1-.1.2-1.6.1-.2-.1-.7.2-1.6.3-.4.3-1.9-.1-.3.3-1.8.1-.3.3-.2-.3-.6v-.8l.8-1.2-.4-.1v-.4l.2-1.2v-.2l.3-1.7-.1-.2,1.2-8.4.1-.2v-.9l.6-2,.3-.2-.2-.6.5-1.8.8-1.8,1.4-2.5.2-.5,1-2,.7-.5,1.4-1.6,2.5-1.8.9-.4.9-.8,2.8-1,3.7-.4,1.5-.1.2.1.5-.2,1.8-.1.2.1h1.8l.2.1h1l2.2.6h.6l2.2,1.3,2,1.4,2.7,2.8.2.9.5.4.4.7.3.7.9,2.8.2,1.9-.1,3.6-.3,2-.1.2-.2,1.2.1.8-.1,1.4-.4.9-.4,2.5v1.4l-1.2,1.4h-3.4l-.2.1h-2.1l-.2.1h-3.6l-.2-.1h-.9l-.7-.3-.6-1.6.1-.6.8-.8v-.2ZM.8,59.7l.1.1.4.1.1-.2-1.1-.1.5.1ZM1.4,55v-.1l-.2.1h.2ZM1.5,56.4v-.1l-.2.1h.2ZM1.5,62.8l.1-.1-.3-.2v.3h.2ZM1.9,57.7l.6-.2.1.1.3.5-.1,1,.3.2.2-.4.4-.1-.1.6.4-.2.6.3.2-.6-.5-.4-.1.2-.5.1-.1-.3-.5-.7-.1-.6.3.2v-.4l-.4-.1-1.4.6.4.2ZM1.7,62l.2-.2.1-.2-.5.1v.3h.2ZM2.4,55.4v-.1l-.3.1v.3l.3-.3ZM2.3,56.7l-.2-.1v.3l.2-.2ZM2.6,60l.2-.5-.5.2.3.3ZM2.7,65.3v-.2l-.1-.2h-.2l-.1.3.4.1ZM2.7,54.5l-.2-.2-.1.2h.3ZM2.6,60.6l.1-.1h-.3v.2l.2-.1ZM2.6,62.6l.2-.1.2-.4-.4.1-.2.4h.2ZM2.8,50.3l-.1-.1-.2.2.3-.1ZM2.8,63.2l.1-.2-.3-.3v.4l.2.1ZM3.2,65.6l.2-.1.2-.8-1,.1.6.8ZM3.1,60.3l.4.1.5-.1.1-.5-.7.3-.4-.2-.2.5.3-.1ZM3.4,61.7v-.2h-.2v.2h.2ZM3.8,66.7l.5-.4-.6-.2-.3.2-.1.4h.5ZM3.4,68h.3l.1-.2-.3-.1-.2.1.1.2ZM3.7,54.5l.1-.2-.2-.1.1.3ZM3.8,47.6l.2-.5-.2.1-.1.1.1.3ZM4,44.1v-.3l-.2.2.2.1ZM4.2,60.8l.1-.1h.9l.8-.2.5.6.3-.1-.3-1-.7-.4-.3.1.2.5-.4.1-.3-.3.2-.3h-.7l.1.5-.7.4-.1.4.4-.2ZM4.2,51.5l.4-.1.1-.4-.2-.3-.5-.1v.1l.2.8ZM4.3,53.2l.3.3.4-.4.1-.4-.2-.1-.8-.2.2.8ZM4.4,63.3l.3-.3h-.2l-.4.3h.3ZM4.3,63.5l-.1-.1-.1.2.2-.1ZM4.4,45.2l-.2-.1v.2l.2-.1ZM4.5,57.9v-.2l-.2-.1-.1.1.3.2ZM4.5,62.5v-.1l-.2.2.2-.1ZM4.6,43.3l.2-.4-.4.1v.3h.2ZM4.6,68h-.2v.1l.2-.1ZM4.7,47.5l.4-.2.1-.2-.2-.1-.4.3.1.2ZM4.8,66v-.2h-.2v.2h.2ZM4.8,44.4l.1-.2-.2.1.1.1ZM4.9,26.5l.2.2.2-.1-.3-.4-.2.1.1.2ZM4.9,50.8l.8.1.2.3v.2l.1.6.4.1.1-.7-.1-.1.1-.1.5.4.3-.1.1-.2-.4-.5.4-.2.2-.4-.4-.5h-.3l.1.3-1.2.8-.6-.6-.4.3.1.3ZM4.9,63l.1-.2-.1-.1-.1.2.1.1ZM5,68.8l.1-.1-.2-.3-.1.4h.2ZM5.2,29.9l-.1-.1-.1.2.2-.1ZM5.2,61.9l.1-.1-.2-.2-.1.4.2-.1ZM5.9,65.1l-.6.7v.2l.9-.4.1.1.4.1-.3-.3-.3-.1.2-.4.3-.3.2-.3-.4.2h-.4l-1,.3v.5l.9-.3ZM5.4,34.7l.1-.1v-.4l-.4.3.3.2ZM5.4,42.5l.3-.2-.2-.1-.3.1.2.2ZM5.7,48.7l1.1-.7-.3-.1-.4.2-.1.1-.5.2-.2.3h.4ZM5.7,52.8l.3-.3-.2-.1-.4.1-.1.2.4.1ZM6,64.1l-.1-.2-.2-.3h-.4v.6l.7-.1ZM5.7,34.1l.5-1,.2.1.6-.9h-.2l-.2-.1-.1-.4-.3-.2-.2.4-.6.7.3,1.4ZM5.5,44.4l.5.2-.1-.3-.3-.2-.2.1.1.2ZM5.6,46.2h.2l.4-.5v.8l.3.3.2-.2.1-.5-.2-.4.7-.2-1.7-.2-.2.2.2.7ZM5.9,69v-.5l-.4.2-.1.2.5.1ZM5.7,31.3l-.1-.1-.1.2.2-.1ZM5.6,38.5h.2l.3-.6h-.2l-.3-.3-.1.2v.4l.1.3ZM5.8,62.4l.2-.1v-.2h-.2l-.2.2.2.1ZM5.9,23.9l-.1-.2-.1.1.2.1ZM5.9,35.3h.2v-.4h-.3l-.1.2.2.2ZM6.3,49.9l.3-.2v-.4h-.1l-.5.3-.3.3h.6ZM5.8,57.5l.1-.2-.1-.1-.1.2.1.1ZM5.9,39.6l.4.6.2-.2-.1-.6-.5-.3-.1.2.1.3ZM6.2,27.8l.1-.4-.4.3v.2l.3-.1ZM6,32.7l.1.1-.2.1.1-.2ZM6.2,22.5l-.1-.3-.1.2v.3l.2-.2ZM6.2,29.3l.1-.2h-.3v.2h.2ZM6.2,53.1h.2v-.2l.4-.4-.2-.1-.6.4.2.3ZM6.3,34l.3.2.2-.2-.7-.2.2.2ZM6.3,41.3l.3-.5-.2-.1-.3.4v.2h.2ZM6.7,35.2v-.2l-.5-.5v.4l.5.3ZM6.5,37.4l-.2-.2-.1.3.3-.1ZM6.3,47.5l.1-.2.1-.1-.2-.2-.1.4.1.1ZM7.1,26.7l.7-.6h-.3l-.3-.6-.2.4-.1.4-.2.1-.4.3v.4l.8-.4ZM7.2,54.4l.7-.3.6-.5.4-.1.2-.2-.6-.1-.5.1-.2.6h-.9l-.5-.5-.1.2v.4l.9.4ZM6.6,57.4l.4-1.2.1-1.5h-.2l-.2.1v.3l.2.6-.5,1-.1.4.3.3ZM6.5,58.9l.1.1.3-.1-.1-.3-.5-.3v.2l.2.4ZM6.6,39.1l.3-.2-.1-.4h-.2l-.2.4v.2h.2ZM6.6,69.71l.1-.1-.1-.3-.1.2.1.2ZM7.2,63.1l-.1.1h.2l.2-.1.2-.2h.2l.1.2-.2.2.1.5-.5.1-.1.3.9.1.4-.1.1-.2-.4-.4-.2-1.4-.3-.3-.6,1.1-.3-.1-.2-.1-.1.2.6.1ZM6.9,35.6l.2-.2-.4.3.2-.1ZM7.4,42.3l.9-.2.2-.8-.1-.1-.5.5h-.5l-.6.4-.1.9.7-.7ZM7.1,59.6l-.1-.2-.2.1-.1.2.4-.1ZM6.9,63.6l-.1-.4-.1.2.2.2ZM6.9,57.6l.5-.1v-.2l-.1-.1-.5.1.1.3ZM7.1,30.7l.3-.3h-.2l-.3.2v.2l.2-.1ZM7,36.9l.4.1.1-.2-.2-.2-.4-.1.1.4ZM7.1,27.4h.2l.1-.4-.2-.1-.2.2v.2l.1.1ZM7.3,32.8l.2-.5h-.2l-.1-.2h-.1l-.1.9.3-.2ZM7.2,48l.1-.2-.2-.1-.1.2.2.1ZM7.2,66l-.1-.1-.1.1h.2ZM7.1,68.3l.2.2h.1l.3-.4.3-.2-.2-.9h-.2l-.2.2h-.2l-.2.6.1.5ZM7.4,40.2l.1.4h.3l.2-.2-.4-.4.1-.1.1-.5h-.2l-.3.3-.2.5h.3ZM7.7,70.3l-.1-.2.5-.6-.7-.1-.3.9v.1l.6-.1ZM7.7,28.4l.9-.3.4.1.3-.3h.4l.4.4.4-.1-.4-.7-.5-.2-.9.5h-.4l-.8.2-.3.3.5.1ZM7.4,31.3l.2-.3-.2.1-.2.2h.2ZM7.3,39.2l.4.1.2-.3.3-.8-.4-.1h.4l.1-.1h-.3l-.2.1-.1.1-.1.2-.4.6v.3l.1-.1ZM7.5,63.1l-.3-.1v.1h.3ZM7.5,37.9v-.2l-.1-.1-.1.2.2.1ZM8.3,59.2l-.3.5.1.2h.1l.9-1.4-.2-.2-.9.5-.6-.5-.1.7,1,.2ZM7.5,60.2l-.1-.1-.1.2.2-.1ZM7.5,45h.2l-.1-.5-.2.2.1.3ZM7.9,21.7l-.1-.3h-.3v.2l.4.1ZM7.7,33.9l.1-.1.1-.2-.1-.3-.2.3.1.3ZM7.8,31.7l.4-.2.4-.5-.2-.1-.4.2-.3.4.1.2ZM8.7,45.9v-.2l-.3-.3-.7.3v.4l1-.2ZM7.8,55.8l.4.2h.6l.4-.2v-.6l-.5.1-.2-.4-.4-.1v.4l-.4.5.1.1ZM8,58.2l.1-.4-.2-.2-.2.6h.3ZM7.8,65l.4.1-.1-.4-.3-.1-.1.2.1.2ZM7.9,65.8l.1-.2h-.2l-.1.3.2-.1ZM9.4,34.6l.3.2.2-.6-.3-.9-.6.1.1-.2.3-.4.8-.5-.1-.2-.3-.1h-.2l-.6.7-.5.3.2.8.4-.2.2.3-.2.2-.2-.2-.6.2-.3.5-.1.4,1.5-.4ZM8.3,43.7l-.1-.2-.3-.1v.2l.4.1ZM8.2,26.6l.4-.5h.2l.3.3-.2.5.1.3.5-.6.1-.6-.6-.3.6-.4.6.1.5-1v-.6l-.2-.3-1-.6v-.2l1.1-.5-.3-.9-.4-.5-.1.2v.4l.3.2.1.3-.9.3-.5.7-.1.5.3.3v.3l-.3.1v.4l.3.1.5-1,.8.2.1.3.1.5-.4.1-.4.3-.4-.1-.4.8-.2-.4-.1.3-.2.4h-.4l.2.1-.2.6.2-.1ZM8.4,22l.2-.3h-.2l-.2.1-.2.3.4-.1ZM8.2,51.9l.1-.3h-.2l-.1.1.2.2ZM8.2,57.3l.1-.1-.1-.2h-.2v.2l.2.1ZM8.2,60.7l.9.2-.4-.1v-.2l-.2-.3-.5.1.2.3ZM8.3,30.3h.2l.6-.2.1-.3-.9-.8-.2.2.2,1.1ZM8.5,35.9l.2.1.4-.1-.1-1h-.2l-.2.3-.2.5.1.2ZM8.7,51.3l.4.1v-.5l.1-.2.3.1.3.4.2.1.3-.1-.2-.7-1.4-.1-.3.5.3.4ZM8.6,68v-.2l.1-.2h-.2l-.1.2.2.2ZM8.8,37.1l.3-.2.1-.2h-.2l-.5.4h.3ZM8.9,38.5l.1-.2-.4-.1-.1.1.4.2ZM8.7,48.4l.2-.1.1-.2-.2-.1-.3.3.2.1ZM9.3,19l-.1-.2-.3-.2-.3.2.7.2ZM9,20.9v-.2l-.2-.1-.2.1v.2h.4ZM8.7,45.1l.3.1.3-.3v-.3l-.7.2.1.3ZM9,20l.1-.2v-.2l-.3-.1-.1.2.3.3ZM9.3,63.3l.2-.1.4-.3.2.1-.4.3v.2l.4-.1.9-1.4.1-.4-.7.4-.2.4-.3.1-.3-.1-.5-.9-.4-.1v.2l.6,1.7ZM9.1,65.3l.1-.2-.1-.1-.4.1v.2h.4ZM8.8,69l.2-.3-.3.1.1.2ZM9,42.6l.1-.2-.1-.2-.2.1.2.3ZM9.2,43.5l.6.1v.4l-.3.6h.4l.7-.4.2.1.4.1.2-.1.1-.3-.9-.6h-.3l-.3-.2-.2-.3-.4.3-.5-.2-.1.2.4.3ZM9.1,40l-.2-.1v.2l.2-.1ZM9.1,49.4l1.2-.3v-.5l-1.1.3-.2.3.1.2ZM9.4,60l-.1-.4-.3.1v.1l.4.2ZM9.5,67.8l.2-.1v-.2l-.2-.2-.3.1.3.4ZM9.6,39v-.2l-.2.3.2-.1ZM9.6,53h.2l.1-.4h-.2l-.3.3.2.1ZM9.5,61.2l.3-.3-.2-.1-.2.1.1.3ZM9.6,17.7l.6.7.1-.2-.2-.2.2-.6v-.6l-.3-.3-.3.2.2.2v.3l-.4.1.1.4ZM9.9,19.3l.3-.2v-.1l-.6-.3-.1.5.4.1ZM9.7,29.1l.5.3h1.2l-.3-.4-1.1.1-.2-.6h-.3l.2.6ZM9.6,30.8l.1.1.3-.3-.1-.1-.4.1.1.2ZM9.7,36.6l.2.1.2-.2.4-1.1h-.2l-.4.3-.4.7.2.2ZM10,37.7l-.1-.5-.4.1v.4h.5ZM9.8,50.1l.1-.2v-.1h-.4l.3.3ZM9.9,35.4l-.1-.1-.2.2.3-.1ZM10.1,46.8l-.1-.2-.2.1-.1.2.4-.1ZM9.8,57.1l.6.9.4-.1-.2-1-.1.2-.7-.3-.1.1.1.2ZM9.9,58.7l.2-.1.1-.3-.2-.1-.3.2v.3h.2ZM10,69.71l.3-.2-.1-.3-.2.1-.3.4h.3ZM10,31.5l.1-.2-.3-.1v.3h.2ZM9.9,52.3l.7.1.5-.4v-.2l-.3-.3-.4.1-.1.2.3.1-.2.1-.6-.1v.2l.1.2ZM10.1,54.6v-.2l.3-.6-.4-.1-.2.6.3.3ZM10,40h.3v-.2l-.1-.1-.3.1.1.2ZM10.3,61v-.4l-.2-.4-.2.2v.4l.4.2ZM10.1,72.6l.2.1.1-.1v-.4h-.2l-.2.2-.1.2h.2ZM10.1,16.4l.1-.4h-.2v.2l.1.2ZM10.4,26.5l1-.4.9-.6h-.2l-1.9.4-.1.3.3.3ZM10.4,45.5l-.1-.2-.2.2h.3ZM10.4,38.9v-.2l-.2.2h.2ZM10.3,61.6h.2l.2-.2-.5-.2v.2l.1.2ZM10.6,42.1v-.2l-.2-.1-.1.2.3.1ZM10.5,56.1l.2-.3-.2-.2-.2.5h.2ZM10.6,33.9l.1-.3-.2-.2-.1.5h.2ZM10.7,68.2l-.2-.1-.1.2.3-.1ZM10.8,16.8l-.2-.2v.2l-.1.1.3-.1ZM10.7,32l.4-.1v-.1l-.1-.2-.4-.2-.1.4.2.2ZM10.9,33l.3.1.4-.2.1.2h.2l.3-.3h-.9l-.5-.5-.3.2.4.5ZM11.8,63.1l.3-.4h-.7l-.7.3-.2.3,1.3-.2ZM10.7,70.9v-.2l.3-.6-.2-.1-.1.1-.1.7.1.1ZM10.9,17.7l.3-.5-.5.3v.2h.2ZM11,21.1v-.3l-.1-.1-.2.3.3.1ZM10.8,71.9v-.2l-.1.2h.1ZM11,9.8l-.1-.2-.1.2h.2ZM11.1,19l.4.1.5-.1v-.3l-.1-.4-.6-.4h-.4l-.1.2.3.4-.3.2v.2l.3.1ZM10.9,30.4l.4.1.3-.3h-.5l-.1-.1-.2.1.1.2ZM11,35.8h.2l-.3-.4-.1.2.2.2ZM11.2,23.8l.6.2-.1-.2.1-.9.1-.2v-.6l.5-.4v-.2l-.5-.1-.4.2-.1.1-.4.6-.1.8.3.7ZM11.5,34.5l.1-.4-.1-.1-.6.4v.3l.6-.2ZM11.1,60.3l.3-.5-.2-.1-.2.2-.1.2.2.2ZM11.2,40.5l.1-.1-.3-.1v.2h.2ZM11.3,49.7l.2-.2-.1-.4-.1.2-.2.2.2.2ZM11.5,68.71h.5v-.4l-.8-1.1.3,1.5ZM11.5,55.4l-.1-.2-.1.2h.2ZM11.6,11l.8-.2-.4-.3h-.3l-.3.3.2.2ZM11.5,59.3l.2-.1.1-.5-.3.2-.1.3.1.1ZM11.5,63.8h.2v-.4l-.3.2.1.2ZM11.6,71l.4-.1-.6-.5v.2l.2.4ZM11.6,35.4v-.2h-.1v.2h.1ZM11.7,13.8l.3-.3-.3-.1-.1.1.1.3ZM12.2,17.7l.1-.4-.1-.2h-.3l-.3.2v.5l.6-.1ZM11.9,39.4l.5.2.1-.5-.7-.3-.2.3.3.3ZM12.4,29.4l-.3.6.2.1.3-.1.3.2-.3.3-.7.2.2.8.4.6.5.2.3-.2.2-.7.2-.2h.4l.4.2-.1-.4-.3-.2h-1.1l.9-1.8-.5.1-.7-.3-.2.2.1.2h-.2l-.6-.2-.1.3.7.1ZM11.9,45.3l-.1-.4-.1.1v.2l.2.1ZM11.9,60.8l-.1-.1-.1.2.2-.1ZM11.8,66h.3v-.2l-.1-.1-.3.1.1.2ZM11.9,38.3l.4-.1.1-.4v-.4l-.1.2-.5.4v.2l.1.1ZM12.1,45.8v-.2l-.3-.2v.4h.3ZM12,50.6l-.1-.1-.1.2.2-.1ZM12.1,36l.6.3.3-.4-.1-.2-1-.1.2.4ZM12.5,70.3l.6.2-.3-.8-.3-.1-.3.2-.3.5h.6ZM12.3,11.9l.1-.2-.3-.1v.3h.2ZM12.3,20l.1-.3h-.3l.2.3ZM12.2,27.1l.4.2v-.3l-.1-.3-.3-.1-.1.1.1.4ZM12.3,62.5l.3-.1-.2-.2h-.2v.2l.1.1ZM12.6,34.3l.7-.3.2-.3-.7.1-.5.5h.3ZM12.4,56.5l.4.1.2-.3h-.7l.1.2ZM12.6,65.6l-.2-.1h-.1v.3l.3-.2ZM12.4,71.6h.2v-.2l-.2-.1-.1.1.1.2ZM12.5,31.4l.4-.3.2.3-.2.3-.5-.1.1-.2ZM13.1,28.1l.3-.2h-.1l-.2-.1-.6.3h.6ZM12.7,33.5l-.1-.1-.1.2.2-.1ZM12.9,40.8l.1-.1-.1-.2-.2-.1-.2.4h.4ZM12.9,14l.3-.1-.2-.4-.4.1v.2l.3.2ZM13,23.6l1.6-.3-1.9-.1-.1.2.4.2ZM13.1,33.1l.2-.3-.7-.1v.2l.5.2ZM13,64.1l.1-.3h-.2l-.3.3h.4ZM13.1,20.1v-.4l-.3-.1-.1.4.4.1ZM13.1,7.8v-.2h-.3v.2h.3ZM13.1,21.4l.9-.4.3-.3-.4-.2-1,.3-.1.5.3.1ZM13,48.7l.3-.1-.2-.3-.2-.1-.1.4.2.1ZM12.9,66.7l.5.2.2.3-.3.2.8.4v-.3l-.3-1-.3-.3-.6-.3-.1.6.1.2ZM13.1,72.21l.2-.6.9-.7.1-.4v-.4l-.2.1-.7.9-.4.4-.1.6.2.1ZM13.3,11.7v-.2l-.2-.1-.1.2.3.1ZM13.3,24.7l.1-.4.5.2.2-.2-.1-.3-.5-.2-.2.4-.3.4.3.1ZM13.3,69.71l.2-1.2v-.5l-.2-.1-.3.1.1.3-.1,1,.3.4ZM13.6,18.1l.4-.5-.9-.2v.2l.5.5ZM14,25.9v-.2l-.2-.2h-.6l-.1.2.9.2ZM13.4,9.1l.2-.2-.3-.1v.3h.1ZM13.5,27.4l.5-.5-.1-.2-.4.1-.2.5.2.1ZM13.7,11l.4-.1v-.3l.6-.6-.2-.1-.6.4-.4-.1-.1.4.3.4ZM13.6,9.7l.4.1v-.2l-.1-.2-.4-.1.1.4ZM14.5,12h.3l.6-.3-.2-.1-.1-.5-.6.7-.6.1-.4.8,1-.7ZM13.7,20.4l.1-.4h-.2l-.1.2.2.2ZM13.7,34.5h.2l-.1-.2h-.2l.1.2ZM13.8,35.4l.2-.2.2-.6-.2-.1-.4.9h.2ZM14.2,23v-.3l.3-.3-.1-.2-.3-.1-.3.3-.1.3.5.3ZM13.9,33.2h.2v-.2l-.2-.1-.2.2.2.1ZM14.3,17.1l-.2-.3-.1.3h.3ZM14.2,14.3h.2v-.2l-.1-.1-.2.1.1.2ZM14.5,24.5l.2-.3.1-.2-.1-.1-.3.1-.3.4.4.1ZM14.4,63.8l.4-.1v-.2l-.4-.1-.3.2.3.2ZM14.4,8l-.2.1v.4l.2-.5ZM14.4,16.1l-.1-.1-.1.2.2-.1ZM14.4,72.21h-.2v.1l.2-.1ZM14.7,13.2l.1.1.1-.1-.3-.3.1.3ZM14.7,20.7l.5.3.3-.1.1-.4-.5-.1-.5.1.1.2ZM15.1,25.1v-.3l-.1-.1-.3.2.4.2ZM14.8,29.3h.2v-.2l-.1-.1-.2.1.1.2ZM15.4,19.1l1-.2.1-.4-.6-.1-.3.2-.1-.2v-.1l-.5.1-.2.3.6.4ZM14.9,68.9h.9l.2.1.5-.7-.6-.1-.5.3h-.5l-.1.2.1.2ZM15.3,8.2l-.1-.2-.3-.1v.2l.4.1ZM15,22.8l.2-.4-.3-.3v.4l.1.3ZM15.2,27.4l.1-.3-.2-.1-.1.4h.2ZM15.4,10.4l.2-.2-.1-.2-.4.4h.3ZM15.5,22.8h.2l.3-.2-.7.1.2.1ZM15.6,65.8l.4-1.3h-.2l-.3.3-.2.8.3.2ZM15.6,14.4l.5-.2.1-.2-.3-.3-.5.1v.2l.2.4ZM15.8,15.9l-.1-.2-.3-.1v.2l.4.1ZM15.6,25.2h.2v-.2l-.2-.1-.1.1.1.2ZM15.8,30.3l.3-.3-.1-.1-.4.1v.2l.2.1ZM16.1,12.9l.8.3h.2l.4-.4.3-.6-.5.2-.2-.7-.3-.2-.6.1-.5,1.3h.4ZM15.9,32.4l.4-.1v-.4l-.2-.2-.3.3.1.4ZM16,72l.2-.3h-.2l-.2.4.2-.1ZM16.1,11.3l.4-.2h-.2l-.2-.1-.2.1.2.2ZM16.4,19.6l.1-.4h-.2l-.2.1.3.3ZM16.3,8.6h.2v-.4l-.3-.1.1.5ZM16.9,10.5l.1-.3-.2-.1-.6.4h.7ZM16.4,18.1l-.1-.1-.1.2.2-.1ZM16.5,24.9h-.2l-.1.3.3-.3ZM16.8,22.4l-.2-.2-.1.1v.1h.3ZM16.6,32.8l-.1-.2v.3l.1-.1ZM16.7,17.7l.1-.3-.1-.1-.1.1.1.3ZM16.7,22.6h.2l-.1-.1h-.2l.1.1ZM16.7,67.6l.4.1v-.6l.2-.3-.3-.3-.1.1-.1.2.1.4-.3-.1.1.5ZM17.1,20.6l-.2-.1h-.1v.3l.3-.2ZM17.2,70.21l.3.1.3-.1-.1-.2-.1-.4-.2-.1-.6.1.4.6ZM17.1,71.4l.4.1.2-.3-.4-.3-.3.3.1.2ZM17.7,5.4l.1-.4h-.2l-.3.2-.2.4.6-.2ZM17.4,67.9v-.1l-.2.1h.2ZM17.3,69.1v-.2h-.1l.1.2ZM19.2,8.1l-.1-.3h-.3v.2l-1.5.2,1.9-.1ZM17.7,15.8v-.5l-.2.5h.2ZM17.7,65.8l-.1-.1-.1.2.2-.1ZM18.3,6.6l.3-.7h-.1l-.9.8.7-.1ZM18.1,67.5l.2-.3v-.5l.5-.5h-.2l-.2.1-.4.5-.3.8.4-.1ZM18.1,10.2l.3-.1.4-.3v-.3l-.3.2-.6-.1-.1.3.3.3ZM18.1,9h.1l-.2-.2.1.2ZM18.3,71.21l-.1-.1-.1.2.2-.1ZM18.4,63.7l-.1-.1-.1.2.2-.1ZM18.7,68.9l.5-.5.1-.5-.1-.1-.8.1-.1.5.4.5ZM18.9,68.2v.3l-.4-.1.4-.2ZM19.6,66.6l.1-.3h-.2l-.6.5.7-.2ZM19.1,4h.3v-.2l-.3-.1-.1.1.1.2ZM19.4,70.6l.1-.2v-.4l-.3-.2-.1.4v.4h.3ZM19.4,6.7l.2-.1v-.2h-.3l-.1.2.2.1ZM19.4,12.2l.4-.7-.5.4-.1.3h.2ZM19.4,10.5l.2-.1-.1-.3-.2.2.1.2ZM19.8,9.2l-.1-.2-.1.2h.2ZM19.8,13.7l.2.1.3-.3-.1-.1-.5.1.1.2ZM20.1,10.1l.2.1.3-.6-.2-.1-.5.4.2.2ZM20.1,12.7l-.1-.2-.1.2h.2ZM20.3,65.3l.2-.1v-.2l-.2-.2-.4-.1v.2l.4.4ZM20.1,6.9l.2-.2-.2-.1-.1.1.1.2ZM20.4,66.7l.2-.2h-.2l-.1.1.1.1ZM20.8,6.5l.4-.3v-.5h-.2l-.4.7.2.1ZM20.9,11.3l.2-.2-.3-.1-.2.3h.3ZM21.3,10.3l.1-.2v-.2l-.3-.1-.1.3.3.2ZM21.3,66.2l.4-.2,1,.5-.1-.2v-.2l-.2-.3-.8-.1-.5.4.2.1ZM21.2,69.3h.3l.2-.4h-.4l-.2.3.1.1ZM21.7,7.2v-.4l-.2-.1h-.2l-.1.2v.6l.5-.3ZM21.7,63.8l.3-.1-.2-.1-.2.1.1.1ZM21.8,1.9h.2v-.3l-.1-.1-.2.2.1.2ZM22.6,62.9l-.4-.6h-.2l-.1.4.7.2ZM22.2,9.1l.2-.1v-.2h-.2l-.2.2.2.1ZM22.2,10.8l.4.1v-.4l-.6-.2v.2l.2.3ZM22.3,70.6l.2-.2h-.2l-.1-.1-.1.2.2.1ZM22.7,11.9l.2-.3-.4.1-.1.3.3-.1ZM22.7,1l-.1-.1-.1.2.2-.1ZM22.9,8.8l.8.3v-.2l-.3-.3-.6-.3-.3.5h.4ZM22.9,67.1l.1-.3-.1-.1-.2.1v.2l.2.1ZM23,68l-.1-.1-.1.2.2-.1ZM24.4,63.8l-.2-.6-.3-.2-.1.2-.3.3v.3h.9ZM24.1,8.1l.2.1.3-.2-.1-.2h-.4l-.2.3h.2ZM24.5,59.8l.1-.2-.4-.1-.2.2.5.1ZM24.6,66l.1-.2-.4-.4v.3l.3.3ZM24.6,6.8l-.1-.3-.1.2.2.1ZM25.3,65.3v-.3l-.3-.1-.1.3.4.1ZM25.2,71.71l.1-.1-.2-.1.1.2ZM25.8,8.6l-.2-.2-.1.3.3-.1ZM26.3,11.1l.2.1.3-.1-.9-.8.4.8ZM26.2,9.9h.2l.1-.6h-.3l-.2.3.2.3ZM26.4,62.9v-.2l-.2-.2-.1.2.3.2ZM26.9,8.5l.1-.1v-.3l-.3-.1-.1.5h.3ZM27.2,9.8v-.2l-.4-.1.4.3ZM27.3,3.9h-.2l-.1.1.3-.1ZM27.4,59.2l.2-.1v-.2l-.4.1.2.2ZM27.4,5.7h.3l.1-.2-.2-.2-.3.1.1.3ZM27.4,57.1l.5-.4h-.4l-.2.1.1.3ZM27.5,54.3l.2-.3-.3.1.1.2ZM28,61.5l.2.1.3-.1-.2-.1-.3-.3h-.2l.2.4ZM28,50.5h.2l-.2-.4-.1.1.1.3ZM28.1,63.7l.2-.1v-.4l-.3-.1-.1.6h.2ZM28.3,4.5h.2l.1-.2-.2-.1-.2.1.1.2ZM28.4,10.4l.1-.2h-.2l.1.2ZM28.6,59.5l.1-.2-.2-.4-.2.2.3.4ZM28.7,58.4l.2-.1.2-.3h-.5l-.1.3.2.1ZM29.1,26.8l.2-.3.6-.1v-.2l-.1-.2-.4-.1v.2l-.8.8.5-.1ZM28.8,70.6l-.1-.1-.1.2.2-.1ZM28.9,27.9h.2v-.2l-.1-.1-.3.2.2.1ZM28.9,60.1l-.1-.1-.1.2.2-.1ZM29.3,49.4l-.1-.2-.2.1v.2l.3-.1ZM29.2,62.4v-.2l-.2-.1v.2l.2.1ZM29.2,57.7l.2.1.4-.2.1-.3h-.5l-.3.3.1.1ZM29.8,63l.1-.4v-.3h-.2l-.4.5.5.2ZM29.6,25l.4-.4h-.6v.4h.2ZM29.7,59.1l.2-.2v-.4l-.2-.1-.2.6.2.1ZM30,56.3l.1-.2-.1-.1-.2.2.2.1ZM30.3,25.5v-.1l-.2.2.2-.1ZM30.3,51l.2-.1.1-.2h-.4l.1.3ZM30.8,48v-.3l-.1-.2h-.2l-.1.4.4.1ZM31.2,59.7l.1-.4-.4-.1-.3.3.6.2ZM30.8,47.2l.1-.1-.2-.1.1.2ZM30.8,52.8v-.2l-.1-.1v.2l.1.1ZM30.9,61.5l.2-.3-.4.1v.2h.2ZM31.1,27l.2-.2-.3-.1-.1.3h.2ZM31.3,19.8l-.3-.1v.2l.3-.1ZM31.2,7.6l.3.2.3-.2-.4-.2-.3.1.1.1ZM31.5,13.3h.2l.2-.2-.5-.2v.2l.1.2ZM32.2,10.9h.4l-.1-.2.2-.5-.2-.1-.5.2-.2.4.4.2ZM31.9,51.2l.3-.4-.4-.1v.3l.1.2ZM32.3,26.8l.2-.1.1-.4-.4.1-.1.4h.2ZM32.3,52.8l.2-.3-.2-.1-.2.5.2-.1ZM32.5,18.1l-.1-.5-.2.2.3.3ZM32.3,54.6l.1-.1-.2-.2v.3h.1ZM32.7,18.3l-.1-.1-.2.2.3-.1ZM32.6,22.9l.4-.1.1-.2-.2-.2-.4.1-.1.2.2.2ZM32.7,15.6l.2.1.2-.1v-.2l-.5-.2.1.4ZM32.8,45.2l-.1-.1-.1.2.2-.1ZM33.4,12.1l-.1-.3-.5-.1-.1.2v.3l.7-.1ZM33.1,11.1v-.1l-.3.1h.3ZM32.9,17.4h.2l.1-.2v-.2l-.2-.2-.2.2.1.4ZM33,49.2v-.3l-.2.2.2.1ZM33.3,10.2l-.1-.1-.1.2.2-.1ZM33.4,20.3l.2-.1.2-.6-.3-.2-.3.1v.5l.2.3ZM33.7,24.6l.3-.7-.2-.2-.1.1-.2.7.2.1ZM33.6,63.9l.2-.2v-.2l-.2-.1-.1.2.1.3ZM33.8,17.4v-.1l-.1.1h.1ZM33.9,19.4l.1-.1.2.1v-.4l-.3-.2-.2.5.2.1ZM34.1,24.9v-.2l-.3-.1-.1.2.4.1ZM34.4,18l-.2-.1-.2.3.4-.2ZM34.3,22.2l.3-.3-.5.2.2.1ZM34.3,10.3l.4-.1.4-.3h-.6l-.3.2.1.2ZM34.3,20l.2.4.3.3.4-.3-.4-.1-.2-.3.3-.5-.2-.1-.4.1-.1.4.1.1ZM34.6,24.2v-.2l-.2-.1-.2.2.4.1ZM34.7,17.5l.2-.2-.2-.1-.2.2.2.1ZM35.2,17.8l-.2-.2-.2.1.4.1ZM35.1,16.4l.5-.1-.4-.3-.2.1v.2l.1.1ZM35.2,19.7h.2l.2-.6-.1-.3h-.2l-.3.8.2.1ZM35.4,12.7v-.2l-.1.1v.3l.1-.2ZM35.5,11.3l.4.2.1-.4-.3-.3v-.4l-.2.1h-.1l.1.8ZM35.6,24.6v-.2l-.2-.2v.4h.2ZM35.8,50.6l.1-.3-.3-.2-.2.1v.3l.4.1ZM36,52l.2-.4-.2.1-.3.2.3.1ZM37.8,12.7l-1.2-.4-.4-.2-.2.1v.3l1.8.2ZM36.4,8.7l.1-.3h-.2l-.1.3h.2ZM36.9,23.6l-.1-.1-.1.2.2-.1ZM37,25.4v-.2l-.2-.1-.1.3h.3ZM37,49.1l.3-.7h-.2l-.3.6.2.1ZM37.3,14.8l.2-.2-.4-.2-.1.2.3.2ZM37.3,26.9l.2-.4-.4.2v.2h.2ZM37.4,47.2v-.1l-.2-.1-.1.2h.3ZM37.7,46.2l-.2-.1-.1.1h.3ZM37.9,19.8l.1-.2-.3-.1-.2.4.4-.1ZM38.1,17.5h-.2l-.2.2.4-.2Z"/>
  <path class="cls-1" d="M84.85,9.45l-.1,1.4-.4,1.2-.7.8-.7.3-1.2.1-1.8-.2-.4-.2-.4.3h-1l-.2-.1h-.8l-.1.1-.6-.1-1.2.2-2.1-.2-.4.1-.7.5-.5,2.2.1.2-.2,1.6-.2.2-.2,1.6.1.2-.4,2.6-.2.3.1.8-1,7v.4l-.5.4.2.5-.1,1.6-.2.2-.3,2.2.1.1-.2,1.6-.4.3.2.5-.3,2.4-.3,1.3.1.6-.3,2.3-.1.2-.2,1.9-.7.4-.3.5.2.3.4.1.1.3-.2.6v1.6l-.4,1.2-.6,4.9v.2l-.4,3-.1.2-.2,1.6v.2l-.2,1.4-.1.2-.4,3,.1.2-.3,1.8-.1.2-.3,2,.1.2-.2.5-.3.3.2.6-.4.7-1.4.6-1.6.1-1-.2-1.8.1-.1-.1h-.8l-.2.1h-3.2l-.2-.1h-1.3l-.8-.5-.3-.7.2-.7.1-1.5-.2-.2.2-1.2.1-.2.4-2-.1-.2.5-3.5-.1-.2.3-1.9.1-.2.3-1.6.1-.2.2-1.3-.1-.2.6-4,.1-.2.4-2.3-.1-.2.2-2,.3-.8.1-1.8.2-1.3.1-.2.4-2.1-.2-.2.5-3.2.1-.2.3-2.1-.1-.2.1-.8.3-.5-.1-.2.2-2.1.1-.2.2-1.4.3.1.2-.1-.5-.6.3-1.4.4.1.4-.1v-.2l.2-.1.5.1-.1-.9-.2-.5-.5-.1-.1,1h-.2l-.3-.6.1-1.6.3-.2.4-2.8-.1-.2.3-2,.3-.6v-.2l.1-1.8.3-.5.4-.3.1-.2-.6-.1-.1-.4.6-1.5-.4-2.2-.4-.1h-1.8l-1-.4-.3.1-.2.3h-2.7l-.2.1-.8-.1-.9-.4-.9.3-.8-.1-.2-.3-.4.2h-.4l-.6-.4.1-2.8.6-4.3.2-.2.4-3.1.5-.6h.8l.2-.4.2-.1,2.9.2.2-.1h2.7l1.2.2.5.6.1-.6.5-.1h2.5l.6-.1.2.2,2.2-.2,1,.3-.2-.1h2.5l.3-.1-.2,1.3.1.4.2.1.3-.4-.4-.4.2-.8.5-.2h4.7l.2-.1h1.2l.7.2,2.6-.2.2.1h1.3l.2-.1h1.8l1.5.2,1.1-.2,1.7.1.9.7v.9l-.4,2.9-.1.2-.2,1.2.1.1-.1,1-.2.2-.1.8.1.2ZM49.35,8.05l-.1-.1-.1.2.2-.1ZM50.15,6.95l-.2-.1-.1.2.3-.1ZM50.15,9.85l.4.3.4-.3-.9-.3.1.3ZM50.45,5.45l.3.1v-.2l-.4-.1.1.2ZM50.65,6.75l-.1-.1-.1.2.2-.1ZM50.85,7.85l.3-.6.5-.4v-.2l-.5.1-.3.3-.3.8h.3ZM50.95,11.85h.2l.2-.2-.3-.3-.2.1v.2l.1.2ZM51.05,4.95l.2.1.4-.4.1-.4-.7.1-.1.2.1.4ZM51.45,5.75l.2-.4-.2-.1-.3.2-.2.4.5-.1ZM51.45,11.35l.1-.5h-.3v.2l.2.3ZM51.75,8.05l.2-.8-.2-.1-.1.2-.1.6.2.1ZM52.15,5.85l.3.2v.5l.3-.1.7-.5-.7-.8-.4-.1-.2.2-.2.6h.2ZM52.25,69.45l.4-.4-.2-.1-.2.1-.2.4h.2ZM52.45,8.45l.1.1.3-.3-.2-.1-.4.3h.2ZM53.15,9.95l.1-.2-.1-.2-.5-.1-.2.3.7.2ZM52.75,67.75l-.1-.1-.1.2.2-.1ZM52.85,72.15l-.3.1v.3l.3-.4ZM52.85,4.15l.3-.1-.3-.5v.2l-.1.2.1.2ZM53.25,8.55h1.1l-.3-.7-.8-.7.1.7-.3.6.2.1ZM53.75,3.65l.2-.1.1-.2-.5-.1v.2l.2.2ZM53.75,11.65l.1-.1v-.2h-.3v.2l.2.1ZM53.85,2.35l.2-.4h-.2l-.2.3.2.1ZM54.25,7.55v.4h.3l.2-.4-.9-.9-.1.4.5.5ZM54.95,62.45l.1.1.5-.1-1.4-.3.8.3ZM54.65,4.05l-.2-.3-.1.2.3.1ZM54.55,6.05l.4-.2.6-.8-.1-.2-1.1,1.2h.2ZM54.55,9.75l.5-.5-.5-.2-.1.6.1.1ZM54.85,2.65l.3.3.1-.3-.4-.5-.1.1.1.4ZM54.95,71.95l.6-.1.1-.2-.2.1-.6-.1-.1.2.2.1ZM55.05,6.65v.8h.3l.2-.2-.2-.8-.4-.1-.1.2.2.1ZM55.05,9.15l.3-.2.2-.4-.1-.3h-.5l.1.9ZM55.15,69.45l.4-.4-.4.1-.2.3h.2ZM55.35,1.65l-.1-.3-.1.2.2.1ZM55.75,9.45l-.1-.1-.1.2.2-.1ZM56.15,7.75l.1-.3h-.2l-.3.3h.4ZM56.05,50.75v-.2l-.3-.1.3.3ZM56.35,3.65l.2-.2-.1-.5-.2-.2-.2.2-.2.6.5.1ZM56.25,61.05l.1-.2-.3-.3-.1.2.3.3ZM56.25,56.05l.3-.4h-.2l-.3.1.2.3ZM56.35,58.15v-.2l-.3.1.3.1ZM56.25,61.95l.2-.2-.2-.1-.2.2.2.1ZM56.35,8.15l.4.1.1-.2-.2-.3.7-.4.2-.5h-.4l-.5.3-.2.4-.2.3.1.3ZM56.55,9.95l.4.4.1-.6-.1-.6-.4-.4-.1.6.1.6ZM56.75,55.05l-.1-.2-.2-.1v.3h.3ZM56.85,5.45l-.2-.3-.1.2.3.1ZM56.75,56.45v-.2h-.2v.2h.2ZM56.95,32.55l.3-.3-.6-.2v.2l.3.3ZM57.45,62.65h.2l-1-.2.8.2ZM57.45,4.85l.5.2.1-.2-.1-.2-.5-.3-.3.2.3.3ZM57.45,63.55v-.2l-.3.1v.2l.3-.1ZM57.55,32.95l.8.1.6-.5.2-.1.4.5,1.2.2-.2-.4-.4-.3h-.6v-.2l.6-.3-.6-.7-.6.5-.4.6h-.7l-.4.2-.2.2.3.2ZM57.45,44.85l.5-.3v-.3l-.1.1-.4.2-.2.3h.2ZM57.45,7.95l.1.1.7-.1.2-.5-.4-.4-.2.6-.5.1.1.2ZM57.55,53.15h.2l.1-.5-.3-.1-.1.4.1.2ZM57.75,54.45l.6.3.1-.4-.2-.4-.4-.2-.4.1v.2l.3.4ZM57.75,12.05v-.2l-.2.2h.2ZM57.75,2.15v-.2l-.1.3.1-.1ZM58.55,51.65l.2.6.1.1.2-.1.2-.5-.5-.4.2-1-.1-.1-.3.1v.3l-.2.2-.5-.1-.2.2.9.7ZM57.85,34.05v.2h.2l.1-.3-.3-.2-.1.2.1.1ZM58.45,25.35l.1-.1-.3-.3-.3.6.5-.2ZM58.35,48.65l-.1-.2-.1-.1-.1.2.3.1ZM58.55,30.25l.1-.2-.3-.4-.2.2.4.4ZM58.45,9.75l.1.4.3.2v-.3l-.1-.3.1-.2-.4-.1-.1.2.1.1ZM58.45,39.05l.3-.4-.2.1h-.2l.1.3ZM58.65,57.05l.4-.2.2-.2-.1-.2-.1.2-.6.1v.2l.2.1ZM58.65,64.65v-.2l-.2-.1v.3h.2ZM58.95,10.75l-.1-.1-.1.2.2-.1ZM59.05,45.85v-.4l-.1-.2-.2.2.3.4ZM59.15,8.75v-.2l-.3-.1.3.3ZM58.95,29.95l.3-.1.2-.4-.4.2-.2.2.1.1ZM59.25,33.25l-.1-.1-.2.2.3-.1ZM59.25,19.55l.6-.2.3.4h.2l-.1-1.3.3-.1.2.1v-.5l-.7.1-.1.6-.4.4-.5.1v.2l.2.2ZM59.25,32.95l-.1-.1-.1.2.2-.1ZM59.45,36.35l.1-.8-.1-.3h-.2l-.1.2-.1.4.4.5ZM59.15,49.25v-.1l-.1.3.1-.2ZM59.35,58.45l.2-.2h-.4l-.1.2h.3ZM59.35,61.05l.1-.2h-.2l-.2.2h.3ZM59.45,37.25v-.2l-.3-.1v.2l.3.1ZM59.25,38.15l-.1-.1v.2l.1-.1ZM59.35,42.75l.3-.4.2-.8-.3-.1-.4.9.2.4ZM60.15,54.05l.2.1h1l-.2-.3-1.5-.6-.5.8h1ZM59.55,47.75l.1-.4-.3.1-.1.2.3.1ZM59.55,38.05h.4v-.1l-.1-.2-.4-.1.1.4ZM59.65,7.45l.7.2v-.2l-.3-.4-.2-.1-.3.1v.2l.1.2ZM59.75,42.85l-.1-.1-.1.2.2-.1ZM59.75,45.45l.6.1.2-.2-.2-.2v-1.2l-.4-.1-.3.4.2.3-.3.6.2.3ZM59.85,21.05v-.6h-.1l-.1.7.2-.1ZM60.25,17.55l-.3-.2-.2.1v.2l.5-.1ZM60.25,30.35l.1-.1v-.8l-.4-.1-.1.2-.1.4.5.4ZM59.85,62.35l.3.2.4-.8-.2-.3-.6.7.1.2ZM59.95,4.05l.4-.4-.2-.1-.3.3.1.2ZM60.05,26.35l.2-.4h-.3l-.1.4h.2ZM60.35,10.35l.2-.8h-.3l-.2.1v.6l.3.1ZM60.15,34.45l.7.3.2-.1.1-.5-.2-.3-.1.4-.2.1-.4-.2-.2.1.1.2ZM60.25,49.05l.1-.4-.2-.1-.1.2v.2l.2.1ZM60.75,51.85l-.1-.1h-.2l-.4.3.7-.2ZM60.15,58.35l.1-.2-.2.1.1.1ZM60.55,36.35l.2-.4-.4.1-.2.5.4-.2ZM60.25,40.25l.2.1.2-.3-.2-.1-.3.2.1.1ZM61.05,56.55l.2-.3.1-.2-.1-.2h-.4l-.1-.4-.1-.2-.3.1-.2.7v.6l.9-.1ZM61.25,16.85l-.1-.2-.2-.2v-.4l-.4.2-.2.2.9.4ZM60.75,37.45v-.1l-.2-.1-.1.2h.3ZM60.65,21.15l.3.1.1-.2-.5-.5.1.6ZM60.85,25.05l.1-.2v-.1l-.3.1v.2h.2ZM60.95,31.85l.1-.1-.4-.1v.3l.3-.1ZM60.75,45.85l.3.1.2-.3-.6-.2v.2l.1.2ZM60.85,54.75l.2-.3-.2-.1-.2.3v.2l.2-.1ZM60.85,19.85h-.1v.1l.1-.1ZM61.65,30.65v-.2l.4-.8-.6-.1-.3.1-.4.6.9.4ZM60.95,36.85l.1-.2-.3-.1v.3h.2ZM61.05,23.25l.2.3-.2.3h.3l.2-.6-.2-.5-.2-.2-.2.2.1.5ZM61.15,6.05l.2-.1-.1-.2-.2.1.1.2ZM61.25,19.85l.3-.1-.5.1h.2ZM61.15,27.65l.3-.1-.1-.2-.3.1.1.2ZM61.45,42.65l.3-.4-.2-.1-.4.2-.1.2v.1h.4ZM61.35,45.05l.2-.2.1-.4-.5.1-.1.2.3.3ZM61.15,49.95l.3.1v-.2l-.4-.1.1.2ZM61.55,63.15v-.2l-.5-.2v.2l.5.2ZM61.35,39.45l.2-.1-.1-.2h-.3v.2l.2.1ZM61.55,4.85l.2.2.1-.7.2-.2v-1.2l-.1-.2h-.3l-.3.2.2,1.9ZM61.65,5.55l-.1-.1-.2.2.3-.1ZM61.55,29.05l-.2-.2v.2h.2ZM61.55,35.15l-.1-.3-.1.4.2-.1ZM62.35,17.85l.4-.2-.4-.2h-.6l-.3.2.9.2ZM61.85,21.65v-.5l-.3-.1-.1.4.4.2ZM61.55,28.15h.2l.2-.2.2-.4-.7.2.1.4ZM61.75,56.85h.3l.2-.2-.2-.2h-.6v.2l.3.2ZM61.65,63.25v-.2l-.1.3.1-.1ZM61.85,39.05l.3-.7h-.2l-.2.3-.1.5.2-.1ZM62.05,41.65l.2-.2-.5-.4-.1.1v.5h.4ZM61.85,6.55l.4.1.2-.7-.1-.1h-.1l-.4-.2-.1.5.1.4ZM62.75,8.45v.9l.8-.6h.2l-.3-1.1-.5-.3v.2l-.2.2-.6-.3-.4.1v.2l1,.7ZM61.95,19.45l.5.1.5-.3-.1-.1-.5.1v-.8l-.2-.2-.3.3-.1.8.2.1ZM62.45,26.65h.3l.1-.1-1.1-.3.7.4ZM62.05,51.45l.2-.3h-.5v.2l.3.1ZM62.65,13.25l.3-.2.1-.2-.2-.3-.1.2-.2.2h-.3l-.4.2.8.1ZM61.95,22.35l.1.1.2-.3v-.2l-.4.2.1.2ZM61.95,31.15h.2l.1-.3-.4.1.1.2ZM62.45,10.45v.4l.3.1.5-.6.1-.2-.2-.3-.7-.1-.4-.3-.1.4.5.6ZM62.75,34.45l.1-.6.2-.6-1.1.8.8.4ZM62.15,37.15l.5.6.1-.2-.3-.8-.5-.2.2.6ZM62.05,40.25l.2-.1-.1-.3-.2.2.1.2ZM62.45,48.25l.1-.2-.1-.2-.4.2-.1.2v.2l.5-.2ZM62.15,58.85l.1-.2-.1-.2-.2.4h.2ZM62.35,1.95l-.1-.3-.2.4.3-.1ZM62.15,25.75l.4.1.1-.2-.4-.2-.2.2.1.1ZM62.25,45.55l.3-.2.2-.6-.2-.1h-.2l-.3.9h.2ZM62.35,16.05l-.2-.2v.2h.2ZM62.85,50.45l.2-.4-.2-.1-.5.3-.2.4.7-.2ZM62.45,5.35h.3l.2-.2-.2-.8.3-.4-.4.2-.4.8.2.4ZM62.65,30.45l-.1-.1-.2.2.3-.1ZM62.45,35.45l.2-.2-.3.1.1.1ZM62.55,23.75l.3.1-.1-1.4-.2-.1-.1,1,.1.4ZM63.15,32.55v.3h.3l.2-.4-.1-.4.2-.1.2.1-.7-1.6-.2.6.1.9-.6.2-.1.3.7.1ZM62.85,47.75l.1-.1-.2-.1-.2.2h.3ZM62.75,16.05l.5.1v-.2l-.2-.2-.4.1.1.2ZM62.75,20.35l.1-.1.5-.3.2-.4-.5.1-.4.4.1.3ZM63.25,58.55l-.6-.1v.2l.6-.1ZM62.95,39.75l.1-.2-.3-.3v.5h.2ZM63.05,40.25l.1-.1-.2-.1-.1.1.2.1ZM63.35,1.85v-.1h-.3l.3.1ZM63.35,22.45v-.4l.2-.2-.3-.3-.2.4v.4l.3.1ZM63.25,41.45v-.2l-.2.1v.2l.2-.1ZM63.35,17.45l.2-.1.3-.4v-.3l-.4.2-.3.6h.2ZM63.25,23.25h.2v-.1h-.3l.1.1ZM63.75,15.05l-.1-.2-.3-.1-.1.2.5.1ZM63.45,13.05h.2l-.1-.3-.2.1.1.2ZM63.55,55.85l.1-.3-.2-.1-.1.4h.2ZM63.65,34.05l.3-.3-.2-.1-.3.1.2.3ZM63.95,6.85l-.1-.2-.2-.1-.1.2.4.1ZM64.15,38.75l-.3-.6h-.2l-.1.2.6.4ZM63.95,5.45l1,.6-.1-.5-.8-.6.3-.1.4.2.1-.3-.4-1.1-.3-.1-.1.3.2.4-.3.4-.1.2-.2.1.3.5ZM64.15,11.45l.4-.1.2-.2-.1-.1-.8-.1-.2.4.5.1ZM64.05,14.05l.2-.2-.5-.2-.1.4h.4ZM63.85,18.15l-.1-.3-.1.2v.1h.2ZM63.95,21.45l-.2-.2-.1.2h.3ZM64.05,36.35l.2-.4-.2-.1-.4.6.4-.1ZM63.85,50.55l.2-.2-.2-.1-.2.2.2.1ZM64.15,26.25l.3-.1v-.6h-.2l-.2.1-.2.4.3.2ZM64.05,33.15h.2l-.2-.3-.2.2.2.1ZM64.05,13.25h.6v-.3l-.1-.2-.2-.1-.4.3.1.3ZM64.35,27.35l.3.3h.2l-.2-.4-.5-.2-.1.4.3-.1ZM64.35,30.35v-.1l-.3-.1v.2h.3ZM64.65,37.95l1.3-.4.1-.2h-.8l-.3-.3h-.4l-.3.3-.2.4.6.2ZM64.35,34.25l.4-.2.3-.8h-.2l-.5.3-.2.7h.2ZM64.45,15.55l.2-.1.2-.4-.1-.3-.4.6.1.2ZM65.55,8.05l.1-.1-.1-.1-.1-.4-.4-.4h-.5l-.1.1,1.1.9ZM65.05,16.75l.3.1.5.5.2-.1,1,.2v-.2l-.2-.5-.5-.2-1.3-.2-.4.5-.2.5.6-.6ZM64.65,10.65l.2-.3h-.3v.2l.1.1ZM64.65,24.55h.1l.4.2.2-.1-.2-.4-.5-.1-.1.2.1.2ZM64.75,14.05l.3.2.1-.7v-.2l-.5.1.1.6ZM64.85,29.95l.5-.8.4.2.3-.4.1-.6h-.4l-.8.6-.3.4v.3l.2.3ZM65.05,36.05l.2-.3-.1-.1-.4-.1-.1.2.4.3ZM64.95,21.75l.1-.1-.2-.1-.1.3.2-.1ZM65.05,26.05l-.1-.1-.1.2.2-.1ZM64.95,49.05l.4-.3h-.5v.2l.1.1ZM65.35,32.75l.6.1-.1-.3-.6-.2-.3.4h.4ZM65.25,8.85l-.2-.2v.1l.2.1ZM65.35,31.85v-.3h-.2l-.1.4.3-.1ZM65.25,38.95l.2-.2v-.2l-.2-.1-.2.2v.3h.2ZM65.85,4.55l-.4-.2h-.2l.6.2ZM65.95,27.95l-.1-.2.1-.2-.3-.3h-.2l-.2.5.7.2ZM65.45,36.45l-.1-.1-.1.2.2-.1ZM65.95,9.25l.4-.3-.1-.1-.4-.3-.5.1.6.6ZM65.55,31.05l.4-.1-.5-.3-.1.1v.1l.2.2ZM65.55,5.85l.6.4.6-.4.3.1.3.3.2-.5.2-.1.5.1.1-.9-.3.1-.5-.4-.3.4-.4-.4-.2.3-.2.5-.3.3-.6-.2-.1.2.1.2ZM65.55,47.35l.4.1v-.2l-.1-.2-.3-.1-.1.2.1.2ZM66.05,11.35l-.3-.4-.2.4h.5ZM65.95,23.65l.1-.2v-.2l-.3-.1-.1.4.3.1ZM65.95,35.65l.1-.5-.4.2v.3h.3ZM65.75,44.95l.4-.1.2-.3h-.4l-.3.3.1.1ZM66.05,22.35l.2-.4-.5.1v.3h.3ZM66.15,38.55l.1-.2-.1-.1-.2.3h.2ZM66.35,15.45l.3-.3-.2-.1-.4.1.3.3ZM66.55,27.35l.1.1.3-.1.2-.5h-.2l-.5.4v-.4l-.4.5h.5ZM66.35,42.75l.2-.1.2-.3-.2-.1-.2.1-.2.4h.2ZM66.45,8.15l.2-.3.2-.5h-.3l-.3.7.2.1ZM66.75,6.85l-.3-.3v.3h.3ZM66.55,9.15l.6.6-.6.5.1.3.7-.6v-.1l.1-.7.2-.4.3-.2.6.4.5-.1.3-.3.2-.4-.1-.4.5-.2.1-.2-.4-.1-.4-.5v.8l-.2.4-.4.1-.3-.3v.2l-.1.2-.8.3-.2.5-.8-.3.1.5ZM66.95,25.65v-.4h-.2l-.1.4h.3ZM66.75,29.25l.4.1-.2-.3-.3.1.1.1ZM67.05,36.75l.3-.3-.2-.1h-.2l-.3.3.4.1ZM67.05,34.75l.1-.4h-.3l-.1.2v.3l.3-.1ZM67.05,47.75h-.2l-.1-.1.3.1ZM67.35,24.15l.2-.4-.4-.1-.3.2v.4l.5-.1ZM67.05,10.95l.6.1v-.2l-.3-.2-.4.1.1.2ZM67.15,15.25l.7-.5h-.6l-.3.1.2.4ZM67.05,18.15l.8.3.1-.2-.6-.4-.4.1.1.2ZM67.35,3.55l.1-.4-.4.1v.2l.3.1ZM67.35,22.65l.1-.2-.2-.3-.2.1v.4h.3ZM67.45,16.45l.2-.2h-.2l-.2.2h.2ZM67.75,34.05l-.2-.1-.2.3.4-.2ZM67.95,6.75l.1-.4-.5-.1-.1.2.5.3ZM67.95,7.75l.3-.2-.3-.2-.1.2.1.2ZM68.25,23.25l-.3-.2v.2h.3ZM68.35,14.05l.2-.3-.4-.1v.2l.2.2ZM68.45,27.15l.1-.2-.3.3.2-.1ZM68.95,10.75l.3-.4.1-.8-.5-.1-.4.1-.1.4.6.8ZM68.75,25.35h-.2l-.2.3.4-.3ZM68.65,28.55l.4-.6-.2-.1-.2.1-.2.4.2.2ZM68.85,21.45l.1-.1v-.3l-.3.3.2.1ZM68.85,22.15l.1-.1v-.5l-.3.5.2.1ZM69.65,5.15l.4-.3-.1-.1.1-.4-.3-.2-.1.2-.5.6.5.2ZM69.45,6.05l.1-.1-.4-.6v.8l.3-.1ZM69.65,3.95l.1-.7-.4.2-.1-.1v.5l.4.1ZM69.75,11.55l.3.1.1-.3v-1l-.2.1-.4.6-.1.3.3.2ZM69.75,24.65l-.1-.1-.1.2.2-.1ZM70.55,6.85v.5l-.2.9.2-.1.1-.4.3-.2.4.5.6.2-.1-1.4-.6-.1-.1.2h-.2l-.3-.3-.7-.4-.1.7.7-.1ZM70.35,17.35l.1-.1-.2-.1-.1.3.2-.1ZM70.55,5.95l1.3-.6.2-.5-.8.4-.2-.3-.3-.2v.2l-.3.8.1.2ZM70.85,8.85l-.3-.1v.2l.3-.1ZM70.65,10.35h.2l.2-.3-.5-.1.1.4ZM70.85,12.05l.7-.3.3.3.7-.3.1-.4-.3.1-.9-.2-.4.2-.3.5.1.1ZM71.25,8.55l-.1-.1-.1.2.2-.1ZM71.25,9.45v-.2l-.2-.1v.2l.2.1ZM71.55,4.45v-.1l-.2.1h.2ZM71.85,3.15l.1.1-.2-.3.1.2ZM72.15,8.95l.4-.4.2-.4h-.2l-.6.3-.2.6.4-.1ZM72.35,3.85l.3-.1.2-.5-.2-.1-.5.1v.2l.2.4ZM73.35,9.75h.4l.3.4.1-.4.4-.6.6-.1v-.3l-.3-.2-.4.1-.2.4-.8.3-1,.2.1.2-.4.6,1.2-.6ZM72.35,7.65l.2-.1.2-.5-.1-.3-.4-.1.1,1ZM72.85,5.35l.2-.3-.2-.2-.2.2.2.3ZM72.95,9.05l.3-.1.1-.1-.6-.1.2.3ZM73.25,3.45l.3.1v-.2l-.3-.2-.2.1.2.2ZM73.75,8.55l.2-.1-.1-.4-.2-.1-.1-.4.3-.8h-.2l-.3.3-.1.8-.1.2.6.5ZM74.15,6.75l.7.1.5-.1.9-.6-.1-.2h-.2l-.2-.3h-.2l-.1.2.1.4.1.3-.5-.3-.5.1-.2-.1.1-.6-.2-.4-.2.1-.3.6v.2l.3.6ZM75.25,11.65l.2-.3h-.2l-.2.2.2.1ZM75.55,3.95l-.1-.2-.1-.1-.2.1v.2h.4ZM75.55,8.75v-.2l-.2-.1v.2l.2.1ZM75.65,2.15l.2-.2-.3-.3v.2l.1.3ZM75.95,10.05v-.4h-.1l-.2-.7-.1.2v.4l.4.5ZM76.15,5.15v-.4l-.4-.2-.1.2v.5l.5-.1ZM75.95,7.35l.1-.1-.2-.3-.1.5.2-.1ZM76.05,3.75l.3-.2-.2-.4-.3-.1.2.7ZM76.15,4.25l.2-.1-.2-.1v-.2h-.2v.2l.2.2ZM76.25,8.65l.3-.4v-.2l-.5.4.2.2ZM76.55,6.65l.2-.1.5-.6-.3-.2-.2-.5-.4.5.3.2-.3.7h.2ZM77.05,7.65l.2-.1v-.3l-.3-.2-.2.1-.1.6.4-.1ZM78.15,8.35v-.2l-.4-.1v.2l.4.1ZM77.95,6.55l.2-.4-.3-.1v.2l.1.3ZM78.15,7.15l.3-.1v-.2l-.2-.1-.2.1-.1.2.2.1ZM78.95,5.85v-.2l-.3-.1-.2.2.5.1ZM79.25,12.35l.1-.1-.2-.1-.2.1v.2l.3-.1ZM79.65,7.15l-.1-.1-.1.2.2-.1ZM79.75,9.95l.2-.2-.3-.1-.2.3h.3ZM79.95,4.05l.1-.2-.3-.4-.1.2.3.4ZM79.95,6.35v-.3l-.1.2.1.1ZM80.25,12.35l.7.3-.2-.4-.2-.1-.4.1.1.1ZM80.45,7.95l.1-.2v-.1l-.3.1.2.2ZM80.65,6.75l-.1-.3-.1.1.2.2ZM81.65,2.45l.1-.2-.1-.2-.2.1v.2l.2.1ZM81.85,4.75v-.5l.6.2.2-.1.3-.2-.2-.2h-1l-.1-.1-.2.3v.4l.4.2ZM81.85,7.45l.2-.2v-.2l-.4.4h.2ZM82.65,3.45l-.1-.1-.2.2.3-.1ZM82.55,3.05l.4-.2.3-.3-.2-.1-.6.3v.5l.1-.2ZM83.15,2.15v-.3h-.2l-.1.3h.3ZM84.35,2.85v-.2l-.1.2h.1Z"/>
</svg>