<?xml version="1.0" encoding="UTF-8"?>
<svg id="people" xmlns="http://www.w3.org/2000/svg" viewBox="0 0 1046 1378">
  <defs>
    <style>
      .cls-1, .cls-2 {
        fill: #e0b9a0;
      }

      .cls-3 {
        fill: #1e2127;
      }

      .cls-2 {
        opacity: .5;
      }

      .cls-4 {
        fill: #fff;
      }

      .cls-5 {
        fill: #f2f2f2;
      }

      .cls-6 {
        fill: #fe5663;
      }

      .cls-7 {
        fill: #e03d51;
      }

      .cls-8 {
        fill: #3c3c4c;
      }

      .cls-9 {
        fill: #d46f4d;
      }

      .cls-10 {
        fill: #f9e2d2;
      }

      .cls-11 {
        fill: #ffa88e;
      }

      .cls-12 {
        fill: #161515;
      }
    </style>
  </defs>
  <g id="_10" data-name="10">
    <g>
      <path class="cls-6" d="M160.16,687.59c-.1.47-.11.95-.03,1.4.04.22.1.44.16.66,0,.83.27,1.67.66,2.42.02.04.03.08.05.12,0,.02.02.03.03.05.03.06.06.13.1.19,0,.01.01.02.02.03,0,0,.01.01.01.02.06.09.12.19.2.28.01.02.03.03.04.05,1.54,1.79,4.86.37,6-1.42.93-1.11.59-2.56.05-3.88-.51-1.24-1.46-3.31-2.83-3.81-.78-.28-1.59-.14-2.22.29-.87.38-1.65,1.21-1.99,2.01-.2.46-.26,1.02-.24,1.59Z"/>
      <path class="cls-6" d="M138.84,689.9c-.1.47-.11.95-.03,1.4.04.22.1.44.16.66,0,.83.27,1.67.66,2.42.02.04.03.08.05.12,0,.02.02.03.03.05.03.06.06.13.1.19,0,.01.01.02.02.03,0,0,.01.01.01.02.06.09.12.19.2.28.01.02.03.03.04.05,1.54,1.79,4.86.37,6-1.42.93-1.11.59-2.56.05-3.88-.51-1.24-1.46-3.31-2.83-3.81-.78-.28-1.59-.14-2.22.29-.87.38-1.65,1.21-1.99,2.01-.2.46-.26,1.02-.24,1.59Z"/>
      <path class="cls-6" d="M46.66,693.93c-.09.47-.11.95-.03,1.4.04.22.1.44.16.66,0,.83.27,1.67.66,2.42.02.04.03.08.05.12,0,.02.02.03.03.05.03.06.06.13.1.19,0,.01.01.02.02.03,0,0,.01.01.01.02.06.09.12.19.2.28.01.02.03.03.04.05,1.54,1.79,4.86.37,6-1.42.93-1.11.59-2.56.05-3.88-.51-1.24-1.46-3.31-2.83-3.81-.78-.28-1.59-.14-2.22.29-.87.38-1.65,1.21-1.99,2.01-.2.46-.26,1.02-.24,1.59Z"/>
      <path class="cls-6" d="M72.56,692.74c-.24.41-.41.87-.48,1.31-.04.22-.05.45-.06.67-.27.79-.28,1.67-.15,2.5,0,.04,0,.09,0,.13,0,.02,0,.04,0,.06,0,.07.02.14.03.21,0,.01,0,.03,0,.04,0,0,0,.02,0,.02.02.11.05.22.09.33,0,.02.02.04.03.06.88,2.19,4.48,1.91,6.14.58,1.23-.75,1.38-2.23,1.29-3.66-.08-1.34-.31-3.61-1.45-4.52-.65-.52-1.46-.65-2.2-.44-.94.09-1.95.61-2.53,1.27-.33.37-.57.88-.74,1.43Z"/>
      <path class="cls-6" d="M21.31,702c-.1.47-.11.95-.03,1.4.04.22.1.44.16.66,0,.83.27,1.67.66,2.42.02.04.03.08.05.12,0,.02.02.03.03.05.03.06.06.13.1.19,0,.01.01.02.02.03,0,0,.01.01.01.02.06.09.12.19.2.28.01.02.03.03.04.05,1.54,1.79,4.86.37,6-1.42.93-1.11.59-2.56.05-3.88-.51-1.24-1.46-3.31-2.83-3.81-.78-.28-1.59-.14-2.22.29-.87.38-1.65,1.21-1.99,2.01-.2.46-.26,1.02-.24,1.59Z"/>
      <path class="cls-8" d="M1.41,750s6.49-60.66,64.29-53.16c57.81,7.5,86.04-9.97,106.78-6.13,20.74,3.84,22.59,11.1,20.8,29.36L1.41,750Z"/>
      <path class="cls-3" d="M732.49,972.25s41.48,3.46,89.3-76.05c0,0-67.98-33.99-89.3,76.05Z"/>
      <path class="cls-3" d="M365.15,807.3s-13.77,62.69,50.47,113.68c0,0,24.38-50.19-50.47-113.68Z"/>
      <path class="cls-11" d="M924.89,1297.83c-25.86,28.86-71.55,36.08-71.55,9.62,0-9.79,14.35-17.75,10.51-33.88-6.53-27.44-32.76-63.52-32.76-63.52-52.81-61.71-68.49-116.44-72.18-154.53-.09-.92-.17-1.83-.25-2.73-.25-3.02-.44-5.94-.55-8.74-.06-1.41-.11-2.79-.14-4.15-.07-3.36-.06-6.53.01-9.51.2-8.21.84-14.92,1.38-19.91,1.16-10.72-2.07-21.44-8.95-29.75l-137.58-166.32-254.2,101.23c-12.89,5.13-27.48,3.54-38.96-4.24-6.63-4.49-14.74-10-23.82-16.18h0c-6.25-4.25-12.95-8.81-19.93-13.59-1.27-.86-2.55-1.74-3.84-2.62-3.18-2.18-6.41-4.38-9.68-6.63-1.18-.81-2.36-1.61-3.55-2.43-51.63-35.35-110.93-76.46-119.2-84.41-4.03-3.87-11.93-7.66-21.94-10.97-27.29-9.04-70.36-14.59-94.11-8.87-32.47,7.82-28.26-28.86,3.61-52.31,31.87-23.45,54.11,4.21,116.64-7.22,62.53-11.42,48.7,19.24,47.5,36.08-.19,2.64.08,4.94.67,6.94,3.17,10.76,15.56,12.9,15.56,12.9,39.32,5,67.38,12.82,87.4,21.35.99.42,1.96.84,2.9,1.27,3.02,1.34,5.84,2.71,8.48,4.08,1.04.54,2.06,1.08,3.05,1.62,5.17,2.83,9.59,5.69,13.35,8.48,8.39,6.22,13.59,12.16,16.79,17,3.47,5.24,10.84,6.06,15.31,1.62l169.35-168.19c176.78,57.72,202.51,31.4,202.51,31.4l86.42,203.38,25.08,41.67c5.16,8.57,7.86,18.39,7.81,28.39l-.12,24.89c-.03,5.51.71,10.99,2.18,16.3l3.47,12.5.92,3.3,3,10.81.82,2.94,58.22,209.48s1.59-.03,4.41-.05c21.3-.18,98.28-17.84,100.93-.85,3.01,19.24-69.15,35.48-95,64.34Z"/>
      <path class="cls-8" d="M425.11,916.45c-5.89,2.79-9.5,4.53-9.5,4.53,2.73-.89,5.94-2.45,9.5-4.53Z"/>
      <path class="cls-8" d="M787.56,807.3c-2.46-4.26-5.07-8.44-7.83-12.5-21.36-31.42-32.67-84.15-37.26-110.59-1.72-9.93-2.49-16.15-2.49-16.15l-218.98-29.86-7.73,22.65-148.12,146.45s3.85,3.04,9.47,8.52c.6.59,1.22,1.2,1.86,1.84,1.54,1.54,3.18,3.25,4.89,5.1.62.66,1.24,1.35,1.87,2.06,18.11,20.25,42.02,55.98,32.38,96.16l11.4-5.66c-.64.39-1.28.78-1.9,1.14,20.01-9.48,66.47-31.15,88.44-38.68,60.49-20.74,98.3-53.4,98.3-53.4l2.17-1.67,118.47,149.56s22.47-71.44,89.3-76.05c0,0-10.41-47.78-34.23-88.9Z"/>
      <path class="cls-5" d="M295.86,895.22h0c-6.25-4.25-12.95-8.81-19.93-13.59-1.27-.86-2.55-1.74-3.84-2.62-3.18-2.18-6.41-4.38-9.68-6.63-1.18-.81-2.36-1.61-3.55-2.43-51.63-35.35-110.93-76.46-119.2-84.41-4.03-3.87-11.93-7.66-21.94-10.97-27.29-9.04-70.36-14.59-94.11-8.87-32.47,7.82-28.26-28.86,3.61-52.31,31.87-23.45,54.11,4.21,116.64-7.22,62.53-11.42,48.7,19.24,47.5,36.08-.19,2.64.08,4.94.67,6.94,3.17,10.76,15.56,12.9,15.56,12.9,39.32,5,67.38,12.82,87.4,21.35.99.42,1.96.84,2.9,1.27,3.02,1.34,5.84,2.71,8.48,4.08,1.04.54,2.06,1.08,3.05,1.62,5.17,2.83,9.59,5.69,13.35,8.48,0,0-46.98,23.92-26.9,96.33Z"/>
      <path class="cls-6" d="M192.01,749.2s-26.15,9.02-51.79,0c-25.64-9.02-22.51,25.38-22.51,25.38h-.02c-27.29-9.04-70.36-14.59-94.11-8.87-32.47,7.82-28.26-28.86,3.61-52.31,31.87-23.45,54.11,4.21,116.64-7.22,40-7.31,48.75,2.6,49.55,15.1.36,5.63-.89,11.79-1.62,17.14-.19,1.34-.34,2.62-.43,3.84-.19,2.64.08,4.94.67,6.94Z"/>
      <path class="cls-9" d="M826.28,967.44c-3.74-3.14-8.29-5.25-12.05-8.45-1.85-1.57-3.58-3.29-5.04-5.24-1.63-2.17-2.4-4.65-3.81-6.9-.62-1-2.45-.38-2.06.78.25,4.91,4.78,9.77,8.21,12.87,3.82,3.45,8.72,7.17,13.6,8.92,1.1.39,2.05-1.23,1.16-1.99Z"/>
      <path class="cls-9" d="M350.78,838.41c-.6-3.79-1.89-7.6-2.9-11.31-.98-3.59-2.14-7.09-3.65-10.49-.7-1.56-2.95-.4-2.63,1.11,2.13,10.23.88,20.43,1.82,30.73.13,1.47,2.15,1.47,2.29,0,.51-5.37.7-10.94.47-16.47.63,2.52,1.32,5.07,2.52,7.32.65,1.23,2.28.32,2.09-.88Z"/>
      <path class="cls-9" d="M342,889.83c-3.97-.1-8.1.98-12.01,1.6-4.51.73-9.02,1.31-13.6,1.39-1.54.03-1.55,2.41,0,2.4,4.23-.04,8.42-.49,12.6-1.09,4.37-.62,9.04-.97,13.3-2.1,1.24-.33.96-2.17-.3-2.2Z"/>
      <path class="cls-5" d="M505.13,694.18c-1.27,1.8-2.53,3.62-3.8,5.45-4.26,6.13-9.7,11.35-14.81,16.75-10.03,10.59-21.33,19.81-31.91,29.82-9.17,8.67-15.23,20.12-24.85,28.37-4.91,4.21-10.03,8.42-15.17,12.36-2.48,1.9-5.04,3.61-7.93,4.78-3.29,1.33-6.04,2.26-8.47,4.99-4.36,4.89-9.73,8.66-14.07,13.56-1.97,2.22-3.66,4.68-6.07,6.47-.48.36-1.01.66-1.56.93-.64-.64-1.26-1.25-1.86-1.84.21-.11.43-.24.64-.36,3.17-1.92,5.09-5.27,7.5-8,2.49-2.81,5.33-5.25,8.1-7.78,2.58-2.36,4.44-5.43,7.16-7.63,2.52-2.04,5.65-2.72,8.52-4.09,2.98-1.42,5.63-3.53,8.16-5.62,5.07-4.22,10.61-8.22,15.3-12.84,4.52-4.47,8.16-9.67,12.04-14.69,3.96-5.14,8.22-9.78,13.02-14.16,10.98-10.02,21.97-19.85,32.26-30.59,4.99-5.2,9.49-10.45,13.59-16.39.33-.49.67-.98,1.01-1.46.95.69,2.02,1.35,3.22,1.97Z"/>
      <path class="cls-5" d="M518.06,698.15c-.44.89-.89,1.78-1.33,2.67-2.75,5.57-6.15,10.57-10.41,15.11-4.85,5.19-10.49,9.48-15.95,13.98-5.89,4.86-11.7,9.82-17.3,15-11.4,10.56-21.28,22.5-31.96,33.74-5.06,5.32-10.15,10.32-16.3,14.39-6.48,4.28-12.03,9.38-17.91,14.42-5.49,4.72-11.51,8.42-17.5,12.43-2.24,1.5-4.27,3.1-6.18,4.91-.63-.7-1.26-1.39-1.87-2.06,1-1.03,2.05-2.02,3.19-2.91,3.59-2.82,7.57-5.1,11.36-7.65,3.7-2.49,7.12-5.32,10.46-8.27,5.62-4.96,11.08-9.67,17.31-13.84,6.78-4.53,12.28-10.47,17.79-16.44,10.92-11.82,21.37-23.92,33.39-34.66,5.95-5.32,12.08-10.41,18.27-15.43,5.54-4.49,10.92-9.24,15.22-14.96,2.63-3.49,4.51-7.28,6.45-11.12,1.02.23,2.11.46,3.28.67Z"/>
      <path class="cls-3" d="M787.56,807.3c-20.86-16.11-32.74-35.67-38.66-47.91-3.25-6.73-10.32-10.73-17.76-10.07-29.82,2.63-44.5-6.51-44.5-6.51l-4.85-73.6,60.68,15c4.59,26.44,15.9,79.18,37.26,110.59,2.76,4.06,5.37,8.24,7.83,12.5Z"/>
      <path class="cls-6" d="M756.88,653.25c-.22.92-.47,1.84-.75,2.75l-4.23,13.72-.47,1.52c-1.26,4.07-1.08,8.43.51,12.38l1.6,3.98c1.68,4.17,2.2,8.73,1.5,13.17l-3.8,24.09c-23.88,10.71-87.31,33.07-130.09,5.59-42.78-27.48-94.34-28.99-110.57-34.06-16.23-5.08-16.43-16.65-16.43-16.65l6.29-6.6c2.41-2.53,4.12-5.65,4.95-9.04l10.91-44.15c4.59-18.59,2.7-38.17-5.33-55.55-15.39-33.32-26.3-61.92-26.3-61.93-12.03-15.72-22.1-24.84-22.1-24.84,59.53-40.28,74.27-131.01,74.27-131.01,75.16,37.88,114.31,13.33,114.31,13.33,48.79,22.62,75.3,65.83,75.3,65.83l7.69,55.34c9.79,35.75,13.88,73.77,15.04,108.21l.37,2.66,7.8,45.17c.93,5.34.77,10.81-.46,16.07Z"/>
      <path class="cls-6" d="M830.57,173.65c-.5,9.59-6.04,108.17-25.12,128.56-18.96,20.26-51.33,84.61-76.72,133.93-1.46,2.84-2.9,5.63-4.32,8.37-21,40.61-109.52,55.04-147.99,41.1l37.49-116.94,88.54-87.06,23.32-27.5c4.05-4.78,7.25-10.2,9.47-16.06l32.42-85.63c.68-1.79,1.6-3.48,2.71-5.02.44-.61.92-1.2,1.42-1.76,1.08-1.19,2.29-2.27,3.62-3.2l10.19-7.13.92-.65s1.16.63,3.13,1.63c6.68,3.38,22.7,10.91,34.55,11.93h0c1.71.15,3.32.17,4.82.01l.15,2.31.95,14.9.17,2.76.25,3.95c.03.5.03.99.01,1.48Z"/>
      <path class="cls-7" d="M727.3,437.02c-.75,0-1.43-.49-1.66-1.24-18.43-62.51-81.46-90.48-82.09-90.76-.88-.38-1.28-1.4-.9-2.27.38-.88,1.4-1.28,2.27-.9.66.29,16.48,7.23,34.86,22.17,16.98,13.81,39.3,37.29,49.18,70.78.27.92-.25,1.88-1.17,2.15-.16.05-.33.07-.49.07Z"/>
      <path class="cls-11" d="M646.78,362.25c-12.42,5.66-50.91,17.55-109.94-15.62,0,0,28.26-30.06,16.23-67.34-1.84-5.7-1.01-8.69,1.72-9.69,15.11-5.53,88.48,50.58,88.48,50.58,0,0-3.9,12.15,3.37,30.39.69,1.75,1.49,3.55,2.41,5.41,1.16,2.35.13,5.19-2.26,6.28Z"/>
      <path class="cls-9" d="M646.63,350.56c-7.75,5.16-17,7.35-28.02,4.84-55.98-12.77-59.65-62.44-59.65-62.44l-4.18-23.37c15.11-5.53,88.48,50.58,88.48,50.58,0,0-3.9,12.15,3.37,30.39Z"/>
      <path class="cls-11" d="M660.4,216.61v66.83c0,26-15.17,60-43.53,60s-59.16-34-59.16-60v-66.83c0-26,22.99-47.06,51.34-47.06,14.17,0,27.01,5.27,36.3,13.79,9.29,8.52,15.04,20.28,15.04,33.28Z"/>
      <path class="cls-3" d="M633.97,175.46c-97.67-41.89-95.52,68.25-95.52,68.25,0,0,21.23,44.59,22.34,16.2.78-20.04,12.19-45.87,24.26-53.06.32.66.74,1.31,1.3,1.94.99,1.12,2.55,2.62,1.42,4.14-.59.79-1.83,1.06-2.64,1.57-1.55.97-2.54,2.49-1.48,4.21.28.46,1.1.43,1.23-.16.76-3.63,6.01-2.85,6.19-7.17.1-2.39-1.89-4.06-2.51-6.07,3.88-1.08,7.72-.01,11.21,4.02,15.43,17.83,31.47,6.22,42.13,1.43,10.66-4.8,18.51,28.86,18.51,28.86,5.71-50.5-26.42-64.15-26.42-64.15Z"/>
      <path class="cls-11" d="M205.4,579.11s12.27,19.36,16.68,35.66l-21.68,5.76c-1.18.31-2.32.79-3.37,1.4l-8.95,5.25c-5.78,3.39-12.64,4.45-19.17,2.96l-43.06-9.81h-23.59s-12.13,9.43-6.06,18.87c3.1,4.83,1.44,9.65-.92,13.21-2.05,3.09-6.66,2.88-8.43-.37l-6.57-12.04c-1.47-2.69-1.91-5.82-1.24-8.81l3.06-13.75c.83-3.74,3.2-6.95,6.53-8.86l13.65-7.8,10.66-7.18c2.84-1.91,6.17-2.93,9.59-2.93h50.74c4.72,0,9.38-1.09,13.6-3.19l19.27-9.57-.72,1.19Z"/>
      <rect class="cls-12" x="440.71" y="510.16" width=".58" height="17.85" transform="translate(-210.26 319.59) rotate(-32.62)"/>
      <path class="cls-11" d="M556.16,249.51s-10.35-15.58-19.67-3.72c-9.32,11.86,6.67,48.44,24.07,47.13,0,0,7-26.13-4.4-43.42Z"/>
      <path class="cls-9" d="M556.51,278.15c-.33,0-.66-.11-.93-.34l-4.31-3.66c-2.17-1.85-3.01-4.9-2.07-7.59l.79-2.28c.67-1.94-.2-4.09-2.04-5l-3.83-1.9c-.71-.35-1-1.22-.65-1.93.35-.71,1.22-1,1.93-.65l3.83,1.9c3.14,1.55,4.64,5.22,3.49,8.53l-.79,2.28c-.55,1.58-.06,3.37,1.21,4.45l4.31,3.66c.61.51.68,1.42.17,2.03-.28.33-.69.51-1.1.51Z"/>
      <path class="cls-6" d="M495.06,481.95c-3.9,7.47-7.47,14.39-10.39,20.53-13.44,28.19-53.38,47.27-83.75,63.35-.01,0-.02.01-.03.02-3.2,1.69-6.29,3.35-9.23,4.98-10.01,5.56-18.32,10.81-23.24,16.05-17.74,18.87-103.42,30.41-123.31,32.86-2.65.32-5.32.49-7.99.49h-20.85c.58-14.98-16.26-41.54-16.26-41.54l.84-1.38,5.96-9.78c1.32-2.17,3-4.1,4.93-5.71.73-.6,1.49-1.16,2.29-1.68.94-.6,1.92-1.13,2.94-1.6l64.27-29.08c9.3-4.21,18.02-9.62,25.92-16.09l34.12-27.95,65.61-70.62c16.35-17.61,36.45-31.32,58.8-40.13l71.14-28.04c13.93,31.93-19.42,92.56-41.78,135.33Z"/>
      <path class="cls-11" d="M788.46,136.44s17.48,20.3,38.52,11.93c0,0,1.56-31.75,14.14-40.55,0,0,41.23-21.2,38.12-33.75,0,0-1.59-4.96-17.92,1.84-.61.26-1.23-.36-.98-.97l6.32-15.09s14.16,2.74,11.44-6.6l-2.83-4.69c-1.46-2.41-4.07-3.89-6.89-3.89h-29.4c-2.81,0-5.56.85-7.88,2.43l-11.63,7.93c-2.3,1.57-4.03,3.83-4.95,6.46l-26.06,74.94Z"/>
      <path class="cls-3" d="M660.4,239.61s16.78-30.16,3.53-49.17c-13.25-19.01-17.86-16.71-23.62-30.54-5.76-13.83-24.37-24.18-39.55-9.5-15.18,14.68-33.92-5.19-53.2,12.38-25.93,23.62-1.94,31.57-6.73,57.27,0,0,116.05-87.97,119.58,19.56Z"/>
      <path class="cls-3" d="M583.23,250.75c7.32,0,20.46.73,32.29,5.24,1.86.71,3.56-1.32,2.56-3.04-3.48-5.93-10.42-14.57-20.98-13.55-8.03.77-12.94,3.7-15.84,6.41-1.89,1.77-.61,4.94,1.98,4.94Z"/>
      <path class="cls-3" d="M660.4,239.41v12.2c-5.83.73-12.3,2.06-18.42,4.4-1.86.71-3.56-1.32-2.56-3.04,3.48-5.93,10.43-14.56,20.98-13.56Z"/>
      <path class="cls-3" d="M604.19,272.68c-7.51,0-13.61-4.96-13.7-5.04-.49-.41-.56-1.13-.15-1.62.4-.49,1.13-.56,1.62-.15.48.4,11.88,9.62,21.94.62.47-.42,1.2-.38,1.62.09.42.47.38,1.2-.09,1.62-3.74,3.34-7.65,4.48-11.24,4.48Z"/>
      <path class="cls-3" d="M648.04,270.91c-5.35,0-9.85-3.17-9.92-3.22-.52-.37-.63-1.09-.26-1.6.37-.52,1.09-.64,1.6-.27.39.28,9.69,6.77,16.4-.96.42-.48,1.14-.53,1.62-.12.48.42.53,1.14.12,1.62-2.99,3.45-6.42,4.54-9.55,4.54Z"/>
      <path class="cls-9" d="M633.18,261.06c-2.22,2.96-2.16,7.02-1.66,10.52.51,3.55,1.62,7,3.22,10.21,1.6,3.2,3.73,6.16,6.27,8.68,1.17,1.16,3.37,2.71,1.84,4.47-1.4,1.61-3.88,1.19-5.76,1.04-1.12-.09-1.4,1.79-.27,1.98,3.19.55,8.43.28,8.71-4.08.12-1.87-1.18-3.18-2.43-4.38-1.44-1.38-2.77-2.86-3.93-4.49-2.33-3.27-4.04-6.95-5.01-10.85-.99-4-1.48-8.44.66-12.15.63-1.09-.93-1.92-1.65-.97h0Z"/>
      <path class="cls-9" d="M621.92,283.63c-1.6,1.34-2.4,3.69-2.52,5.71-.06,1.06.09,2.15.42,3.15.33,1.02.84,2.17,1.63,2.93.84.81,2.22-.22,1.63-1.25-.45-.78-.95-1.45-1.22-2.32-.26-.82-.37-1.65-.33-2.5.08-1.77.93-3.13,1.92-4.53.28-.39.11-.98-.25-1.25-.41-.3-.89-.24-1.27.08h0Z"/>
      <path class="cls-9" d="M627.96,292.57c-.12.09-.15.11-.09.07.07-.04.03-.02-.12.05.03,0,.09-.02.12-.03.11-.03-.25.01-.08.02.01,0,.16,0,.16,0,0-.01-.28-.05-.07,0,.05.01.09.02.14.04.05.02.11.04.16.06-.07-.02-.21-.09-.06-.02.19.09.37.19.55.29.09.06.18.12.27.18.04.03.08.06.12.09-.24-.14-.08-.06-.02-.01.16.13.31.28.45.43.07.08.14.16.21.25.11.14-.12-.14-.03-.05.08.09.15.18.22.28-.18-.28.02.04.06.1.06.09.11.18.17.28.05.09.09.17.13.26.03.05.12.25,0-.02.05.11.09.23.16.34.25.42.77.59,1.22.4.48-.2.64-.66.56-1.15-.05-.31-.22-.62-.36-.9-.11-.21-.23-.41-.36-.61-.35-.53-.84-.97-1.34-1.35-.44-.33-.95-.6-1.48-.77-.68-.22-1.54-.17-2.04.41-.33.38-.4,1,0,1.37.41.38.96.35,1.37,0h0Z"/>
      <path class="cls-9" d="M607.69,306.22c4.56,4.15,10.21,6.74,16.31,7.63,5.27.77,12.46.95,17.08-2.11,1.09-.72.79-2.8-.72-2.68-5.16.41-9.83,2.1-15.15,1.61-5.96-.56-11.45-2.68-16.61-5.63-.72-.41-1.55.59-.91,1.18h0Z"/>
      <path class="cls-3" d="M636.74,160.35c8.51,12.02,21.29,19.3,33.24,27.25,16.17,10.75-1.79,34.09-11.45,43.25-1.13,1.07.54,2.69,1.7,1.7,6.25-5.38,11.28-12.24,14.71-19.72,2.78-6.05,5.97-14.07,2.85-20.58-3.06-6.39-11.1-9.22-16.67-12.85-8.75-5.71-15.68-12.86-23.28-19.89-.56-.52-1.59.17-1.11.85h0Z"/>
      <path class="cls-7" d="M216.27,620.23c.58-14.98-16.26-41.54-16.26-41.54l.84-1.38c1.68,2.77,3.96,5.1,5.75,7.85,2.52,3.87,4.53,8.08,6.22,12.38,2.83,7.23,5,14.92,5.69,22.7h-2.24Z"/>
      <path class="cls-7" d="M233.72,620.23h-3.14c-.03-.71-.07-1.43-.12-2.15-.47-7.59-1.36-15.14-2.97-22.57-2.72-12.57-7.82-23.93-15.76-33.69.73-.6,1.49-1.16,2.29-1.68,8.18,9.58,13.38,21.48,16.25,33.72,1.76,7.52,2.69,15.23,3.22,22.92.08,1.15.16,2.29.22,3.45Z"/>
      <path class="cls-7" d="M829.19,150.55c-2.19.75-4.53,1-6.82,1.35-6.29.95-12.29.59-18.44-1.15-5.61-1.59-10.27-5.29-13.86-9.78-1.4-1.75-3.14-3.62-4.45-5.65l.92-.65s1.16.63,3.13,1.63c1.6,1.96,3.46,3.74,5.07,5.29,4.19,4,9.02,5.95,14.65,6.97,4.91.9,9.94.65,14.82-.33h0c1.71.15,3.32.17,4.82.01l.15,2.31Z"/>
      <path class="cls-7" d="M830.31,168.22c-7.9.73-15.98,0-23.72-1.58-8.92-1.83-17.77-4.95-25.55-9.75-3.5-2.15-6.88-4.71-9.49-7.92-.41-.51-.8-1.03-1.16-1.56.44-.61.92-1.2,1.42-1.76.59.84,1.23,1.64,1.91,2.41,2.83,3.2,6.48,5.61,10.17,7.67,7.42,4.14,15.56,6.87,23.89,8.47,7.25,1.39,14.92,2.03,22.35,1.26l.17,2.76Z"/>
      <path class="cls-7" d="M782.49,274.23c-1.77-2.77-4.61-5.13-7.06-7.29-2.55-2.25-5.28-4.29-8.2-6.05-3.01-1.81-6.04-3.59-9.05-5.41-2.77-1.67-5.58-3.07-8.82-3.42-1.29-.14-1.63,1.75-.63,2.34,6.36,3.75,10.43,9.92,15.44,15.17,1.06,1.11,2.73-.57,1.68-1.68-3.05-3.24-5.77-6.77-8.84-9.93.56.37,1.12.75,1.67,1.11,2.57,1.7,5.29,3.12,7.89,4.76,2.65,1.68,5.11,3.62,7.41,5.74,2.26,2.08,4.26,4.65,6.78,6.39,1.05.73,2.4-.7,1.73-1.73Z"/>
      <path class="cls-7" d="M484.67,504.21c-.33,0-.67-.09-.96-.29-.79-.53-1-1.61-.47-2.4,28.5-42.48,33.09-78.51,31.92-101.26-1.26-24.64-9.36-39.45-9.44-39.6-.46-.83-.17-1.89.67-2.35.83-.46,1.88-.17,2.35.67.35.62,8.52,15.51,9.87,40.89,1.23,23.32-3.4,60.22-32.49,103.58-.33.5-.88.77-1.44.77Z"/>
      <path class="cls-7" d="M805.45,302.22c-18.96,20.26-51.33,84.61-76.72,133.93-.89-.48-1.37-.74-1.37-.74l-15.11-31.92s12.38,2.94,35.89-31.31c23.52-34.25,45.01-64.76,57.31-69.95Z"/>
      <path class="cls-7" d="M512.39,441.78s-13.24,58.04-4.6,78.78c8.64,20.74,22.56,56.99,10.13,91l-32.7-110.85s27.74-44.38,27.18-58.93Z"/>
      <path class="cls-7" d="M606.8,384.95c-17.9,0-32.33-3.72-43.08-8.05-22.48-9.06-33.8-22.33-34.27-22.89-.61-.73-.52-1.82.21-2.43.73-.61,1.82-.52,2.43.21.11.13,11.34,13.26,33.09,21.98,20.06,8.04,53.47,13.87,98.68-4.04.89-.35,1.89.08,2.24.97.35.89-.08,1.89-.97,2.24-22.28,8.82-41.79,12.01-58.34,12.01Z"/>
      <path class="cls-7" d="M756.88,653.25c-.22.92-.47,1.84-.75,2.75l-4.23,13.72c-.96.25-1.9.48-2.8.74-3.9,1.09-7.86,1.11-11.83.34-4.66-.9-8.3-3.02-12.21-5.61-1.97-1.31-4.05-2.47-5.93-3.91-.03-.02-.06-.05-.1-.07-1.52-.59-3.02-1.21-4.5-1.84-5.08-2.16-9.99-3.72-15.48-4.53-5.61-.84-11.36-1.37-17.01-1.94-4.85-.49-9.8.82-14.58-.07-9.85-1.83-14.09-11.13-22.06-15.92-2.2-1.33-4.65-2.33-7.16-2.89-1.88-.41-3.83-.33-5.72-.73-4.01-.85-5.55-5.08-8.53-7.43-.89-.7.32-2.25,1.2-1.57,1.8,1.39,3.01,3.2,4.54,4.85,2.18,2.33,4.47,2.15,7.41,2.5,4.36.53,8.61,2.47,12.08,5.12,3.42,2.6,6.03,6.03,9.28,8.83,4.04,3.49,8.89,5.48,14.27,4.91,2.41-.25,4.79-.71,7.22-.62,2.64.1,5.27.48,7.89.78,4.97.56,9.96.71,14.89,1.58,4.75.83,9.67,2,14.2,3.68,4.49,1.66,8.95,3.52,13.71,4.3,5.12.84,9.78.37,14.41-1.99,3.6-1.84,6.95-3.98,10.88-5.06.36-.1.66-.05.9.09Z"/>
      <path class="cls-7" d="M495.06,481.95c-3.9,7.47-7.47,14.39-10.39,20.53-13.44,28.19-53.38,47.27-83.75,63.35,49.16-27.92,82.66-68.63,94.15-83.88Z"/>
      <path class="cls-3" d="M684.23,911.33c-35.34-52.59-39.57-86.08-39.91-96.93.26-.07.52-.14.78-.21,5.73-1.44,11.57-2.08,17.44-2.63,2.71-.26,5.42-.45,8.15-.39,2.78.06,5.38.75,8.12,1.08,1.21.15,1.57-1.68.6-2.21-4.88-2.72-12.04-1.71-17.33-1.17-5.99.61-11.91,1.32-17.75,2.79.02-.73.06-1.11.06-1.11,12.64-5.09,25.82-9.5,39-12.69,1.51-.36.83-2.49-.63-2.27-14.05,2.12-27.93,7.48-41.08,12.78-6.22,2.51-12.33,5.31-18.23,8.5-1.71.92-3.29,2.04-4.95,3.04-.87.53-2.09,1.41-3.32,1.97-2.98-8.42-9.9-14.89-16.79-20.25-3.74-2.91-7.67-5.59-11.69-8.1-3.47-2.17-7.06-4.59-10.86-6.14-1.07-.43-2.05,1.26-1.15,1.97,2.85,2.24,6.16,3.96,9.2,5.91,3.96,2.54,7.86,5.21,11.55,8.14,6.51,5.16,13.39,11.49,15.96,19.65-.16.47-.07,1.04.46,1.31.54.28,1.12.41,1.7.45h-.02s70.69,86.52,70.69,86.52ZM644.37,810.54l-6.24,2.89c-1.04.33-2.09.68-3.12,1.03,1.67-.73,3.35-1.44,5.01-2.14,1.44-.6,2.9-1.2,4.35-1.79Z"/>
      <path class="cls-5" d="M924.89,1297.83c-25.86,28.86-71.55,36.08-71.55,9.62,0-9.79,14.35-17.75,10.51-33.88-6.53-27.44-32.76-63.52-32.76-63.52-52.81-61.71-68.49-116.44-72.18-154.53-.09-.92-.17-1.83-.25-2.73-.25-3.02-.44-5.94-.55-8.74-.06-1.41-.11-2.79-.14-4.15-.07-3.36-.06-6.53.01-9.51l.88-8.34s48.75-46.21,89.25-26.69l3.47,12.5.92,3.3,3,10.81.82,2.94,58.22,209.48s1.59-.03,4.41-.05c21.3-.18,98.28-17.84,100.93-.85,3.01,19.24-69.15,35.48-95,64.34Z"/>
      <path class="cls-6" d="M955.27,1300.58s-21.43.44-40.31,17.75c-18.87,17.3-47.35,23.39-58.4-.18-2.96-6.31-4.06-13.19-4.08-19.86-.03-9.52,2.11-18.64,4.18-25.19,1.9-6.03,3.73-9.89,3.73-9.89,0,0,10.42-29.59,60.29-36.41,0,0,36.72,7.8,57.12,1.02,20.41-6.78,53.42-23.74,64.23-7.44.24.36.47.75.68,1.15,9.25,17.62-10.61,71.19-87.45,79.06Z"/>
      <path class="cls-8" d="M1042.72,1221.52c9.26,17.62-10.61,71.2-87.45,79.06,0,0-21.43.44-40.3,17.74-18.88,17.3-47.35,23.38-58.4-.19l2.29-7.18s15.57-22.55,44.8-21.68c29.24.86,52.93-25.94,52.93-25.94,0,0,68.31-56.78,86.11-41.82t.01,0Z"/>
      <path class="cls-3" d="M600.98,272.01s7.23,9.04,10.6-2.27c0,0-1.53,2.61-10.6,2.27Z"/>
      <path class="cls-3" d="M644.19,269.7s7.23,9.04,10.6-2.27c0,0-1.53,2.61-10.6,2.27Z"/>
      <path class="cls-8" d="M852.5,1011.16c-18.33.51-36.78,2.05-54.16,8.13-8.69,3.04-17.05,7.07-24.81,12.02-3.9,2.49-7.64,5.23-11.09,8.31-1.55,1.38-2.95,2.89-4.32,4.42-.06-1.41-.11-2.79-.14-4.15,1.26-1.21,2.56-2.34,3.8-3.41,3.91-3.41,8.15-6.46,12.57-9.18,17.31-10.68,36.92-16.09,57.04-18.13,6.71-.68,13.46-1.09,20.22-1.33l.92,3.3Z"/>
      <path class="cls-8" d="M856.32,1024.91c-9.64.07-19.34.63-28.83,2.3-10.4,1.82-20.59,4.74-30.55,8.2-9.33,3.23-18.38,7.09-26.81,12.27-3.46,2.13-6.67,4.56-9.94,6.97-.36.27-.8.56-1.28.88-.09-.92-.17-1.83-.25-2.73,3.18-2.45,6.37-4.89,9.75-7.05,8.66-5.53,18.14-9.55,27.8-12.95,10.64-3.74,21.52-6.87,32.67-8.71,8.77-1.44,17.7-2.04,26.62-2.13l.82,2.94Z"/>
      <path class="cls-8" d="M309.4,790.41c-2.44,1.5-4.8,3.15-6.94,5.03-8.54,7.49-14.71,17.91-19.21,28.24-4.71,10.79-6.75,22.57-7.4,34.27-.44,7.89-.31,15.79.08,23.68-1.27-.86-2.55-1.74-3.84-2.62-.41-10.7-.3-21.43,1.2-32.06,1.71-12.1,5.57-23.45,11.6-34.07,5.18-9.12,11.75-17.96,20.73-23.63.25-.16.5-.31.74-.46,1.04.54,2.06,1.08,3.05,1.62Z"/>
      <path class="cls-8" d="M297.87,784.71c-2.22,1.89-4.52,3.68-6.86,5.46-4.23,3.21-8.47,6.5-11.87,10.62-3.42,4.18-5.97,9.22-8.14,14.14-4.76,10.83-6.48,22.37-7.51,34.06-.69,7.78-1,15.58-1.11,23.39-1.18-.81-2.36-1.61-3.55-2.43.33-22.15,1.92-45.16,13.3-64.55,2.75-4.7,6.06-8.79,10.21-12.34,4.02-3.45,8.46-6.36,12.63-9.62.99.42,1.96.84,2.9,1.27Z"/>
      <path class="cls-4" d="M492.65,767.05c-1.12-6.31-9.48-5.77-14.01-4.2-7.02,2.44-12.21,8.09-14.59,15.06-1.82,5.35-2.03,13.36,5.82,12.33.11-.01.21-.04.31-.08,1.45.12,2.99-.17,4.14-.65,1.26-.53,2.6-1.2,3.9-1.99.9-.49,1.72-.98,2.38-1.39,3.49-2.2,6.56-5.18,8.81-8.65,1.88-2.89,3.88-6.85,3.25-10.43Z"/>
      <path class="cls-3" d="M798.55,883.15c-16.41.17-32.23,9.24-44.68,19.23-9.51,7.63-17.8,16.86-24.47,27.08-1.21,1.86-6.5,8.67-3.38,10.69.33.22.83,0,.92-.37,1.11-4.55,4.84-8.88,7.56-12.56,3.7-5,7.65-9.86,12.09-14.22,7.12-6.98,15.05-13.16,23.79-17.98,9-4.96,18.4-7.82,28.47-9.61,1.28-.23.96-2.26-.3-2.25Z"/>
      <path class="cls-3" d="M440.89,894.75c-3.68-14.26-5.14-29.27-11.09-42.86-2.89-6.61-6.23-13.42-10.33-19.37-1.6-2.33-3.56-4.39-5.39-6.53-2.02-2.36-3.2-5.01-4.97-7.46-.41-.57-1.53-.64-1.68.22-.83,4.76,5.47,9.86,8.12,13.16,4.59,5.68,7.83,12.93,10.81,19.55,3.26,7.21,5.28,14.64,6.84,22.38,1.49,7.4,2.67,14.79,5.64,21.77.51,1.19,2.36.33,2.05-.86Z"/>
      <path class="cls-8" d="M978.77,1214c-1.95,4.17-3.4,8.01-7.38,10.69-3.4,2.29-7.62,3.11-11.64,3.4-3.97.29-7.94.09-11.91-.12.43-.2.86-.41,1.29-.61,4.83-2.15,9.77-4.21,14.01-7.44,6.33-4.82,10.8-13.07,10.37-21.17-.35-6.72-6.27-14.33-13.73-12.33-6.84,1.83-10.54,10.26-13.17,16.09-1.98,4.39-4.02,8.59-6.44,12.77-1.11,1.93-2.29,3.99-3.25,6.14-.28-1.52-.6-3.03-.96-4.53-1.38-5.69-3.1-12.46-7.22-16.87-3.18-3.4-8.9-4.12-11.8.15-3.69,5.43.04,14.04,2.39,19.25,4.12,9.17,12.25,17.7,21.37,22.04.41.19.82.2,1.18.09,2.99,3.16,6.34,6.41,9.86,8.79,1.17.79,2.8-.8,1.98-1.98-2.25-3.2-5.86-5.61-8.65-8.34-2.03-1.99-4.6-4.37-6.2-7.07,0-.02,0-.03,0-.05,1.09-.69,2.2-1.34,3.31-1.98,7.11.64,14.24,1.52,21.33.51,8.86-1.26,17.31-7.03,17.88-16.73.08-1.34-2.02-1.96-2.61-.71ZM929.16,1227.69c-2.82-3.03-4.89-6.42-6.57-10.18-1.19-2.66-7.07-19.63,1.55-16.41,5.1,1.91,7,11.5,8.16,15.99.93,3.6,1.64,7.24,2.36,10.88-.01.03-.03.07-.04.11-.78.5-.8,1.71-.02,2.18.06.39.14.78.25,1.17-.23.24-.45.48-.66.73-1.77-1.38-3.49-2.81-5.02-4.47ZM939.46,1227.7c-.2,0-.4,0-.6,0,1.27-5.12,3.99-9.42,6.69-14.15,1.81-3.17,3.17-6.53,4.71-9.83,2.69-5.77,9.17-19.23,16.87-11.21,6.9,7.19-.2,20.06-6.73,24.78-6.07,4.38-14.45,6.32-20.94,10.4Z"/>
      <path class="cls-6" d="M892.24,1331.07c.04-.48,0-.96-.13-1.39-.06-.22-.15-.43-.24-.63-.1-.83-.47-1.63-.94-2.32-.02-.04-.04-.08-.07-.12,0-.02-.02-.03-.03-.05-.04-.06-.08-.12-.12-.18,0-.01-.01-.02-.02-.03,0,0-.01-.01-.02-.02-.07-.09-.14-.17-.23-.26-.02-.02-.03-.03-.05-.04-1.74-1.6-4.87.2-5.79,2.12-.79,1.21-.28,2.61.41,3.86.65,1.18,1.84,3.12,3.26,3.45.81.19,1.6-.05,2.17-.55.81-.48,1.5-1.39,1.74-2.23.14-.48.14-1.04.05-1.61Z"/>
      <path class="cls-6" d="M910.67,1324.16c.04-.48,0-.96-.13-1.39-.06-.22-.15-.43-.24-.63-.1-.83-.47-1.63-.94-2.32-.02-.04-.04-.08-.07-.12,0-.02-.02-.03-.03-.05-.04-.06-.08-.12-.12-.18,0-.01-.01-.02-.02-.03,0,0-.01-.01-.02-.02-.07-.09-.14-.17-.23-.26-.02-.02-.03-.03-.05-.04-1.74-1.6-4.87.2-5.79,2.12-.79,1.21-.28,2.61.41,3.86.65,1.18,1.84,3.12,3.26,3.45.81.19,1.6-.05,2.17-.55.81-.48,1.5-1.39,1.74-2.23.14-.48.14-1.04.05-1.61Z"/>
      <path class="cls-6" d="M883.6,1308.6c.04-.48,0-.96-.13-1.39-.06-.22-.15-.43-.24-.63-.1-.83-.47-1.63-.94-2.32-.02-.04-.04-.08-.07-.12-.01-.02-.02-.03-.03-.05-.04-.06-.08-.12-.12-.18,0-.01-.01-.02-.02-.03,0,0-.01-.01-.02-.02-.07-.09-.14-.17-.23-.26-.02-.02-.03-.03-.05-.04-1.74-1.6-4.87.2-5.79,2.12-.79,1.21-.28,2.61.41,3.86.65,1.18,1.84,3.12,3.26,3.45.81.19,1.6-.05,2.17-.55.81-.48,1.5-1.39,1.74-2.23.14-.48.14-1.04.05-1.61Z"/>
      <path class="cls-6" d="M902.03,1301.69c.04-.48,0-.96-.13-1.39-.06-.22-.15-.43-.24-.63-.1-.83-.47-1.63-.94-2.32-.02-.04-.04-.08-.07-.12,0-.02-.02-.03-.03-.05-.04-.06-.08-.12-.12-.18,0-.01-.01-.02-.02-.03,0,0-.01-.01-.02-.02-.07-.09-.14-.17-.23-.26-.02-.02-.03-.03-.05-.04-1.74-1.6-4.87.2-5.79,2.12-.79,1.21-.28,2.61.41,3.86.65,1.18,1.84,3.12,3.26,3.45.81.19,1.6-.05,2.17-.55.81-.48,1.5-1.39,1.74-2.23.14-.48.14-1.04.05-1.61Z"/>
      <path class="cls-6" d="M998.17,1251.31c-.05-.48-.18-.94-.39-1.35-.1-.2-.22-.39-.35-.58-.25-.8-.76-1.51-1.35-2.11-.03-.03-.06-.07-.09-.1-.01-.01-.03-.03-.04-.04-.05-.05-.1-.1-.15-.15,0,0-.02-.02-.03-.03,0,0-.01,0-.02-.01-.08-.07-.17-.14-.27-.21-.02-.01-.04-.02-.06-.03-2-1.25-4.75,1.09-5.3,3.15-.55,1.34.21,2.62,1.11,3.72.86,1.04,2.38,2.73,3.84,2.79.83.04,1.56-.34,2.04-.94.71-.63,1.21-1.65,1.3-2.52.05-.5-.06-1.05-.25-1.59Z"/>
      <path class="cls-6" d="M979.73,1263.98c-.05-.48-.18-.94-.39-1.35-.1-.2-.22-.39-.35-.58-.25-.8-.76-1.51-1.35-2.11-.03-.03-.06-.07-.09-.1-.01-.01-.03-.03-.04-.04-.05-.05-.1-.1-.15-.15,0,0-.02-.02-.03-.03,0,0-.01,0-.02-.01-.08-.07-.17-.14-.27-.21-.02-.01-.04-.02-.06-.03-2-1.25-4.75,1.09-5.3,3.15-.55,1.34.21,2.62,1.11,3.72.86,1.04,2.38,2.73,3.84,2.79.83.04,1.56-.34,2.04-.94.71-.63,1.21-1.65,1.3-2.52.05-.5-.06-1.05-.25-1.59Z"/>
      <path class="cls-6" d="M1016.21,1237.67c-.12-.47-.32-.91-.57-1.28-.13-.18-.28-.35-.43-.52-.36-.75-.96-1.39-1.64-1.9-.03-.03-.07-.06-.1-.09-.01-.01-.03-.02-.05-.04-.06-.04-.11-.09-.17-.13-.01,0-.02-.02-.03-.02,0,0-.01,0-.02-.01-.09-.06-.19-.12-.3-.17-.02,0-.04-.01-.06-.02-2.16-.95-4.54,1.76-4.79,3.88-.36,1.4.58,2.56,1.63,3.52,1,.9,2.75,2.36,4.2,2.21.83-.08,1.49-.56,1.88-1.22.61-.72.97-1.8.93-2.68-.02-.5-.21-1.03-.47-1.54Z"/>
      <path class="cls-6" d="M1015.45,1277.81c-.05-.48-.18-.94-.39-1.35-.1-.2-.22-.39-.35-.58-.25-.8-.76-1.51-1.35-2.11-.03-.03-.06-.07-.09-.1-.01-.01-.03-.03-.04-.04-.05-.05-.1-.1-.15-.15,0,0-.02-.02-.03-.03,0,0-.01,0-.02-.01-.08-.07-.17-.14-.27-.21-.02-.01-.04-.02-.06-.03-2-1.25-4.75,1.09-5.3,3.15-.55,1.34.21,2.62,1.11,3.72.86,1.04,2.38,2.73,3.84,2.79.83.04,1.56-.34,2.04-.94.71-.63,1.21-1.65,1.3-2.52.05-.5-.06-1.05-.25-1.59Z"/>
      <path class="cls-6" d="M995.29,1289.33c-.05-.48-.18-.94-.39-1.35-.1-.2-.22-.39-.35-.58-.25-.8-.76-1.51-1.35-2.11-.03-.03-.06-.07-.09-.1-.01-.01-.03-.03-.04-.04-.05-.05-.1-.1-.15-.15,0,0-.02-.02-.03-.03,0,0-.01,0-.02-.01-.08-.07-.17-.14-.27-.21-.02-.01-.04-.02-.06-.03-2-1.25-4.75,1.09-5.3,3.15-.55,1.34.21,2.62,1.11,3.72.86,1.04,2.38,2.73,3.84,2.79.83.04,1.56-.34,2.04-.94.71-.63,1.21-1.65,1.3-2.52.05-.5-.06-1.05-.25-1.59Z"/>
      <path class="cls-6" d="M1031.76,1263.02c-.12-.47-.32-.91-.57-1.28-.13-.18-.28-.35-.43-.52-.36-.75-.96-1.39-1.64-1.9-.03-.03-.07-.06-.1-.09-.01-.01-.03-.02-.05-.04-.06-.04-.11-.09-.17-.13-.01,0-.02-.02-.03-.02,0,0-.01,0-.02-.01-.09-.06-.19-.12-.3-.17-.02,0-.04-.01-.06-.02-2.16-.95-4.54,1.76-4.79,3.88-.36,1.4.58,2.56,1.63,3.52,1,.9,2.75,2.36,4.2,2.21.83-.08,1.49-.56,1.88-1.22.61-.72.97-1.8.93-2.68-.02-.5-.21-1.03-.47-1.54Z"/>
      <path class="cls-7" d="M369.57,509.96c-.89-1.85-2.06-3.58-3.18-5.29-.58-.88-1.14-1.78-1.74-2.65-.19-.28-1.14-1.15-1.21-1.38-.44-1.35-2.4-1.1-2.47.33-.14,3.01,2.87,6.33,4.21,8.84,1.18,2.19,2.02,4.51,2.64,6.92.84,3.29.5,6.76,1.43,9.99.32,1.12,2.17,1.58,2.71.35,2.24-5.09-.1-12.36-2.39-17.11Z"/>
      <path class="cls-8" d="M562.3,432.07c-8.8-5.32-14.83,3.02-16.12,11.07-.93,5.79.41,12.05,2.68,17.41,1.45,3.42,4.46,8.39,8.57,8.94,2.1.98,4.43,1.07,6.66-.58,3.94-2.93,4.99-8.28,5.41-12.88.72-7.97.57-19.26-7.2-23.96Z"/>
      <path class="cls-9" d="M870.83,44.38c-2.28-1.41-6.23-.73-8.71,0-.6.18-1.18.4-1.74.64-1.2-2.26-4.28-2.71-6.6-2.5-1.71.15-3.16.81-4.47,1.71-.15-.26-.39-.46-.73-.52-5.42-1.02-11.59,2.13-15.48,5.69-4.15,3.8-7.99,9.41-9.64,14.79-.2.67.77,1.31,1.23.72,3.26-4.14,5.3-8.98,9.13-12.74,1.86-1.82,3.99-3.35,6.41-4.34,2.12-.88,4.27-1.02,6.44-1.34-.39.39-.78.78-1.16,1.18-2.83,2.95-5.51,5.77-7.66,9.28-1.17,1.91-2.41,3.75-3.63,5.63-1.07,1.64-2.39,3.38-2.14,5.4.11.85,1.1,1.46,1.8.74,1.01-1.03,1.34-2.22,2.06-3.48.8-1.39,1.77-2.68,2.64-4.02,1.91-2.94,3.54-5.95,5.96-8.53,1.97-2.11,3.98-4.5,6.33-6.19,2.01-1.45,5.45-2.17,7.48-.41-1.46.9-2.78,2.02-3.91,3.32-2.57,2.96-4.23,6.52-5.77,10.09-1.51,3.48-3.71,6.91-4.96,10.45-.44,1.26,1.23,2,2.1,1.22,2.2-1.96,3.29-5.28,4.41-7.94,1.42-3.37,2.74-6.8,4.74-9.88,1.92-2.96,4.45-5.38,7.86-6.49,2.59-.84,5.63-.27,8.03-1.37.46-.21.37-.87,0-1.1Z"/>
      <path class="cls-9" d="M170.16,628.82c-1.73-.77-3.55-.87-5.4-1.27-1.89-.42-3.74-.95-5.61-1.46-3.86-1.05-7.79-1.74-11.68-2.63-3.21-.73-6.28-1.84-9.46-2.68-2.35-.62-4.74-1.07-7.06-1.8-1.71-.54-4.71-1.39-3.94-3.83.65-2.06,3.86-2.88,5.68-3.34,2.29-.59,4.65-.87,7.02-.73,4.05.25,7.9,1.72,11.94,2.04,1.29.1,1.45-1.82.29-2.18-7.12-2.2-14.45-4.02-21.75-1.66-4.1,1.32-9.31,5.83-5.19,10.3,1.7,1.85,4.66,2.55,6.98,3.19,3.21.89,6.36,1.76,9.54,2.74,4.64,1.42,9.43,2.21,14.13,3.39,4.21,1.06,9.8,3.75,14.14,2.64,1.15-.3,1.56-2.19.36-2.73Z"/>
      <path class="cls-8" d="M573.96,467.23c-.9.7-1.11,1.45-1.5,2.48-.65,1.69-1.57,2.92-2.8,4.23-2.16,2.31-4.7,3.97-7.87,4.44-3.04.45-6.05-.09-8.67-1.7-2.5-1.54-3.58-3.87-5.45-5.98-.9-1.02-2.4.28-1.81,1.4,1.63,3.1,3.04,5.59,6.01,7.61,2.96,2.02,6.64,2.76,10.18,2.38,6.7-.73,13.54-6.44,14.81-13.19.34-1.78-1.53-2.75-2.89-1.68Z"/>
      <path class="cls-5" d="M470.15,800.54c-3.34.37-6.27,2.27-9.63,2.43-3.12.15-7.4-.32-9.36-3.09-3.18-4.51.26-10.84,1.64-15.34.39-1.26-1.36-1.88-2.05-.86-3.16,4.69-5.54,13-2.17,18.1,1.89,2.87,5.32,4.06,8.58,4.52,1.83.26,3.73.37,5.56.07,2.56-.42,4.85-1.82,7.44-2.06,2.4-.22,2.38-4.02,0-3.75Z"/>
      <path class="cls-3" d="M420.31,903.52c-.1-5.44-.19-11.02-1.45-16.33-1.22-5.15-3.36-10.03-5.15-14.99-1.86-5.15-3.59-10.34-5.81-15.34-2.25-5.06-5.32-9.57-8.26-14.24-2.79-4.44-5.55-8.92-8.7-13.11-3.87-5.14-8.52-9.72-13.05-14.29-2.39-2.41-4.79-4.86-7.38-7.06-.99-.84-3.09-3.02-4.58-2.06-1.41.9-.17,3.05,1.31,2.25-.88.48-.58.18.34,1,.92.82,1.79,1.71,2.65,2.59,2.02,2.06,3.96,4.2,5.91,6.33,3.92,4.28,8.17,8.44,11.65,13.09,2.85,3.81,5.37,7.86,7.88,11.89,2.53,4.06,5.32,7.99,7.48,12.26,2.4,4.74,4.14,9.78,5.9,14.79,1.6,4.57,3.45,9.07,4.94,13.68,1.81,5.58,2.22,11.13,2.43,16.95.22,6.08.07,12.1-1.76,17.95-.74,2.36,2.97,3.38,3.7,1.02,1.65-5.31,2.05-10.83,1.95-16.36Z"/>
      <path class="cls-5" d="M191.77,738.42c-3.3.2-6.6-.05-9.43-.96-3.12-1.01-9.3-4.19-9.14-8.2.16-3.96,5.72-5.88,8.76-6.96,3.39-1.2,7.79-2.13,11.43-1.01.36,5.63-.89,11.79-1.62,17.14Z"/>
      <path class="cls-5" d="M126.57,747.23c-3.15-1.93-7.49-1.23-11.02-1.62-5.52-.61-11.07-.96-16.59-1.58-11.07-1.24-22.35-3.57-33.53-3.23-7.95.24-17.69,3.69-22.87,9.99-3.16,3.84-8.06,12.04-3.9,16.67.62.69,1.99-.03,1.63-.95-2.14-5.41,2.14-12.42,6.33-15.77,7.24-5.79,16.32-7,25.23-6.37,9.45.66,18.79,2.31,28.2,3.38,4.79.55,9.6.84,14.38,1.39,2.9.34,7.81-.35,10.27,1.32,1.98,1.34,3.94-1.96,1.88-3.22Z"/>
      <path class="cls-8" d="M96.59,762.91c-1.24-3.57-1.79-7.24-3.58-10.62-1.04-1.96-2.37-4.36-4.98-3.89-3.26.6-6.25,4.4-8.35,6.68-1.01,1.1-2.03,2.18-2.91,3.39-.88,1.2-1.64,2.92-2.85,3.82-2.75,2.05-3.98-3.52-4.33-5.63-.49-2.92-.61-9.47-4.76-9.75-2.85-.19-5.47,3.04-7.18,4.88-3.13,3.35-6.25,6.74-9.35,10.11-.82.88.22,2.31,1.3,1.69,3.73-2.15,6.43-6.14,9.29-9.26,1.32-1.44,2.92-3.54,4.71-4.36,1.43-.66,1.66-.08,2.09,1.33,1.38,4.52.24,11.59,5.03,14.45,2.65,1.58,5.03-.43,6.62-2.47,2.4-3.08,4.59-6.11,7.45-8.83.83-.79,1.93-2.08,3.01-2.47,1.25-.44,1.4.13,1.99,1.18,1.16,2.05,1.75,4.22,2.24,6.5.4,1.85.81,3.66,1.41,5.45.49,1.47,1.31,3.13,1.34,4.7.05,2.04,3.3,2.67,3.7.5.48-2.56-1.1-5.07-1.92-7.42Z"/>
      <path class="cls-8" d="M162.11,774.88c-.57-9.7-9.02-15.47-17.88-16.73-7.09-1.01-14.22-.13-21.33.51-1.11-.64-2.22-1.29-3.31-1.98,0-.02,0-.03,0-.05,1.6-2.7,4.18-5.08,6.2-7.07,2.78-2.74,6.4-5.15,8.65-8.34.83-1.18-.81-2.77-1.98-1.98-3.52,2.38-6.88,5.63-9.86,8.79-.36-.11-.77-.11-1.18.09-9.12,4.34-17.24,12.88-21.37,22.04-2.34,5.21-6.08,13.82-2.39,19.25,2.9,4.27,8.63,3.55,11.8.15,4.12-4.41,5.84-11.18,7.22-16.87.37-1.5.68-3.02.96-4.53.96,2.15,2.14,4.21,3.25,6.14,2.42,4.18,4.45,8.38,6.44,12.77,2.63,5.83,6.32,14.25,13.17,16.09,7.46,2,13.38-5.61,13.73-12.33.43-8.09-4.04-16.34-10.37-21.17-4.24-3.23-9.18-5.28-14.01-7.44-.44-.2-.86-.41-1.29-.61,3.97-.21,7.94-.41,11.91-.12,4.02.29,8.24,1.11,11.64,3.4,3.98,2.68,5.43,6.52,7.38,10.69.59,1.26,2.69.64,2.61-.71ZM114.92,757.43c.21.25.44.49.66.73-.1.39-.19.78-.25,1.17-.78.47-.76,1.68.02,2.18.01.04.03.07.04.11-.71,3.64-1.43,7.28-2.36,10.88-1.16,4.49-3.06,14.08-8.16,15.99-8.62,3.22-2.74-13.75-1.55-16.41,1.68-3.76,3.75-7.15,6.57-10.18,1.54-1.65,3.26-3.09,5.02-4.47ZM141.13,772.29c6.53,4.72,13.63,17.59,6.73,24.78-7.7,8.03-14.18-5.44-16.87-11.21-1.54-3.31-2.91-6.66-4.71-9.83-2.69-4.73-5.42-9.03-6.69-14.15.2,0,.4,0,.6,0,6.49,4.08,14.87,6.02,20.94,10.4Z"/>
      <path class="cls-5" d="M914.47,1227.49c-.15-.15-.39-.23-.6-.16-.1.04-.21.07-.31.11-.2.07-.38.25-.37.48.01.23.15.41.37.48.1.04.21.07.31.11.2.07.46,0,.6-.16.11-.12.18-.27.18-.43,0-.16-.07-.32-.18-.43Z"/>
      <path class="cls-5" d="M861.73,1285.12c-.78,4.85-4.32,11.09-9.25,13.16-.03-9.52,2.11-18.64,4.18-25.19,3.42,3.02,5.74,7.86,5.07,12.04Z"/>
    </g>
    <g>
      <path class="cls-10" d="M723.72,1290.92c-3.45,3.18-7.08,6.05-10.85,8.61-18.27,12.44-39.86,17.62-60.88,15.71h-.02c-21.53-1.96-42.46-11.36-58.58-28.05-.49-.51-.98-1.02-1.47-1.55l-.09-.1c-15.1-16.38-23.22-36.71-24.52-57.33-1.38-22,4.99-44.32,18.94-62.56,3.24-4.24,6.89-8.26,10.95-12,13.39-12.34,29.42-20.02,46.09-23.13.74-.14,1.47-.27,2.21-.38,22.45-3.62,45.91,1,65.54,13.68,1.23.79,2.45,1.62,3.65,2.48,5.13,3.67,9.96,7.91,14.4,12.73,3.78,4.11,7.13,8.46,10.04,13h0c.83,1.31,1.63,2.62,2.39,3.96h0c12.05,21.06,15.18,45.69,9.59,68.55-.18.7-.36,1.41-.54,2.11-4.43,16.45-13.41,31.88-26.86,44.27Z"/>
      <path class="cls-1" d="M712.69,1211.74c-.83-3.15-2.41-6.23-4.05-9.03-1.67-2.87-3.62-5.58-5.74-8.13-4.4-5.29-9.59-9.84-14.98-14.08-3.17-2.49-6.41-4.89-9.69-7.24-1.07-.77-2.12.95-1.08,1.73,10.65,8.04,21.77,16.03,28.91,27.59.96,1.55,1.84,3.15,2.62,4.8.78,1.65,1.38,3.37,2.07,5.06.45,1.1,2.25.43,1.95-.7Z"/>
      <path class="cls-1" d="M631.21,1225.83c.82-6.32,1.88-12.57,3.48-18.74,1.57-6.08,3.56-12.06,5.95-17.86,1.37-3.33,2.96-6.55,4.47-9.81.23-.5.18-1.06-.32-1.38-.44-.28-1.12-.15-1.38.32-1.6,2.84-2.93,5.87-4.22,8.86-1.25,2.93-2.4,5.9-3.44,8.9-2.11,6.09-3.78,12.34-5,18.67-.7,3.62-1.28,7.28-1.62,10.95-.13,1.35,1.92,1.4,2.09.09Z"/>
      <path class="cls-1" d="M704.21,1240.42c-.26-.51-.81-.59-1.29-.41-3.09,1.12-6.15,2.31-9.27,3.35-3.16,1.05-6.36,1.98-9.58,2.82-6.4,1.66-12.92,2.93-19.49,3.73-3.68.45-7.36.73-11.06.92-1.43.07-1.54,2.31-.09,2.24,13.47-.58,26.92-3.1,39.71-7.32,3.6-1.19,7.21-2.44,10.65-4.04.47-.22.64-.84.41-1.29Z"/>
      <path class="cls-1" d="M626.92,1159.89c-11.18,1.08-22.23,5.35-31.56,11.53-2.69,1.78-5.27,3.74-7.71,5.86-1.06.92.42,2.53,1.48,1.61,8.31-7.24,18.32-12.51,29-15.26,3.04-.78,6.12-1.34,9.22-1.79,1.29-.19.82-2.06-.43-1.94Z"/>
      <path class="cls-1" d="M612.87,1242.67c-1.47-.75-3-1.38-4.46-2.14-1.46-.76-2.89-1.59-4.29-2.47-2.71-1.71-5.29-3.62-7.69-5.74-4.88-4.3-9.1-9.37-12.4-14.98-1.89-3.21-3.4-6.59-4.77-10.05-.4-1.02-2.16-.4-1.82.65,2.06,6.43,5.56,12.47,9.73,17.76,4.15,5.26,9.15,9.86,14.74,13.56,1.58,1.05,3.21,2.02,4.89,2.91,1.67.89,3.4,1.81,5.2,2.41,1.12.37,1.97-1.36.87-1.92Z"/>
      <path class="cls-1" d="M680.18,1307.37c-3.13-.96-6.22-1.87-9.23-3.17-2.9-1.26-5.7-2.77-8.36-4.48-5.41-3.47-10.26-7.79-14.32-12.77-2.3-2.82-4.35-5.86-6.12-9.04-.59-1.06-2.24-.22-1.68.86,6.1,11.79,16.49,21.32,28.53,26.84,3.36,1.54,6.95,2.98,10.59,3.69,1.25.24,1.87-1.54.59-1.93Z"/>
      <path class="cls-1" d="M611.35,1271.37c-.97.65-1.93,1.31-2.89,1.99-3.15,2.27-6.16,4.74-8.98,7.4-1.86,1.75-3.62,3.59-5.3,5.5-.27.3-.53.61-.79.93-.49-.51-.98-1.02-1.47-1.55.28-.31.55-.63.82-.93,1.71-1.95,3.52-3.81,5.41-5.59,2.79-2.62,5.77-5.02,8.91-7.19,1.12-.77,2.26-1.52,3.42-2.23,1.04-.63,1.84,1.01.85,1.67Z"/>
      <path class="cls-1" d="M719.17,1269.65c1.07-3.72,1.78-7.53,2.07-11.39.09-1.23-1.77-1.28-1.9-.08-1.41,13.16-7.06,25.74-16.2,35.35-2.58,2.72-5.43,5.13-8.44,7.38-.94.71.22,2.39,1.2,1.71,11.24-7.72,19.5-19.94,23.26-32.98Z"/>
      <path class="cls-1" d="M750.58,1246.65c-2.97-1.67-6.08-3.05-9.29-4.18-1.11-.39-2.23-.76-3.36-1.08-1.24-.36-.65-2.24.58-1.91,1.3.35,2.58.74,3.85,1.18,3.02,1.05,5.95,2.35,8.76,3.88-.18.7-.36,1.41-.54,2.11Z"/>
      <path class="cls-1" d="M733.05,1211.57c-.54-.33-.6-.97-.35-1.49.95-1.98,1.81-4,2.57-6.06.27-.71.52-1.43.76-2.15,1.65-4.94,2.74-10.05,3.23-15.23.46-4.88.34-9.72-.12-14.59.83,1.3,1.63,2.62,2.39,3.95h0c.08,1.26.12,2.52.13,3.77.08,8.61-1.45,17.29-4.5,25.37-.78,2.07-1.66,4.1-2.63,6.08-.26.53-1.03.63-1.49.35Z"/>
      <path class="cls-1" d="M714.71,1146.31c-10.28-1.32-20.75-.22-30.55,3.09-1.07.36-2.14.75-3.19,1.16-1.14.45-2.05-1.23-.89-1.73.79-.33,1.58-.65,2.38-.95,2.38-.89,4.81-1.65,7.28-2.26,5.85-1.44,11.91-2.09,17.93-1.95,1.13.02,2.26.08,3.4.16,1.23.79,2.45,1.62,3.65,2.48Z"/>
      <path class="cls-1" d="M649.7,1144.05c-.59-1.28-.94-2.67-1.4-4.01-.1-.29-.2-.58-.32-.86-.61-1.53-1.31-3.02-2.09-4.46-.78-1.44-1.65-2.84-2.59-4.18.74-.14,1.47-.27,2.21-.38.78,1.13,1.5,2.3,2.17,3.5.85,1.55,1.61,3.15,2.27,4.8.18.44.37.9.55,1.36.46,1.17.88,2.39,1,3.59.09,1-1.31,1.72-1.8.64Z"/>
      <path class="cls-8" d="M647.51,1140.22s9.51-3.28,36.76,8.43l-4.18,26.92s-28.93,5.16-38.9,9.65l-18.61-23.59s6.55-10.74,24.93-21.41Z"/>
      <path class="cls-8" d="M742.18,1241.23s4.05-9.21-5.41-37.32l-27.17,1.97s-7.5,28.42-12.78,37.99l22,20.47s11.24-5.66,23.37-23.1Z"/>
      <path class="cls-8" d="M630.28,1222.69s9.9,14.99,26.9,29.18l-14.21,29.64s-20.03,1.22-35.52-8.79c0,0-9.79-19.97-7.49-36.19l30.33-13.85Z"/>
      <path class="cls-8" d="M567.32,1228.22c-1.38-22,4.99-44.32,18.94-62.56l5.59,9.39s-10.4,15.07-11.3,37.05c0,0-8.33,7.04-13.24,16.12Z"/>
      <path class="cls-8" d="M712.88,1299.53c-18.27,12.44-39.86,17.62-60.88,15.71h-.02s-.14-.05-.14-.05c0,0,10.36-5.17,15.12-11.91,0,0,20.78.44,36.68-9.51,0,0,3.4,4.68,9.25,5.76Z"/>
      <path class="cls-2" d="M751.13,1244.54c-.17.7-.35,1.41-.54,2.11-4.43,16.44-13.41,31.87-26.86,44.27-3.45,3.19-7.08,6.06-10.84,8.61-18.27,12.43-39.87,17.61-60.89,15.71h-.02c-21.53-1.96-42.46-11.36-58.58-28.05-.5-.51-.99-1.03-1.47-1.55l-.09-.1c-2.72-2.95-5.21-6.02-7.47-9.21,14.71,11.97,32.3,18.82,50.32,20.46h.02c21.02,1.91,42.61-3.27,60.89-15.71,3.77-2.56,7.39-5.43,10.84-8.61,13.45-12.4,22.43-27.83,26.86-44.27.19-.7.37-1.41.54-2.11,5.59-22.86,2.47-47.49-9.59-68.54h0c-.76-1.34-1.56-2.66-2.39-3.96h0c-.82-1.28-1.67-2.54-2.56-3.79,3.43,2.79,6.71,5.87,9.8,9.22,3.79,4.11,7.13,8.46,10.04,13h0c.84,1.31,1.63,2.63,2.39,3.96h0c12.05,21.06,15.18,45.69,9.59,68.54Z"/>
    </g>
  </g>
</svg>