<?xml version="1.0" encoding="UTF-8"?>
<svg id="people" xmlns="http://www.w3.org/2000/svg" viewBox="0 0 1046 1378">
  <defs>
    <style>
      .cls-1 {
        fill: #6195d2;
      }

      .cls-2 {
        fill: #ceb614;
      }

      .cls-3 {
        fill: #b7cbed;
      }

      .cls-4 {
        fill: #89b5f4;
      }

      .cls-5 {
        fill: #b0b0b0;
      }

      .cls-6 {
        fill: #edc6ab;
      }

      .cls-7 {
        fill: #fff;
      }

      .cls-8 {
        fill: #777676;
      }

      .cls-9 {
        fill: #472912;
      }

      .cls-10 {
        fill: #f2f2f2;
      }

      .cls-11 {
        fill: #3c3c4c;
      }

      .cls-12 {
        fill: #fcfcfc;
      }

      .cls-13 {
        fill: #d46f4d;
      }

      .cls-14 {
        fill: #f9e2d2;
      }

      .cls-15 {
        fill: #ffa88e;
      }

      .cls-16 {
        fill: #4c7ea8;
      }
    </style>
  </defs>
  <g id="_4" data-name="4">
    <g>
      <path class="cls-2" d="M434.26,145.13c.63,15.87-11.72,29.25-27.59,29.89-11.39.45-21.51-5.79-26.54-15.22-1.97-3.7-3.16-7.9-3.34-12.37-.05-1.22-.02-2.42.08-3.6,1.2-14.25,12.86-25.71,27.51-26.29,8.94-.36,17.08,3.4,22.61,9.59,2.54,2.84,4.53,6.19,5.78,9.89.87,2.55,1.39,5.28,1.51,8.12Z"/>
      <path class="cls-7" d="M432.75,137.01c-.45,1.98-1.16,3.91-2.17,5.74-3.34,6.1-10.09,10.55-17.15,10.52-3.91-.01-7.3-1.51-10.45-3.74-3.22-2.27-6.24-5.44-10.26-6.2-8.65-1.63-15.31,6.67-12.68,14.79.2.61.2,1.17.07,1.67-1.97-3.7-3.16-7.9-3.34-12.37-.05-1.22-.02-2.42.08-3.6,1.09-1.47,2.45-2.77,4.04-3.83,6.94-4.62,15.07-3.17,21.45,1.52,3.18,2.33,6.28,5.43,10.45,5.71,3.52.24,7.08-1.38,9.63-3.74,4.62-4.27,5.52-10.45,4.55-16.36,2.54,2.84,4.53,6.19,5.78,9.89Z"/>
    </g>
    <g>
      <path class="cls-14" d="M974.74,101.59s-.01.04-.02.06c-.78,3.25-35.44,143.36-181.17,49.07-24.14-15.62-45.19-20.84-63.01-20.17-46.55,1.76-71.25,43.65-72.26,45.39.79-1.55,17.82-34.92,43.81-54.22,0,0,28.85-97.43,167.83-8.78,0,0,42.16,40.1,104.82-11.34Z"/>
      <path class="cls-14" d="M719.33,251.12h0s-146.03-30.71-86.25-103.89c29.32-35.9,57.14-32.22,70.05-27.59,3.04,1.08,5.25,2.22,6.46,2.91.01,0,.02.01.04.02.68.38,1.03.62,1.03.62,1.05.55,2.07,1.09,3.07,1.65,97.88,53.61,6.57,125.53,5.62,126.28Z"/>
      <path class="cls-6" d="M719.33,251.12l9.62-29.43,16.5-22.92c5.17-7.18,6.77-16.31,4.37-24.82-4-14.23-13.54-35.5-36.12-49.11,97.88,53.61,6.57,125.53,5.62,126.28Z"/>
      <path class="cls-15" d="M562.24,359.58s-5.62,36.76-14.71,53.38l-18.98-17.67c-5.3-4.94-8.72-11.57-9.67-18.75l-2.97-22.48s.03,15.88-17.96,13.34l-10-6.11s11.27-17.95,4.65-20.94c0,0-4.94-1.43-9.55,5.26,0,0,3.77-6.65-1.56-8.07-5.33-1.41-8.31,5.21-8.31,5.21,0,0-3.12-10.15-8.05-4.82,0,0-2.57-7.91-9.44-1.06-6.86,6.85-6.02,27.96-6.02,27.96,0,0,2.99,6.68,23.65,14.48,4.33,1.64,8.36,4,11.87,7.03l10.36,8.92c5.85,5.04,10.12,11.66,12.32,19.06,6.76,22.7,24.73,72.41,52.31,71.31,35.72-1.43,76.77-154.29,76.77-154.29,0,0-38.24-50.4-74.71,28.24Z"/>
      <path class="cls-15" d="M803.65,601.26s-11.15,73.62-41.16,143.73c-6.96,16.26-14.86,32.31-23.76,47.2-15.86,26.54-34.91,49.37-57.48,63.01-14.84,8.97-33.92,6.46-46.22-5.76l-41.76-41.51c-30.98-32.05-57.34-65.43-134.39-92.19l28.79-36.1,75.6,33.83,35.31,15.8,42.15,18.86,26.08,11.67,1.4-18.15,9.6-124.27.28-3.59,125.56-12.53Z"/>
      <path class="cls-15" d="M877.61,1171.95l-38.41,23.9-33.06-57.37h0s-17.69-30.7-17.69-30.7c-55.81-68.64-62.99-129.79-61.52-163.11.82-18.67-5.3-36.99-17.1-51.48-1.45-1.78-2.88-3.55-4.3-5.31h0c-26.52-32.97-47.15-62.33-63.09-88.4-7.4-12.1-13.78-23.48-19.29-34.2-55.94-108.86-20.21-147.5-20.21-147.5,0,0,33.05-7.72,73.35,21.12,21.92,15.69,43.23,31.87,65.27,76.35,4.14,8.35,10.71,26.88,14.22,34.88l.04.1c1.4,3.19,2.75,6.34,4.05,9.47l.05.14s.03.08.05.13c5.26,12.65,9.77,24.81,13.62,36.42,20.6,62.09,22.59,108.53,22.02,130.1-.27,10.26.83,20.5,3.31,30.47,20.29,81.31,39.55,134.5,53.94,167.64h0c15.03,34.64,24.75,47.37,24.75,47.37Z"/>
      <path class="cls-10" d="M877.61,1171.95l-38.41,23.9-33.06-57.37c.66.08,40.95,4.04,46.72-13.89h0c15.03,34.64,24.75,47.37,24.75,47.37Z"/>
      <path class="cls-15" d="M792.48,497.94l-.19.75.46,6.13v.04s3.78,50.06,3.78,50.06l3.64,30.08,4.5,37.22c-122.89,57.21-195.27-17.23-195.27-17.23l2.74-19.11,15.97-22.71c1.73-1.08,3.31-2.22,4.74-3.41h0c13.27-11.05,13.79-26.46,9.86-40.66-5.48-19.89-19.64-37.43-19.64-37.43l-20.62-50.56s-24.97-74.62-15.13-108.43c0,0,0,0,0-.01,1.92-6.62,5.18-11.67,10.23-14.3,30.8-16.03,183.56-31.56,183.56-31.56,25.23,10.21,32.95,45.75,34.28,79.21,1.38,34.48-4.03,66.74-4.03,66.74l-18.91,75.19Z"/>
      <path class="cls-13" d="M762.68,903.54c3.37,6.35,6.75,12.69,10.12,19.04,1.1,2.07,4.24.23,3.14-1.83-3.37-6.35-6.75-12.69-10.12-19.04-1.1-2.07-4.24-.23-3.14,1.83h0Z"/>
      <path class="cls-11" d="M949.38,1294.03s-19.21,11.95-53.15,7.15c-24.27-3.43-38.39-20.66-44.47-30.2-2.58-4.05-6.43-7.12-10.98-8.66-9.8-3.31-26.7-10.16-34.06-20.07-10.67-14.38-.36-27.42-.36-27.42l15.96-48.24c3.33,7.16,9.53,13.18,14.91,17.43,1.94,1.53,4.59-.58,3.55-2.83-.8-1.73-1.35-3.36-1.7-4.89-1.67-7.26,2.04-14.67,8.78-17.84,8.54-4.01,24.03-10.3,30.54-6.68,6.26,3.49,9.5,18.7,10.93,28.11.81,5.32,2.77,10.39,5.75,14.88,12.16,18.33,44.05,65.79,55.19,76.65,3.12,3.04,4.8,5.86,5.51,8.4,2.47,8.76-6.42,14.2-6.42,14.2Z"/>
      <path class="cls-11" d="M487.68,679.64s-17.95,9.04-29.87,9.23c-11.92.2-8.9,27.26-8.9,27.26,0,0-35.21-13.58-46.13-16.19-10.92-2.62-12.34,3.54-29.07,1.16-3.94-.56-6.08-2.16-7.04-4.29-3.14-6.89,6.1-19.25,6.1-19.25,37.82-53.1,55.16-35.49,55.16-35.49,0,0,19.21-19.07,29.05-22.79,3.7-1.4,6.36.55,8.24,3.51,3.1,4.91,4.06,12.64,4.06,12.64,20.67,17.48,18.41,44.2,18.41,44.2Z"/>
      <path class="cls-3" d="M465.22,622.8l-1.39,1.21s-33.5,36.29-46.99,31.83c0,0-6.78-3.06-12.96,8.84-6.08,11.71-25.98,36.14-37.2,32.14-3.14-6.89,6.1-19.25,6.1-19.25,37.82-53.1,55.16-35.49,55.16-35.49,0,0,19.21-19.07,29.05-22.79,3.7-1.4,6.36.55,8.24,3.51Z"/>
      <path class="cls-4" d="M831.97,448.92c3.47,4.25,3.17,10.45-.7,14.34-9.47,9.51-24.74,25.52-28.64,29.75-5.63,6.1-13.37,11.71-22.56,16.84h-.01c-48.5,27.12-137.23,41.12-168.3,45.36-5.48.75-10.08-4.08-9.07-9.52l8.63-46.73,2.14-11.57c2.18-4.87,1.78-8.65.3-12.38-1.69-4.29-4.81-8.51-7.05-14.22-3.82-9.71-7.74-19.79-11.34-30.09-15.77-25.66-54.75-57.73-54.75-57.73,31.23-52.76,56.94-64.63,56.94-64.63,30.8-16.03,183.56-31.56,183.56-31.56,25.23,10.21,35.15,31.54,36.49,65.01.25,6.3.52,11.88.8,16.76,1.24,21.85,2.57,30.14,2.57,30.14l-1.06,11.07c-1.39,14.48.88,29.09,6.6,42.47l5.45,6.67Z"/>
      <path class="cls-16" d="M551.02,380.6c18.66,16.61,34.03,36.63,45.81,58.65,1.07,2,4.09.22,3.04-1.77-11.89-22.44-27.98-41.97-47.29-58.42-1.06-.91-2.61.6-1.55,1.55h0Z"/>
      <path class="cls-15" d="M743.78,278.29s-17,39.13-84.08,38.49c-7.41-.07-11.56-8.56-7.13-14.5,4.21-5.64,7.39-13.35,6.62-23.51-.43-5.74-2.13-12.27-5.6-19.65-19.54-41.5,66.18-12.4,66.18-12.4,0,0-.78,4.92-.03,10.88,1.18,9.4,6.17,21.39,24.05,20.68Z"/>
      <path class="cls-13" d="M719.73,257.61s0,0,0,0c-7.34,15.78-20.68,34.38-35.67,34.98-14.99.6-24.87-13.82-24.87-13.82-.43-5.74-2.13-12.27-5.6-19.65-19.54-41.5,66.18-12.4,66.18-12.4,0,0-.78,4.92-.03,10.88Z"/>
      <path class="cls-15" d="M694.24,130.64c-12.48-4.3-26.13-3.76-38.24,1.53-26.66,11.64-42.51,27.94-29.86,83.72,15.41,67.97,54.77,66.76,54.77,66.76h.25s.25-.02.25-.02c0,0,39.33-1.93,49.27-70.91,8.16-56.61-8.94-71.6-36.44-81.07Z"/>
      <path class="cls-9" d="M696.45,211.47c.11,2.69-1.62,4.94-3.86,5.03-2.24.09-4.15-2.02-4.25-4.71-.11-2.69,1.62-4.94,3.86-5.03s4.15,2.02,4.25,4.71Z"/>
      <path class="cls-9" d="M652.62,213.22c.11,2.69-1.62,4.94-3.86,5.03-2.24.09-4.15-2.02-4.25-4.71-.11-2.69,1.62-4.94,3.86-5.03,2.24-.09,4.15,2.02,4.25,4.71Z"/>
      <path class="cls-9" d="M639.36,213.66c-.29,0-.59-.11-.82-.32-.49-.45-.53-1.21-.08-1.71.31-.34,7.79-8.28,21.67-2.02.61.27.88.99.61,1.6-.27.61-.99.88-1.6.61-12.23-5.51-18.62,1.16-18.89,1.44-.24.26-.56.39-.89.39Z"/>
      <path class="cls-9" d="M701.72,210.79c-.2,0-.4-.05-.59-.16-10.93-6.14-16.3-.94-16.53-.72-.47.47-1.24.48-1.71.01-.48-.47-.49-1.22-.03-1.7.27-.28,6.81-6.81,19.45.3.58.33.79,1.07.46,1.65-.22.4-.63.62-1.06.62Z"/>
      <path class="cls-14" d="M635.68,203.93c-1.23,1.28-3.39,1.06-4.21-.51-1.22-2.33-1.2-6.06,5.91-10.59,9.29-5.91,17.29-5.98,20.58-5.69.96.09,1.8.7,2.18,1.59l.76,1.77c.73,1.72-.07,5.08-1.94,5.11-5.33.1-15.39.12-23.28,8.32Z"/>
      <path class="cls-14" d="M702.84,197.89c1.43,1.06,3.52.48,4.07-1.21.81-2.5.16-6.18-7.61-9.44-10.15-4.26-18.05-2.98-21.24-2.13-.94.25-1.65.99-1.88,1.93l-.45,1.88c-.43,1.82.92,4.99,2.77,4.71,5.27-.8,15.19-2.48,24.35,4.27Z"/>
      <path class="cls-14" d="M723.21,145.43s-3.88-19.4-30.69-21.56c0,0-30.36-11.92-52.62,11.18,0,0-37.4,26.23-15.71,71.39,0,0,2.02-20.1,8.51-34.72,2.67-6.02,7.48-16.96,13.64-19.29.11-.04.22-.07.33-.11,3.13,6.3,7.51,11.94,12.9,16.49,1.02.86,2.32-.31,1.73-1.45-2.09-4-4.17-8-6.26-11.99,5.42,6.36,11.67,12.01,18.5,16.82,2.6,1.83,5.28,3.53,8.05,5.09.83.47,2.01-.42,1.63-1.36-.56-1.38-1.13-2.76-1.69-4.14,3.69,2.69,7.38,5.39,11.07,8.08.77.56,1.95.18,1.92-.89-.05-1.67-.31-3.31-.76-4.9l14.15,12.87c5.54,6.81,17.88,5.23,21.23,20.36,0,0,17.28-37.66-5.93-61.86Z"/>
      <path class="cls-6" d="M873.71,205.31c-18.16,0-39.5-6.67-60.42-28.77-48.21-50.91-77.47-48.34-77.76-48.31-1.16.12-2.21-.7-2.34-1.86-.13-1.16.69-2.21,1.84-2.35,1.26-.15,31.4-3.14,81.34,49.6,35.28,37.25,71.71,28.46,90.29,19.9,28.19-12.98,49.12-40.25,47.65-54.18-.12-1.16.72-2.21,1.88-2.33,1.17-.12,2.21.72,2.33,1.89,1.65,15.61-19.88,44.56-50.09,58.47-8.55,3.94-20.68,7.93-34.72,7.93Z"/>
      <path class="cls-5" d="M628.11,563.17s84.27,64.68,172.05,21.83c0,0,18.8,77.16-41.83,169.43l-22.11-51.08s-75.99-18.02-107.14,73.14c0,0-95.54-135.85-.97-213.31Z"/>
      <path class="cls-13" d="M519.07,378.68c-.12,0-.23-.02-.35-.07-.37-.15-37.4-15.45-48.23-17.6-10.44-2.07-18.94,5.55-19.03,5.63-.37.34-.94.31-1.28-.06-.34-.37-.31-.94.06-1.28.37-.34,9.25-8.32,20.61-6.07,11,2.18,47.04,17.07,48.57,17.7.46.19.68.72.49,1.19-.14.35-.48.56-.84.56Z"/>
      <path class="cls-13" d="M575.26,447.03c-5.95-13.31-16.39-25.2-26.21-35.72-1.6-1.71-4.16.86-2.57,2.57,9.63,10.33,19.8,21.92,25.64,34.99.95,2.13,4.08.28,3.14-1.83h0Z"/>
      <path class="cls-1" d="M831.59,448.45c3.69,4.52,3.37,11.1-.74,15.24-9.5,9.56-24.37,25.16-28.21,29.32-5.63,6.1-13.37,11.71-22.56,16.84h-.01s50.58-36.94,35.12-59.98c-10.77-16.04-7.6-36.41-4.69-47.3,2.12-7.92,3.73-15.97,4.94-24.09l2.97-19.93h0c.64,11.3,1.37,18.91,1.92,23.62.54,4.59.54,9.23.02,13.82l-.43,3.77c-1.39,14.48.88,29.09,6.6,42.47l5.07,6.21Z"/>
      <path class="cls-1" d="M701.65,429.03c-2.52,7.36-8.44,14.09-14.4,18.89-7.13,5.75-15.5,9.71-23.96,13.08-8.4,3.34-17.07,5.83-25.63,8.53-5.85,2.74-11.13,6.59-15.56,11.36-2.75,2.96-5.17,6.24-7.16,9.78-.87,1.55-1.66,3.14-2.36,4.78-.48,1.11-.81,2.36-1.25,3.53l2.14-11.57c2.18-4.87,1.78-8.65.3-12.38,13.4-7.61,29.17-10.95,43.75-15.41,8.97-2.75,17.66-6.16,25.38-11.56,3.62-2.54,6.94-5.45,9.92-8.71,3.11-3.4,5.08-6.89,7.27-10.91.45-.82,1.89-.34,1.57.59Z"/>
      <path class="cls-13" d="M792.63,501.84l.12,3.02c-52.44,55.9-158.9,54.9-159.89,54.89,3.29-2.74,5.79-5.75,7.64-8.93,40.35-6.83,102.02-19.97,139.57-40.96h.01c4.56-2.56,8.78-5.23,12.55-8.02Z"/>
      <path class="cls-13" d="M762.91,545.39c.09,2.69.19,5.38.28,8.07.13,3.89,6.19,3.9,6.06,0-.09-2.69-.19-5.38-.28-8.07-.13-3.89-6.19-3.9-6.06,0h0Z"/>
      <path class="cls-5" d="M635.91,556.91s103.25,51.54,160.63-1.99l3.64,30.08s-84.6,53.51-172.05-21.83l7.79-6.25Z"/>
      <path class="cls-8" d="M796.42,553.38s27.69,71.91-10.5,148.88c0,0,31.77-77.6,2.68-141.15l7.81-7.73Z"/>
      <path class="cls-8" d="M696.53,635.23l27.02,19.99c5.08,3.76,11.47,5.32,17.72,4.33l25.76-4.1-20.41,14.39c-5.89,4.15-8.85,11.34-7.59,18.43l6.5,36.6-26.93-62.85s-7.73-16.46-22.08-26.79Z"/>
      <path class="cls-8" d="M758.48,753.96c-.59,0-1.15-.34-1.39-.92l-43.34-100.84c-32.78-38.36-82.18-34.64-82.68-34.59-.84.08-1.57-.55-1.64-1.38-.07-.83.54-1.57,1.38-1.64.51-.04,51.57-3.94,85.39,35.82.1.12.18.24.24.38l43.43,101.05c.33.77-.02,1.66-.79,1.99-.19.08-.4.12-.6.12Z"/>
      <path class="cls-8" d="M720.34,660.6c-.58,0-1.14-.34-1.39-.9-10.87-24.64-25.32-33.73-25.47-33.82-.71-.44-.93-1.37-.5-2.08.44-.71,1.37-.94,2.08-.5.62.38,15.4,9.68,26.65,35.17.34.77,0,1.66-.77,2-.2.09-.41.13-.61.13Z"/>
      <path class="cls-8" d="M756.58,660.71c-.62,0-1.2-.38-1.42-1-.28-.79.13-1.65.91-1.94l20.91-7.5c.78-.28,1.65.13,1.94.91.28.79-.13,1.65-.91,1.94l-20.91,7.5c-.17.06-.34.09-.51.09Z"/>
      <path class="cls-12" d="M637.13,755.49c-.53,0-1.05-.28-1.32-.78-.36-.64-35.56-64.23-40.24-108.32-4.74-44.62,37.14-77.24,37.57-77.56.66-.51,1.61-.38,2.12.28.51.66.38,1.61-.28,2.12-.41.31-40.96,31.93-36.4,74.84,4.62,43.48,39.53,106.54,39.88,107.17.41.73.14,1.65-.58,2.06-.23.13-.49.19-.74.19Z"/>
      <path class="cls-12" d="M629.08,777.99c-.12,0-.24-.01-.37-.04-.81-.2-1.31-1.02-1.11-1.83.22-.88,5.5-21.69,21.54-41.44,14.85-18.28,42.04-38.82,87.27-32.84.83.11,1.41.87,1.3,1.7s-.87,1.41-1.7,1.3c-35.16-4.65-63.57,6-84.45,31.66-15.64,19.22-20.96,40.13-21.01,40.34-.17.69-.79,1.15-1.47,1.15Z"/>
      <path class="cls-8" d="M730.69,605.7c-20.29,0-38.15-4.59-52.24-10.07-31.22-12.14-51.19-31.18-51.39-31.37-.6-.58-.62-1.54-.04-2.14.58-.6,1.54-.62,2.14-.04.19.19,19.8,18.86,50.48,30.77,28.23,10.95,71.92,18.25,119.77-9.16.72-.41,1.65-.17,2.07.56.42.73.16,1.65-.56,2.07-25.04,14.35-48.97,19.39-70.23,19.39Z"/>
      <path class="cls-13" d="M682.82,854.28c-7.47-9.71-14.65-19.67-21.63-29.73-11.27-16.24-22.89-33.03-30.63-51.32-.91-2.15-4.04-.3-3.14,1.83,7.74,18.28,19.36,35.07,30.63,51.32,6.99,10.07,14.16,20.02,21.63,29.73,1.41,1.83,4.56.02,3.14-1.83h0Z"/>
      <path class="cls-3" d="M879.89,1162.55c1.55,4.42-3.97,10.38-12.33,13.32-8.36,2.94-16.4,1.74-17.95-2.68-1.55-4.42,3.97-10.38,12.33-13.32,8.36-2.94,16.4-1.74,17.95,2.68Z"/>
      <path class="cls-3" d="M949.38,1294.03s-19.21,11.95-53.15,7.15c-24.27-3.43-38.39-20.66-44.47-30.2-2.58-4.05-6.43-7.12-10.98-8.66-9.8-3.31-26.7-10.16-34.06-20.07-10.67-14.38-.36-27.42-.36-27.42,0,0,18.7,38.57,41.49,38.55,30.91-.02,34.7,34.37,63.33,38.08,28.63,3.71,27.68-1.1,27.68-1.1,0,0,8.92-19.45,16.93-10.53,2.47,8.76-6.42,14.2-6.42,14.2Z"/>
      <path class="cls-3" d="M821.81,1167.4c1.87,5.16,4.63,9.77,8.47,13.73,2.51,2.59,6.18,6.38,10.17,5.06,2.39-.79,2.35-2.71,5.85-.38,1.41.94,2.55,3.09,3.51,4.43,1.96,2.73,3.84,5.51,5.69,8.31,3.71,5.61,7.3,11.29,11.13,16.82,6.7,9.68,14.66,21.37,25.22,27.16,10.33,5.66,22.07-.53,28.61-9.19.93-1.23-.89-2.96-2.11-2.11-5.02,3.46-8.78,8.42-15.09,9.74-7.37,1.54-13.21-3.57-18.08-8.36-8.47-8.33-15.09-18.21-21.67-28.03-3.12-4.66-6.22-9.33-9.47-13.9-2.08-2.92-4.56-7.56-8.2-8.83-1.22-.42-2.36-.46-3.59-.07-.8.26-1.47,1.1-2.24,1.31-2.17.6-4.06-.61-5.64-1.84-4.87-3.81-8.48-8.88-11.14-14.43-.38-.79-1.72-.23-1.42.6h0Z"/>
      <path class="cls-3" d="M858.07,1196.68c6.02-.94,11.58-3.25,17.77-3.76,5.7-.47,11.13.5,16.78.58,1.66.03,1.9-2.33.38-2.82-5.86-1.9-12.9-1.45-18.93-.66-5.52.73-12.05,1.8-16.71,5.01-.87.6-.31,1.81.7,1.66h0Z"/>
      <path class="cls-3" d="M888.31,1180c-11.62,6-19.3,23.02-18.98,35.63.06,2.14,3.09,2.08,3.28,0,.62-6.92,1.66-13.13,4.94-19.36,3.09-5.87,7.61-9.87,12-14.66.79-.86-.2-2.15-1.24-1.61h0Z"/>
      <path class="cls-3" d="M896.67,1196.5c-4.78,3.76-7.75,10.67-9.87,16.23-2.3,6.03-4.47,13.62-3.63,20.14.19,1.43,2.48,2.12,2.8.38,1.19-6.4,1.38-12.65,3.5-18.91,2.09-6.19,6.01-11.19,8.49-17.08.34-.81-.78-1.16-1.3-.75h0Z"/>
      <path class="cls-3" d="M906.41,1214.06c-6.65,6.67-8.35,19.19-7.18,28.12.25,1.89,3.22,1.98,3.04,0-.46-5.02-.45-9.83.71-14.78,1.05-4.45,3.34-8.29,4.79-12.55.27-.79-.81-1.34-1.36-.79h0Z"/>
      <path class="cls-3" d="M873.6,1218.01c3.95-4.07,8.35-7.35,14.06-8.45,6.44-1.24,11.58.6,17.48,2.85,1.61.61,2.24-1.69,1.08-2.56-10.52-7.86-27.16-3.38-34.33,6.86-.71,1.02.86,2.18,1.7,1.31h0Z"/>
      <path class="cls-3" d="M885.29,1232.96c4.81-3.93,9.67-7.11,16.04-7.61,5.51-.43,9.94,1.41,14.96,3.28,1.55.58,2.18-1.64,1.04-2.48-9.89-7.33-26.38-3.86-33.59,5.62-.72.95.75,1.83,1.53,1.18h0Z"/>
      <path class="cls-10" d="M507.15,688.24s-14.77-3.69-25.56,36.15c0,0-16.25-8.19-32.66-8.26,0,0-5.29-26.82,8.9-27.26,14.19-.44,29.87-9.23,29.87-9.23l19.46,8.6Z"/>
      <path class="cls-15" d="M729.63,199.08c1.04-2.97,3.3-5.4,6.25-6.47,3.67-1.34,8.05-.57,8.36,10.41.54,19.1-11.24,32.47-18.72,29.32-6.02-2.53,1.1-24.7,4.1-33.26Z"/>
      <path class="cls-13" d="M732.5,222.75c-.29,0-.57-.1-.8-.3-.5-.44-.55-1.21-.1-1.71l2.42-2.72c.64-.72.77-1.78.33-2.63l-.71-1.38c-1.1-2.13-.44-4.76,1.55-6.12l2.27-1.56c.55-.38,1.31-.24,1.68.32.38.55.24,1.31-.32,1.68l-2.27,1.56c-.97.67-1.3,1.96-.76,3.01l.71,1.38c.89,1.74.62,3.89-.67,5.35l-2.42,2.72c-.24.27-.57.41-.91.41Z"/>
      <path class="cls-1" d="M80.65,175.82c-25.55,55.47,2.82,123.04,63.36,150.92,60.54,27.88,169.57,23.59,195.11-31.88,25.55-55.47-42.06-141.11-102.6-168.99s-130.33-5.52-155.88,49.95ZM325.93,288.78c-22.94,49.81-120.83,53.66-175.18,28.63-54.36-25.03-79.83-85.7-56.89-135.51,22.94-49.81,85.6-69.88,139.95-44.85,54.36,25.03,115.06,101.93,92.12,151.73Z"/>
      <path class="cls-1" d="M302.89,328.92s37.83-15.82,85.54.02l2.75-5.97s-34.22-13.01-67.37-7.72l-20.92,13.68Z"/>
      <path class="cls-11" d="M397.04,310.29l-4.27,9.27h-.02s-4.32,9.37-4.32,9.37l112.74,58.44c7.1-2.06,11.15-11.29,11.61-12.41h.02s5.18-9.82,1.94-16.99l-117.7-47.68Z"/>
      <path class="cls-1" d="M341.42,245.3s12.57,39.04,55.62,64.99l-2.75,5.97s-32.13-17.55-49.66-46.18l-3.21-24.79Z"/>
      <rect class="cls-5" x="53.77" y="190.32" width="120.68" height="1.82" transform="translate(-107.31 214.91) rotate(-65.28)"/>
      <rect class="cls-5" x="52.9" y="197.02" width="151.52" height="1.82" transform="translate(-104.93 232.04) rotate(-65.28)"/>
      <polygon class="cls-5" points="216.72 333.44 105.04 282 176.82 126.16 178.47 126.92 107.45 281.11 215.83 331.02 286.85 176.83 288.5 177.59 216.72 333.44"/>
      <rect class="cls-5" x="62.29" y="208.51" width="182.66" height="1.82" transform="translate(-100.85 261.38) rotate(-65.28)"/>
      <rect class="cls-5" x="68.62" y="213.05" width="190.41" height="1.82" transform="translate(-99.03 273.31) rotate(-65.28)"/>
      <rect class="cls-5" x="78.57" y="219.1" width="196.06" height="1.82" transform="translate(-97.1 288.42) rotate(-65.28)"/>
      <rect class="cls-5" x="88.35" y="224.12" width="198.34" height="1.82" transform="translate(-95.31 301.27) rotate(-65.28)"/>
      <rect class="cls-5" x="97.99" y="228.56" width="198.34" height="1.82" transform="translate(-93.74 312.6) rotate(-65.28)"/>
      <rect class="cls-5" x="110.88" y="233.98" width="196.06" height="1.82" transform="translate(-91.81 326.43) rotate(-65.28)"/>
      <rect class="cls-5" x="124.57" y="239.37" width="191.54" height="1.82" transform="translate(-90.07 339.94) rotate(-65.28)"/>
      <rect class="cls-5" x="137.22" y="243.9" width="186.5" height="1.82" transform="translate(-88.29 351.78) rotate(-65.28)"/>
      <rect class="cls-5" x="151.2" y="248.57" width="179.96" height="1.82" transform="translate(-86.29 364.24) rotate(-65.28)"/>
      <rect class="cls-5" x="201.66" y="264.35" width="146.42" height="1.82" transform="translate(-81.03 404.01) rotate(-65.28)"/>
      <rect class="cls-5" x="230.87" y="272.16" width="121.91" height="1.82" transform="translate(-78.26 423.95) rotate(-65.28)"/>
      <rect class="cls-5" x="252.12" y="277.02" width="101.46" height="1.82" transform="translate(-76.26 436.81) rotate(-65.28)"/>
      <rect class="cls-5" x="171.26" y="207.26" width="1.82" height="174.48" transform="translate(-167.35 327.69) rotate(-65.27)"/>
      <rect class="cls-5" x="179.53" y="181.98" width="1.82" height="204.16" transform="translate(-153.05 329.13) rotate(-65.27)"/>
      <rect class="cls-5" x="206.36" y="113.29" width="1.82" height="255.5" transform="translate(-98.37 328.47) rotate(-65.27)"/>
      <polygon class="cls-5" points="230.67 332.86 229.02 332.1 295.27 188.26 165.99 128.72 166.75 127.07 297.68 187.37 230.67 332.86"/>
      <polygon class="cls-5" points="255.18 330.98 253.53 330.22 309.98 207.65 148.53 133.29 149.29 131.64 312.39 206.76 255.18 330.98"/>
      <rect class="cls-5" x="226.47" y="79.28" width="1.82" height="207.59" transform="translate(-34.03 313.02) rotate(-65.27)"/>
      <rect class="cls-5" x="186.97" y="161.17" width="1.82" height="225.16" transform="translate(-139.36 329.89) rotate(-65.27)"/>
      <rect class="cls-5" x="223.87" y="81.06" width="1.82" height="225.16" transform="translate(-45.13 316.8) rotate(-65.27)"/>
      <rect class="cls-5" x="202.12" y="123.1" width="1.82" height="251.94" transform="translate(-108.13 329.29) rotate(-65.27)"/>
      <rect class="cls-5" x="210.53" y="104.34" width="1.82" height="255.43" transform="translate(-87.78 327.04) rotate(-65.27)"/>
      <rect class="cls-5" x="196.16" y="137.43" width="1.82" height="244.13" transform="translate(-121.07 329.95) rotate(-65.27)"/>
      <rect class="cls-5" x="191.93" y="148.11" width="1.82" height="236.37" transform="translate(-129.71 330.06) rotate(-65.27)"/>
      <rect class="cls-5" x="214.95" y="95.22" width="1.82" height="251.94" transform="translate(-75.34 324.73) rotate(-65.27)"/>
      <rect class="cls-5" x="219.01" y="87.83" width="1.82" height="244.13" transform="translate(-62.72 321.84) rotate(-65.27)"/>
      <rect class="cls-5" x="221.81" y="83.54" width="1.82" height="234.89" transform="translate(-53.01 319.2) rotate(-65.27)"/>
      <path class="cls-15" d="M779.01,360.79l-139.78,34-14.22,3.46c-.06.01-.11.03-.17.04l-15.85,3.86c-8.53,2.07-17.49,1.59-25.74-1.4l-111.35-40.26c-4.43-1.6-9.33-1.25-13.49.97-5.97,3.19-13.41,8.27-18.23,12.01-7.49,5.8-14.05.43-14.05.43-9.61,2.2-11.18-6.83-11.18-6.83-9.54,4.02-12.19-5.5-12.19-5.5-13-10.22,1.12-24.35,10.05-31.46,3.64-2.9,8.4-3.97,12.93-2.94l55.31,10.6c47.88,3.31,86.83,9.09,107.68,12.63,11.01,1.86,22.32.28,32.41-4.51,12.03-5.71,29.51-14,47.48-22.51,29.92-14.14,61.2-28.87,70.88-33.16,20.2-8.96,37.11-4.44,37.11-4.44,63.28,36.62,2.42,74.98,2.42,74.98Z"/>
      <path class="cls-13" d="M779.01,360.79l-139.78,34c23.63-6.39,44.85-15.15,57.52-20.86,7.87-3.55,16.59-11.74,12.23-19.18-8.95-15.26-30.16-28.48-30.16-28.48l-10.21-2.86c29.92-14.14,61.2-28.87,70.88-33.16,20.2-8.96,37.11-4.44,37.11-4.44,63.28,36.62,2.42,74.98,2.42,74.98Z"/>
      <path class="cls-13" d="M402.75,362.81c-.1,0-.2-.01-.31-.04-.65-.17-1.04-.83-.87-1.48,3.35-12.86,18.05-25.2,18.67-25.72.52-.43,1.28-.36,1.7.16.43.51.36,1.28-.16,1.71-.15.12-14.72,12.37-17.88,24.47-.14.55-.63.91-1.17.91Z"/>
      <path class="cls-13" d="M415.25,368.6c-.12,0-.24-.02-.35-.05-.64-.2-1-.87-.8-1.51,3.82-12.49,16.48-22.54,17.01-22.96.53-.41,1.29-.32,1.7.2.41.53.32,1.29-.2,1.7-.12.1-12.6,10.01-16.19,21.76-.16.52-.64.86-1.16.86Z"/>
      <path class="cls-13" d="M427.04,375.4c-.39,0-.78-.19-1.01-.54-4.35-6.6,10.94-20.84,14.05-23.63.5-.45,1.26-.4,1.71.09.45.5.41,1.26-.09,1.71-6.6,5.91-16.14,16.71-13.64,20.49.37.56.21,1.31-.35,1.68-.21.14-.44.2-.66.2Z"/>
      <path class="cls-4" d="M816.59,351.08s12.99-104.22-76.18-73l-80.73,45.75s62.78-9.25,68.27,78.09l88.64-50.84Z"/>
      <path class="cls-16" d="M728.25,403.62c-.59,0-1.15-.34-1.39-.92-.33-.77.03-1.66.8-1.99.42-.18,42.14-18.22,71.32-44.61.31-.28.72-.42,1.14-.39.42.03.8.24,1.06.57.73.92,6.47,9.73-17.24,33.99-.58.6-1.54.61-2.14.02-.6-.58-.61-1.54-.02-2.14,15.98-16.35,17.7-24.83,17.46-28.22-29.44,25.87-69.96,43.38-70.37,43.56-.19.08-.4.12-.59.12Z"/>
      <path class="cls-13" d="M594.51,383.73c2.38-1.19,4.54-2.78,6.93-3.97,2.39-1.19,4.97-1.9,7.36-3.07,1.19-.58.28-2.16-.83-1.98-4.86.77-11.15,4.07-14.58,7.56-.76.78.2,1.92,1.13,1.46h0Z"/>
      <path class="cls-13" d="M587.99,393.49c2.06,3.48,6.09,7.43,10.36,7.73,1.12.08,1.35-1.44.53-1.97-1.51-.99-3.25-1.59-4.75-2.65-1.63-1.14-3.05-2.62-4.23-4.22-.83-1.12-2.66-.14-1.91,1.12h0Z"/>
      <path class="cls-16" d="M727.95,403.44c-.79,0-1.45-.61-1.51-1.41-2.02-30.45-12.76-53.43-31.08-66.48-13.84-9.86-27.28-10.67-27.42-10.67-.83-.04-1.48-.75-1.43-1.59.04-.83.73-1.48,1.59-1.43.58.03,14.33.83,28.88,11.13,13.36,9.46,29.85,29.09,32.48,68.84.05.83-.58,1.56-1.41,1.61-.03,0-.07,0-.1,0Z"/>
      <path class="cls-16" d="M665.77,324.96c-.51,0-1.01-.26-1.29-.73-.43-.71-.21-1.65.51-2.08l74.64-45.37c.71-.43,1.64-.21,2.08.51.43.71.21,1.65-.51,2.08l-74.64,45.37c-.25.15-.52.22-.79.22Z"/>
      <path class="cls-13" d="M658.1,248.38c5.57.41,19.36.73,32.84-4.4,1.12-.42,2.24.58,1.92,1.73-1.53,5.47-6.02,17.16-16.69,17.78-10.56.61-16.96-8.51-19.44-12.97-.56-1,.22-2.22,1.37-2.14Z"/>
      <path class="cls-7" d="M657.26,251.45s18.89,5.07,35.31-4.74l.35-1.38c.25-1-.71-1.87-1.68-1.53-5.28,1.87-19,6.02-33.31,4.63-1.02-.1-1.75.96-1.27,1.87l.6,1.15Z"/>
      <path class="cls-13" d="M663.42,214.6c1.44,2.86,1.66,5.96.92,9.06-.36,1.49-.96,2.89-1.79,4.18-.84,1.3-2.03,2.26-2.92,3.51-2.18,3.05.34,6.11,2.75,8.01,2.36,1.86,5.89,3.82,9,3.71,1.44-.05,1.67-2.01.33-2.47-1.55-.53-3.14-.72-4.64-1.44-1.35-.64-2.62-1.46-3.73-2.46-1.17-1.06-2.59-2.49-1.4-4.04.85-1.11,1.9-2.01,2.67-3.21,3.01-4.7,3.09-10.96.53-15.87-.6-1.14-2.3-.14-1.72,1.01h0Z"/>
      <path class="cls-13" d="M678.8,231.42c.26.39.56.75.77,1.17.18.36.26.78.34,1.17.17.81.16,1.68-.05,2.47-.18.71-.57,1.47-1,2.01-.24.3-.58.62-.83.82-.43.34-1.12.62-1.22,1.29-.11.68.17,1.23.83,1.47.79.29,1.47-.31,2.03-.78.44-.37.82-.82,1.17-1.28.66-.87,1.14-1.89,1.35-2.97.23-1.15.21-2.34-.11-3.47-.3-1.06-.91-2.34-1.71-3.12-.79-.77-2.21.24-1.57,1.21h0Z"/>
      <path class="cls-13" d="M672.06,237.47s.11-.03.13-.06c-.06.07-.16.06,0,0,.09-.03.19-.06.28-.09.11-.03.21-.06.32-.08.05,0,.1-.02.14-.03.15-.03-.02-.02-.06,0,.11-.08.49-.01.62,0,.02,0,.18,0,.18.02,0,0-.25-.04-.07,0,.11.02.22.04.32.07.2.05.4.12.6.2.15.06-.04,0-.08-.03.04.03.09.04.13.06.1.05.2.1.29.15.18.1.35.23.53.34-.04-.02-.21-.17-.08-.06.04.03.07.06.11.1.09.08.18.17.26.26.46.49,1.35.5,1.81,0,.45-.49.53-1.33,0-1.81-.93-.83-2.03-1.3-3.27-1.4-.23-.02-.46-.03-.7-.02-.12,0-.25.02-.37.03-.1.01-.52.07-.29.04.08-.01.09-.01.03,0-.1.01-.21.03-.31.04-.55.08-1.07.27-1.57.51-.48.24-.65.95-.37,1.39.32.5.88.61,1.39.37h0Z"/>
      <path class="cls-16" d="M650.5,306.18c-4.7,5.43,2.7,10.93,7.56,12.12,8.79,2.17,18.16.5,25.93-3.99,1.65-.95.18-3.44-1.49-2.54-4.96,2.67-10.22,4.38-15.87,4.63-6.13.28-16.91-.86-15.12-9.63.11-.55-.59-1.09-1.02-.59h0Z"/>
      <path class="cls-6" d="M703.11,119.63c3.04,1.08,5.25,2.22,6.46,2.91-2.11-1.07-4.35-2.05-6.74-2.95l.28.04Z"/>
      <path class="cls-6" d="M974.72,101.64c-.78,3.25-35.44,143.36-181.17,49.07-24.14-15.62-45.19-20.84-63.01-20.17l-.19-.12-.17-8.7s46.13-23.58,99.71,28.22c53.56,51.78,122.6,14.22,144.84-48.3Z"/>
      <path class="cls-3" d="M702.84,119.6s13.03,3.71,21.15,14.43c0,0,8.03,1.32,13.61-3.44,0,0-4.8-13.82-23.97-21.84-3.29-1.38-7.15-.62-9.58,1.99-1.96,2.1-3.27,5.08-1.22,8.85Z"/>
      <path class="cls-6" d="M728.11,151.35c-2.82-6.27-6.57-12.41-11.64-17.11-.93-.86-2.57.4-1.76,1.47,4.21,5.53,8.17,11.04,10.85,17.5,1.22,2.94,2.21,5.97,2.97,9.06.83,3.41,1.05,6.94,1.89,10.33.41,1.65,2.6.95,2.72-.48.56-6.83-2.28-14.65-5.03-20.77Z"/>
      <path class="cls-6" d="M685.96,165.83c-4.59-5-9.55-9.49-13.78-14.85-4.07-5.15-7.34-10.75-10.91-16.24-.58-.89-2.2-.23-1.75.82,2.63,6.22,6.6,11.95,10.73,17.26,4.08,5.25,8.72,10.8,14.15,14.7,1.19.86,2.59-.58,1.57-1.7Z"/>
      <path class="cls-6" d="M713.33,180.23c-6.51-5.65-13.17-11.04-19.48-16.93-6.29-5.87-12.33-12.02-18.05-18.45-.97-1.1-2.46.57-1.53,1.66,11.11,13.02,23.64,25.76,37.93,35.32.94.63,1.97-.87,1.14-1.6Z"/>
    </g>
  </g>
</svg>