<?xml version="1.0" encoding="UTF-8"?>
<svg id="people" xmlns="http://www.w3.org/2000/svg" viewBox="0 0 1046 1378">
  <defs>
    <style>
      .cls-1 {
        fill: #3f3f3f;
      }

      .cls-2 {
        fill: #ffb44f;
      }

      .cls-3 {
        fill: #1e2127;
      }

      .cls-4 {
        fill: #8e8e8e;
      }

      .cls-5 {
        fill: #b96241;
      }

      .cls-6 {
        fill: #b0b0b0;
      }

      .cls-7 {
        fill: #130903;
      }

      .cls-8 {
        fill: #fff;
      }

      .cls-9 {
        fill: #ffc543;
      }

      .cls-10 {
        fill: #7f351f;
      }

      .cls-11 {
        fill: #ea9e06;
      }

      .cls-12 {
        fill: #472912;
      }

      .cls-13 {
        fill: #f2f2f2;
      }

      .cls-14 {
        fill: #3c3c4c;
      }

      .cls-15 {
        fill: #2e353d;
      }
    </style>
  </defs>
  <g id="_9" data-name="9">
    <path class="cls-7" d="M544.56,845.27s95.5,33.5,111.37,1.75c0,0-59.71-40.75-111.37-1.75Z"/>
    <path class="cls-5" d="M387.81,627.67s-25.76,107.07,43.28,275.87c3.49,8.53,4.66,17.85,3.27,26.97-4.28,28.22-5.28,104.99,45.71,227.93l-12.82,80.6s-3.1,41.18,20.15,54.96c23.25,13.78,51.05-21.86,42.74-72.67-4.94-30.2-2.06-45.64,1.08-53.2,2.14-5.16,3.01-5.52.14-10.31l-7.33-3.66-4.27-105.03-6.93-83.22c-1.14-13.66-.74-27.4,1.15-40.97,9.9-70.84,32.65-314.46-126.18-297.29Z"/>
    <path class="cls-5" d="M596.79,1225.42l-1.92,7.9s8.3,6.89,5.81,24.98c-2.49,18.08,14.95,44.78,14.95,44.78,0,0,13.8,7.8,14.68,30.2.35,8.74-5.77,16.42-14.39,17.95-11.05,1.96-30.46,1.13-63.93-9.91-2.24-.74-3.92-2.61-4.41-4.92h0c-.49-2.28-2.49-3.92-4.81-3.93-5.89-.04-16.12-1.06-14.32-7.87,2.49-9.47,10.8-33.59,10.8-33.59,0,0-5.72-27.44,3.41-41.03.71-1.05,1.5-2.02,2.4-2.89.15-.15.31-.31.46-.47.31-.33.61-.68.9-1.06h0c3.76-4.83,6.53-13.46,8.54-22.83,4.28-19.9,4.51-40.45,1.07-60.51-5.54-32.32-13.64-97.94-1.61-157.37,2.82-13.93,1.96-28.35-2.67-41.79-6.51-18.89-13.57-49.43-7.54-82.82,9.96-55.11-37.28-166.12-37.28-166.12,0,0-5.25-128.04,129.77-126.49,0,0,29.33,126.34-3.65,274.17-2.85,12.76-4.08,25.84-3.71,38.91l1.53,54c.17,5.87.76,11.72,1.75,17.51,3.71,21.56,10.27,96.8-35.84,253.18Z"/>
    <path class="cls-15" d="M630.33,1337.25c-.16,5.84-3.93,10.99-9.5,12.77-9.9,3.17-30.08,4.21-69.89-9.06-1.59-.53-2.78-1.86-3.13-3.49-.31-1.44-1.09-2.68-2.17-3.57-1.07-.89-2.44-1.42-3.91-1.46-5.97-.15-14.99-1.43-13.29-7.85,1.33-5.07,4.33-14.32,6.83-21.84,2.17-6.53,3.97-11.75,3.97-11.75,0,0-5.72-27.44,3.41-41.03l2.86-3.36.9-1.06h0s10.26,2.21,19.91-6.83c.38-.35.76-.72,1.14-1.11.76-.79,1.56-1.48,2.4-2.09.45-.33.91-.63,1.38-.91,10.04-6,23.62-1.31,23.62-1.31,0,0,.17.14.45.43.3.31.72.78,1.2,1.44,2.28,3.11,5.92,10.3,4.16,23.1-1.89,13.67,7.63,32.28,12.38,40.53.26.45.53.88.81,1.31.14.21.28.41.43.61.79,1.14,1.7,2.2,2.71,3.16t.01.01c.32.32.66.62,1,.91,3.79,3.21,10.88,11.11,12.15,26.02.17,2.01.23,4.15.17,6.41Z"/>
    <path class="cls-12" d="M662.32,769.3c-.04,1.08-.09,2.17-.13,3.26-.96,22.66-2.96,47.43-6.25,74.46,0,0-57.31-34.15-109.19-3.1-.73.43-1.45.89-2.18,1.34l-12.43-48.69-3.14-12.32-2.04-7.99s0-.02,0-.02l-5.31-20.77-.21-.82v131.35s-30.06,46.81-100.89,5.89c0,0-7.91-20.52-16.9-51.8-.32-1.09-.63-2.19-.95-3.31-4.84-17.09-9.92-37.15-14.21-58.69-.22-1.11-.44-2.21-.65-3.32-2.3-11.82-4.34-24.07-5.96-36.49-.12-.86-.23-1.72-.34-2.58-5.44-43.26-5.69-88.49,6.28-125.61v-56.99h232.99s25.27,27.44,36.66,105.41c.12.84.24,1.69.36,2.55,1.25,8.91,2.32,18.46,3.15,28.69.09,1.06.18,2.13.26,3.21,1.67,22.22,2.22,47.55,1.1,76.34Z"/>
    <path class="cls-7" d="M637.68,821.83c-2.22-2.86-6.45-4.54-9.76-5.77-3.96-1.46-7.99-2.91-12.03-4.12-8.48-2.55-16.69-3.32-25.48-2.35-4.88.54-9.69.41-14.57.69-4.21.24-8.34,1.16-12.36,2.39-4.89,1.49-11.53,3.08-16.27,6.36.35-6.97,1.29-13.95,1.42-20.88.18-10.07-1.48-19.27-6.63-28.01-2.46-4.18-5.64-7.94-7.98-12.18-2.41-4.37-1.97-8.02-.98-12.51,2.79-2.02,5.78-3.76,9.04-5.07,7.8-3.14,15.87-3.33,24.04-4.59.85-.13.85-1.59,0-1.72-14.62-2.14-28.72,2.63-39.42,12.07,1.89-2.52,4.09-4.81,6.42-6.92,5.8-5.28,12.48-9.6,19.38-13.29,12.99-6.97,26.87-11.55,41.62-12.37.94-.05,1.25-1.5.23-1.73-4.71-1.03-9.97-.16-14.61.87-6.2,1.37-12.23,3.51-18.05,6.01-11.79,5.06-23.45,11.82-32.44,21.09-1.81,1.87-3.5,3.87-4.98,6.01-.26-1.29-.59-2.58-.83-3.88-.55-2.97-.98-5.98-1.35-8.98-.55-4.48-1.03-8.98-1.34-13.49,12.35,1.04,16.15-14.98,17.65-24.47.92-5.86,1.47-11.85,1.54-17.78.14-11.47-2.6-22.67-4.32-33.94-1.81-11.8-2.77-23.87-7.74-34.88-.65-1.45-2.72-.19-2.11,1.23,3.93,9.32,4.84,19.49,6.04,29.42,1.23,10.28,3.66,20.41,4.51,30.74.97,11.8.13,25.34-3.96,36.53-1.97,5.37-5.46,10.77-11.77,10.49-.6-11.44-.12-22.89-.31-34.34-.18-11-1.14-21.98-2.63-32.87-.71-5.19-1.72-10.26-3.4-15.24-.7-2.07-1.45-4.13-2.41-6.09-1.33-2.75-2.99-5.28-3.29-8.4-.09-.93-1.35-.93-1.45,0-.49,4.71,2.67,8.77,4.21,13.02,1.76,4.87,2.97,9.9,3.68,15.03,1.65,11.84,2.59,23.8,2.67,35.76.08,11.66-.45,23.34.26,35,.34,5.51.93,11.03,1.64,16.5.57,4.41.81,9.68,2.71,13.78-.34.59-.64,1.2-.9,1.82-1.62-.94-3.86-1.4-5.23-1.7-1.63-.36-3.31-.68-4.98-.79-3.52-.24-6.59,1.44-10.02,1.68-.91.06-.92,1.37,0,1.42,4.02.22,8.02-.54,11.97.35,1.58.35,5.42.93,6.87,2.41.13.73.75,1.34,1.45,1.35.04,0,.09,0,.13-.01.08,0,.17,0,.25,0,.3,1.51.99,3,1.51,4.35,1.39,3.55,1.81,7.13,2.46,10.86.32,1.86.73,3.71,1.15,5.55,0,0,0,.02,0,.02.4,2.76,1.04,5.5,2.04,7.99.01.03.02.07.04.1,1.1,4.06,2.22,8.12,3.11,12.22l12.43,48.69c.73-.46,1.45-.91,2.18-1.34.02-.35.04-.71.05-1.06,1.96-3.97,1.08-8.18.63-12.39-.27-2.49-.35-4.99-.33-7.49,5.51-3.79,12.44-5.53,18.82-7.34,8.3-2.36,17.1-2.39,25.63-3.41,8.14-.97,15.81-.12,23.66,2.2,3.6,1.06,7.1,2.42,10.67,3.56,2.03.65,4.18,1.24,6.14,2.09,1.73.75,3.18,1.94,4.82,2.83.74.4,1.31-.5.85-1.1Z"/>
    <path class="cls-5" d="M490.54,271.33c-63.01-.76-69.37-68.29-69.37-68.29,19.2-6.83,18.42-24.76,16.33-34.62,0,0,0-.02,0-.02-.86-4.04-1.93-6.72-1.93-6.72l93.05-14.42c-1.91,8.51-2.61,15.46-2.45,21.13.79,29.38,24.68,24.44,24.68,24.44,0,0,2.71,79.26-60.29,78.5Z"/>
    <path class="cls-10" d="M526.16,168.38h0s-11.89,44.79-40.17,44.56c-27.85-.22-47.86-43.18-48.48-44.53,0,0,0-.02,0-.02-.86-4.04-1.93-6.72-1.93-6.72l93.05-14.42c-1.91,8.51-2.61,15.46-2.45,21.13Z"/>
    <path class="cls-9" d="M677.81,470.06l-43.64,20.25-8.27,3.83s-5.78,13.18,6.6,29.81c9.38,12.61,9.65,43,9.23,56.97-.14,4.46-.34,7.25-.34,7.25,0,0-43.72-9.41-138.16,40.36-94.45,49.78-126.96-2.41-128.51-36.93-1.27-28.33,9.97-40.44,6.78-52.75-.7-2.69-2.09-5.39-4.45-8.27-4.42-5.4-5.06-14.39-3.96-23.97,2.16-18.91,8.67-40.04,8.67-40.04-44.34,43.02-69.64,69.62-103.81,21.98-20.15-28.09-15.88-44.58-7.94-102.59,6.84-49.97,18.26-72.54,44.58-121.52,9.35-17.41,27.09-31.28,46.05-41.94.65-.37,1.3-.73,1.95-1.09,21.66-11.86,44.61-19.58,58.34-23.61,7.75-2.27,12.58-3.36,12.58-3.36,3.95,49.11,43,70.41,54.04,75.48,1.86.85,3.99.78,5.8-.17,33.81-17.67,57.48-76.95,57.48-76.95,5.15-.96,10.14-1.71,14.95-2.25,9.39-1.05,18.15-1.31,26.3-.9.98.04,1.96.1,2.93.17,71.2,4.98,84.31,63.23,93.53,81.48,12.57,24.89,23.56,51.76,23.56,51.76,43.35,75.47-34.31,146.97-34.31,146.97Z"/>
    <path class="cls-11" d="M641.73,580.93c-.56-7.82-1.39-15.63-3.38-23.23-2.72-10.39-8.15-18.67-14.66-27.06-5.89-7.6-11-15.45-14.42-24.49-3.41-9.01-5.1-25.9-5.03-35.53,0-1.33,1.54-1.64,2.3-.96,5.75-5.43,14.61.82,21.21,5.9,3,2.31,5.23,5.66,6.05,9.38.39,1.79.46,3.58.37,5.37l-8.27,3.83s-5.78,13.18,6.6,29.81c9.38,12.61,9.65,43,9.23,56.97Z"/>
    <path class="cls-12" d="M574.72,107.13c0-6.53-5.29-11.82-11.82-11.82-.79,0-1.57.08-2.32.23.41-1.47.63-3.02.63-4.62,0-9.51-7.71-17.23-17.23-17.23-1.64,0-3.22.23-4.72.66-11.4-12.97-31.65-21.6-54.73-21.6-26.77,0-49.73,11.61-59.5,28.14-2.33-1.14-4.95-1.79-7.73-1.79-9.26,0-16.83,7.16-17.51,16.24-8.69.5-15.59,7.7-15.59,16.52,0,5.59,2.78,10.53,7.02,13.53-.6,1.24-.94,2.61-.94,4.04,0,3.95,2.54,7.39,6.29,9.17-.57,1.91-.89,3.93-.89,6.03,0,11.57,9.38,20.94,20.94,20.94,2.37,0,4.64-.4,6.76-1.12,0,.04,0,.07,0,.11,0,3.92,3.18,7.09,7.09,7.09,2.79,0,5.19-1.61,6.35-3.95,10.98,5.45,24.56,8.68,39.25,8.68,16.65,0,31.86-4.14,43.49-10.97.95,3.58,4.55,6.24,8.87,6.24,5.04,0,9.12-3.63,9.12-8.11,0-.71-.11-1.39-.3-2.04.1,0,.2.01.3.01,7.09,0,12.84-5.44,12.84-12.16,0-.72-.08-1.42-.2-2.1,11.09-.85,19.8-9.41,19.8-19.85,0-3.38-.92-6.57-2.53-9.36,4.26-1.79,7.26-6,7.26-10.91Z"/>
    <path class="cls-5" d="M479.62,197.42h0c-28,0-50.71-36.35-50.71-64.13V61.87c0-27.78,22.7-50.3,50.71-50.3h0c28,0,50.71,22.52,50.71,50.3v71.42c0,27.78-22.7,64.13-50.71,64.13Z"/>
    <path class="cls-5" d="M529.71,97.17s7.74-14.67,17.03-5.04c9.29,9.63-1.55,43.35-17.03,43.75,0,0-8.52-22.43,0-38.71Z"/>
    <path class="cls-12" d="M468.77,110.05c-.35,0-.7-.15-.94-.44-2.83-3.38-6.19-5.26-10.01-5.58-8.02-.69-15.49,5.66-15.57,5.72-.51.44-1.28.38-1.72-.13-.44-.51-.38-1.28.13-1.72.34-.29,8.33-7.05,17.36-6.3,4.49.37,8.42,2.54,11.68,6.45.43.52.36,1.29-.15,1.72-.23.19-.51.28-.78.28Z"/>
    <path class="cls-10" d="M471.21,140.98c-.19,0-.38-.04-.56-.14-3.49-1.81-5.39-4.09-5.65-6.79-.46-4.74,4.47-8.73,4.68-8.9.53-.42,1.29-.33,1.71.19.42.53.34,1.3-.19,1.72-.04.03-4.11,3.34-3.77,6.76.18,1.82,1.64,3.45,4.35,4.85.6.31.83,1.05.52,1.65-.22.42-.64.66-1.08.66Z"/>
    <path class="cls-10" d="M476.63,138.57c-.49,0-.95-.3-1.14-.78-1.1-2.85-3-2.51-3.22-2.46-.65.15-1.31-.26-1.46-.9-.16-.65.22-1.3.87-1.47,1.43-.38,4.56-.03,6.09,3.95.24.63-.07,1.34-.7,1.58-.14.06-.29.08-.44.08Z"/>
    <path class="cls-8" d="M495.98,150.4c-.18.92-.48,2.17-.92,3.59-1.84,5.9-6.32,14.64-16.58,14.39,0,0-13.17.35-16.92-14.23-.29-1.15-.53-2.38-.7-3.72-.1-.78.63-1.41,1.39-1.2,4.06,1.12,15.82,3.54,32.41-.12.78-.17,1.48.51,1.32,1.29Z"/>
    <path class="cls-10" d="M495.06,153.99c-1.84,5.9-6.32,14.64-16.58,14.39,0,0-13.17.35-16.92-14.23.21-.09.45-.1.69-.04,4.06,1.12,15.82,3.54,32.41-.12.13-.03.27-.04.4,0Z"/>
    <path class="cls-2" d="M424.27,86.63s54.06-59.41,109.86,0c0,0,18.64-75.38-57.99-78.63,0,0-71.22,8.79-51.87,78.63Z"/>
    <path class="cls-1" d="M346.89,413.03c-21.45,0-40.67-4.51-41.01-4.59l.14-.59c.59.14,58.87,13.8,85.54-6.74l.37.48c-11.54,8.89-28.92,11.44-45.05,11.44Z"/>
    <path class="cls-11" d="M637.62,432.4l-15.88,8.55-7.75-55.4c-.73-5.19-3.1-14.31-4.15-22.01-3.83-10.58-7.24-21.32-10.28-32.14-6.75-24.04-11.4-49-12.76-74.06-.02-.4-.06-.81-.08-1.22,0-.06,0-.12,0-.17-1.1-22.22.4-44.5,5.37-66.26.98.04,1.96.1,2.93.17-2.76,12.61-4.49,25.4-5.19,38.29-.68,12.62-.38,25.13.71,37.54.93,5.41,1.94,10.8,3.28,16.16,1.11,4.42,2.35,8.81,3.71,13.16,1.77,3.52,3.35,7.18,5.06,10.68,2.4,4.95,4.84,9.89,7.32,14.79,2.85,5.62,5.8,11.18,8.76,16.74l22.72,37.24s9.05,23.14-3.77,57.94Z"/>
    <path class="cls-12" d="M434.36,94.51c.9.63,2.08.66,3.09.23,3.02-1.3,5.29-3.83,28.56-3.86,17.07-.02-.49-15.15-19.22-8.2-14.64,5.43-14.77,10.19-12.43,11.84Z"/>
    <path class="cls-10" d="M531.84,122.73c-.38,0-.76-.14-1.06-.43-.61-.58-.63-1.55-.04-2.16l3.47-3.61c.96-1,1.21-2.51.62-3.76l-.9-1.94c-1.36-2.93-.33-6.44,2.41-8.16l3.21-2.02c.71-.45,1.66-.23,2.1.48.45.71.23,1.66-.48,2.1l-3.21,2.02c-1.44.9-1.98,2.74-1.26,4.28l.9,1.94c1.11,2.39.63,5.27-1.19,7.16l-3.47,3.61c-.3.31-.7.47-1.1.47Z"/>
    <path class="cls-5" d="M429.77,99.61s-7.74-14.67-17.03-5.04c-9.29,9.63,1.55,43.35,17.03,43.75,0,0,8.52-22.43,0-38.71Z"/>
    <path class="cls-10" d="M427.64,125.17c-.4,0-.8-.16-1.1-.47l-3.47-3.61c-1.82-1.9-2.3-4.78-1.19-7.16l.9-1.94c.72-1.54.17-3.38-1.26-4.28l-3.22-2.02c-.71-.45-.93-1.39-.48-2.1.45-.71,1.39-.93,2.1-.48l3.21,2.02c2.74,1.72,3.77,5.22,2.41,8.15l-.9,1.94c-.58,1.25-.33,2.76.63,3.76l3.47,3.61c.58.61.56,1.57-.04,2.16-.3.28-.68.43-1.06.43Z"/>
    <path class="cls-15" d="M462.36,1265.17c0,18.61,14.07,49.39,52.54,37.94,38.18-11.36,17.37-100.86,17.03-102.33v-.02s4.27-19.62,6.13-32.99h0c.33-2.38.58-4.55.72-6.38.48-6.09-3.83-11.45-8.26-15.3-2.98-2.59-5.48-5.61-7.37-8.96-.11.82-4.76,35.18-44.29,20.6-.03,1.03-.09,2.06-.18,3.09l-1.81,19.96-.45,4.94s-4.99,21.61-9.04,43.01c-.05.28-.1.56-.15.84-.01.05-.02.11-.03.16-.25,1.34-.5,2.68-.74,4.01,0,.02,0,.04,0,.06-2.31,12.71-4.09,24.72-4.09,31.36Z"/>
    <path class="cls-6" d="M462.36,1265.17c0,18.61,14.07,49.39,52.54,37.94,38.18-11.36,17.37-100.86,17.03-102.33v-.02s3.68,47.84,0,61.89c-3.68,14.05-5.29,35.89-34.38,37.92-29.34,2.05-35.22-40.01-31.09-66.76-2.31,12.71-4.09,24.72-4.09,31.36Z"/>
    <path class="cls-12" d="M460.22,107.53c0,2.53-1.64,4.58-3.66,4.58s-3.66-2.05-3.66-4.58,1.64-4.58,3.66-4.58,3.66,2.05,3.66,4.58Z"/>
    <path class="cls-10" d="M471.88,105.84c.9,2.39,1.33,4.94,1.29,7.49-.02,1.23-.14,2.46-.4,3.66-.28,1.29-.84,2.49-1.12,3.76-.21.94.98,1.41,1.51.64.76-1.1,1.11-2.62,1.38-3.91.28-1.36.44-2.76.44-4.15-.02-2.8-.67-5.49-1.87-8.01-.33-.69-1.51-.2-1.24.52h0Z"/>
    <path class="cls-12" d="M490.15,110.05c-.28,0-.55-.09-.78-.28-.52-.43-.59-1.2-.15-1.72,3.26-3.9,7.19-6.07,11.68-6.45,9.03-.74,17.03,6.01,17.36,6.3.51.44.57,1.21.13,1.72-.44.51-1.21.57-1.72.13-.08-.06-7.59-6.4-15.58-5.72-3.81.32-7.17,2.2-10,5.58-.24.29-.59.44-.94.44Z"/>
    <path class="cls-10" d="M487.71,140.98c-.44,0-.87-.24-1.09-.66-.31-.6-.08-1.34.52-1.65,2.7-1.4,4.17-3.03,4.35-4.85.34-3.41-3.73-6.73-3.77-6.76-.53-.42-.61-1.19-.19-1.72.42-.53,1.19-.61,1.71-.19.21.17,5.14,4.16,4.68,8.9-.26,2.7-2.17,4.98-5.65,6.79-.18.09-.37.14-.56.14Z"/>
    <path class="cls-10" d="M482.29,138.57c-.15,0-.29-.03-.44-.08-.63-.24-.94-.95-.7-1.58,1.53-3.98,4.66-4.33,6.09-3.95.65.17,1.04.84.88,1.49-.17.65-.82,1.04-1.47.88-.23-.05-2.12-.38-3.21,2.46-.19.48-.65.78-1.14.78Z"/>
    <path class="cls-12" d="M524.56,94.51c-.9.63-2.08.66-3.09.23-3.02-1.3-5.29-3.83-28.56-3.86-17.07-.02.49-15.15,19.22-8.2,14.64,5.43,14.77,10.19,12.43,11.84Z"/>
    <path class="cls-12" d="M498.7,107.53c0,2.53,1.64,4.58,3.66,4.58s3.66-2.05,3.66-4.58-1.64-4.58-3.66-4.58-3.66,2.05-3.66,4.58Z"/>
    <circle class="cls-12" cx="426.64" cy="84.02" r="8.24" transform="translate(246.84 479.95) rotate(-76.72)"/>
    <ellipse class="cls-12" cx="532.89" cy="82.5" rx="7.37" ry="7.94"/>
    <path class="cls-12" d="M469.86,49.53c-.96-.97-2.47-1.04-3.62-.35-1.37.82-1.78,2.51-1.38,3.98,1.08,3.93,5.71,4.01,8.74,5.52v-1.4c-1.91.81-4.07,2.02-4.23,4.34-.18,2.6,2.16,4.43,4.22,5.49.9.46,1.63-.79.79-1.36-1.41-.95-3.63-2.11-3.38-4.15.2-1.61,2.11-2.37,3.41-2.92.56-.24.5-1.15,0-1.4-2.23-1.12-5.19-1.24-7.05-3.02-.79-.75-1.42-2.08-.85-3.14.42-.77,1.59-1.16,2.26-.51.71.68,1.77-.38,1.08-1.08h0Z"/>
    <path class="cls-12" d="M486.71,54.79c-.99-1.05-.45-3.27,1.13-3.36.79-.05,1.62.46,1.98,1.16.29.55.2,2.08-.74,1.75v1.57c2.52-.59,5.38,1.35,5.68,3.95.15,1.35-.45,2.68-1.39,3.62-1.04,1.05-2.29,1.43-3.73,1.45-.84.01-1.1,1.37-.21,1.53,3.68.65,7.31-3.09,6.92-6.71-.39-3.63-4.19-6.22-7.71-5.42-.84.19-.71,1.32,0,1.57,1.73.62,3.15-1.28,2.98-2.86-.17-1.57-1.5-2.87-3.03-3.16-3.33-.63-5.24,3.7-2.98,6,.7.71,1.78-.37,1.09-1.09h0Z"/>
    <path class="cls-12" d="M396.77,136.17c-2.26,2.16-3.7,5.08-4.15,8.16-.43,2.93-.16,6.49,1.53,9.03.46.7,1.81.26,1.44-.61-.54-1.3-1.08-2.53-1.33-3.92-.24-1.37-.25-2.8-.05-4.17.41-2.78,1.68-5.38,3.67-7.37.72-.72-.38-1.83-1.12-1.12h0Z"/>
    <path class="cls-12" d="M565.61,117.97c1.51.99,2.92,1.85,4.11,3.25,1.19,1.39,2.06,3.07,2.53,4.84.49,1.86.52,3.83.11,5.71-.43,1.98-1.36,3.59-2.44,5.28-.47.73.6,1.56,1.2.93,2.96-3.14,3.78-8.28,2.69-12.34-.99-3.69-3.9-7.69-7.63-8.99-.82-.28-1.23.9-.56,1.34h0Z"/>
    <path class="cls-12" d="M525.28,178.43c5.57.97,11.61-2.21,13.99-7.35,2.35-5.09,1.13-11.89-3.27-15.51-.73-.61-1.77.38-1.07,1.07,3.61,3.52,5.13,9.08,2.9,13.78-2.22,4.66-7.34,7.13-12.36,6.64-.78-.08-.97,1.24-.19,1.38h0Z"/>
    <path class="cls-12" d="M457.85,54.59c7.52-2.5,25.86-7.19,42.62-.47,1.9.76,3.85-.98,3.34-2.96-1.19-4.54-4.9-11.45-16.12-16.53-6.04-2.73-12.97-2.84-19.02-.13-5.79,2.6-12.06,7.66-13.86,17.45-.32,1.74,1.37,3.2,3.05,2.64Z"/>
    <path class="cls-10" d="M449.18,954.4c.54,6.96,3.63,15.13,7.68,20.83.68.96,2.56.42,2.06-.87-1.29-3.36-2.95-6.58-4.26-9.93-1.32-3.38-2.13-6.93-3.45-10.3-.39-.99-2.13-.99-2.03.27h0Z"/>
    <path class="cls-10" d="M490.95,940.2c-2.56,3.48-3.98,7.9-5.66,11.86-1.54,3.61-3.34,7.19-4.44,10.97-.44,1.51,1.77,2.46,2.54,1.07,1.91-3.43,3.2-7.23,4.69-10.86,1.64-3.98,3.78-8.1,4.47-12.36.16-.99-1-1.5-1.6-.68h0Z"/>
    <path class="cls-10" d="M569.84,917.09c1.63,5.85,4.55,12.08,7.42,17.41.65,1.2,2.69.38,2.24-.94-1.96-5.75-4.52-12.11-7.7-17.29-.63-1.02-2.28-.37-1.95.82h0Z"/>
    <path class="cls-10" d="M616.74,897.33c-1.29,3.76-2.04,7.74-3.1,11.57-1.06,3.84-2.5,7.61-3.38,11.5-.29,1.28,1.63,2.27,2.24.94,3.23-7.08,5.64-15.97,6.3-23.74.1-1.23-1.69-1.33-2.05-.28h0Z"/>
    <path class="cls-11" d="M490.15,290.73c-.16,0-.32-.03-.48-.08-38.52-12.64-55.57-37.21-63.1-55.6-8.16-19.92-7.2-36.61-7.16-37.31.05-.84.77-1.47,1.62-1.43.84.05,1.48.78,1.43,1.62-.01.17-.94,16.8,6.99,36.09,7.27,17.68,23.71,41.29,60.75,53.59,2.35-.65,14.82-4.54,29.19-16.87,14.68-12.6,34.4-36.85,45-80.82.2-.82,1.03-1.32,1.84-1.13.82.2,1.32,1.02,1.13,1.84-10.82,44.88-31.06,69.66-46.14,82.55-16.43,14.05-30.14,17.37-30.72,17.5-.11.03-.23.04-.35.04Z"/>
    <path class="cls-11" d="M398.92,453c-.03-.23-.12-.46-.28-.68-5.09-7.22-9-14.29-10.38-23.17-.66-4.22-.76-8.56-.31-12.81.45-4.25,2.15-8.1,2.97-12.2,1.31-.61,2.6-1.23,3.87-1.9,1.96-1.02.24-3.75-1.7-2.9-13.72,6.02-27.66,10.35-42.65,11.68-14.76,1.31-29.11-.37-43.51-3.55-1.86-.41-2.61,2.28-.79,2.86,14.44,4.57,30.34,5.47,45.35,4.02,11.95-1.15,24.19-3.83,35.43-8.46-1.19,3.05-1.73,6.59-2.14,9.53-.64,4.65-.65,9.32,0,13.97,1.23,8.73,4.72,18.37,10.88,24.9-2.04,2.08-3.97,4.24-6.27,6.1-2.18,1.76-4.88,3.05-7.11,4.76-9.56-13.75-16.07-30.56-12.08-47.4.4-1.7-2.19-2.42-2.62-.72-4.7,18.35,2.87,35.93,13.04,50.92.67.98,1.92.76,2.51.09,2.94-.93,5.78-3.29,8.1-5.1,2.94-2.3,5.95-4.95,8.02-8.08.47-.71.2-1.43-.34-1.85Z"/>
    <path class="cls-11" d="M388.3,398.61c-.1.32-.28.55-.49.71-.68,2.68-2.14,4.9-5.19,6.16-6.46,2.66-13.34,4.61-19.97,6.83-1.59.53-2.38-1.49-1.5-2.57,2.11-2.58,4.11-5.24,5.98-7.99.37-.55.74-1.12,1.1-1.68,3.02-5.89,6.55-11.52,9.31-17.57,3.05-6.69,5.66-13.57,7.85-20.59,4.15-13.29,6.68-27.03,7.6-40.91-3.72-34.27-15.94-67.46-32.19-97.9-.1-.2-.15-.38-.16-.57.65-.37,1.3-.73,1.95-1.09.13.1.25.23.35.41,6.34,11.69,12.1,23.71,16.98,36.1,7.46,18.91,12.87,38.82,15.45,58.99.48.2.83.64.79,1.33-.06,1.2-.13,2.39-.22,3.59,2.69,25.74.69,51.83-7.65,76.76Z"/>
    <path class="cls-11" d="M689.32,330.94c-10.31,3.84-20.2,10.32-28.59,17.35-8.77,7.35-16.28,16.04-22.38,25.72-.89,1.41.97,3.49,2.41,2.41,5.35-4,11.16-7.33,17.42-9.68,6.2-2.33,12.4-3.14,18.85-4.34,1.69-.32,1.24-2.9-.4-2.92-6.6-.11-13.7,1.92-19.82,4.21-3.64,1.36-7.15,3.02-10.52,4.93,4.8-6.47,10.28-12.43,16.37-17.72,8.48-7.36,17.68-12.61,27.67-17.56,1.32-.65.39-2.93-1.01-2.41Z"/>
    <path class="cls-11" d="M506.49,468.18c-5.1,4.16-9.39,8.92-15.53,11.58-6.23,2.71-13.39,4.12-18.86,8.29-4.18,3.19-6.99,7.82-11.25,10.9-4.57,3.3-10.2,4.43-15.18,6.94-10.4,5.22-18.42,13.97-27.86,20.6-4.82,3.4-9.72,6.81-15.06,9.34-1.67.79-3.54,1.62-5.47,2.24-3.58,1.37-7.19,2.98-11.16,2.61-1.86-.18-3.35-.83-4.62-1.8-.7-2.69-2.09-5.39-4.45-8.27-4.42-5.4-5.06-14.39-3.96-23.97.24,3.48,1.75,6.7,2.71,10.02.41,1.42.85,2.83,1.28,4.26,1.66,4.06,4.09,8.05,7.18,11.14,4.26,4.25,8.59,4.25,14.04,2.2,10.31-3.87,19.68-11.34,28.09-18.27,3.87-3.19,7.75-6.4,11.94-9.16,4.36-2.88,8.96-4.83,13.83-6.66,5.56-2.09,9.15-5.2,13.16-9.51,3.2-3.44,6.57-6.23,10.91-8.13,5.29-2.31,11.04-3.66,16.18-6.34,4.76-2.48,8.35-6.74,12.66-9.88,1.09-.79,2.47,1.03,1.43,1.87Z"/>
    <path class="cls-11" d="M514.57,454.36c-2.34,3.81-4.81,7.48-8.02,10.62-.96.94.5,2.39,1.47,1.47,3.39-3.26,5.94-7.02,8.26-11.09.63-1.11-1.04-2.08-1.71-1Z"/>
    <path class="cls-11" d="M480.49,269.42c-1.77-1.36-4.07-1.91-6.12-.8-.27.15-.52.31-.76.49-2.24.97-2.89,3.98-2.18,6.6,1.02,3.75,6.15,5.45,9.41,3.55,1.69-.99,2.54-2.93,2.48-4.84-.06-2.05-1.25-3.78-2.83-4.99Z"/>
    <path class="cls-11" d="M512.89,264.72c-1.65-1.71-3.82-2.02-5.7-1.34-.15,0-.3.02-.45.04-3.76.65-5.77,5.68-3.86,8.85,1.94,3.23,6.74,3.24,9.27.8,2.21-2.13,3.04-5.96.73-8.35Z"/>
    <path class="cls-13" d="M492.85,379.68c-.37-2.72-1.39-5.33-1.65-8.06-.26-2.71.11-5.57.48-8.25.73-5.41,1.12-10.76.88-16.22-.37-8.64-1.73-17.56-6.95-24.73-4.74-6.5-12.53-10.81-13.51-19.49-.49-4.37.43-8.97,1.44-13.2,1.06-4.48,2.54-8.87,5.25-12.65,2.3-3.2-3-6.25-5.27-3.08-5.16,7.18-7.58,17.68-7.63,26.44-.05,9.11,4.94,15.44,11.2,21.46,7.19,6.91,9.01,16.11,9.38,25.72.23,5.83-.45,11.44-1.1,17.22-.32,2.86-.5,5.74-.05,8.6.41,2.65,1.28,5.19,1.64,7.85.52,3.88,6.41,2.23,5.89-1.62Z"/>
    <path class="cls-13" d="M524.92,361.88c-1.31-1.09-2.82-2.21-3.56-3.79-1.07-2.25-.37-5.12.33-7.37,1.46-4.78,4.49-8.92,6.92-13.23,5.64-10.04,5.8-21.08,2.15-31.91-2.23-6.61-5.91-11.97-9.87-17.62-2.04-2.91-3.97-5.89-5.95-8.83-.96-1.43-5.55-6.34-4.04-7.93,2.71-2.85-1.6-7.17-4.32-4.32-4.39,4.61-1.16,9.16,1.82,13.47,3.84,5.56,7.84,11.08,11.53,16.72,6.25,9.57,10.15,23.46,4.99,34.31-3.97,8.33-12.96,18.11-9.56,28.11,1.37,4.03,4.89,6.11,7.81,8.89,4.41,4.19,3.5,10.13,1.95,15.48-4.01,13.81-9.69,26.78-8.22,41.5.39,3.87,6.5,3.91,6.11,0-1.27-12.65,2.92-24,6.74-35.83,1.71-5.31,3.45-10.92,2.54-16.57-.79-4.86-3.7-8.06-7.35-11.08Z"/>
    <path class="cls-7" d="M662.32,769.3c-.04,1.08-.09,2.17-.13,3.26-.03,0-.07.02-.1.02-3.08.74-6.14.98-9.28.69-5.07-.46-11.14-1.78-14.34-6.12-2.75-3.76-3.32-8.9-3.66-13.4-.39-5.13-.15-10.26-.33-15.4-.49-13.96-2.28-27.68-3.69-41.55-1.01-9.98-1.84-22.7,6.47-29.93,4.94-4.3,13.02-8.82,20.2-8.35.12.84.24,1.69.36,2.55-3.86-.21-7.87,1.29-11.24,2.93-4.02,1.96-8.63,4.79-10.91,8.81-2.54,4.49-2.7,10.41-2.63,15.42.04,2.39.2,4.78.42,7.16,3.09-.89,6.69-.9,9.83-1.58,3.73-.8,7.42-1.7,11.13-2.58,2.17-.51,4.35-1.02,6.55-1.46.09,1.06.18,2.13.26,3.21-2.69.51-5.37,1.1-8.04,1.69-3.85.85-7.7,1.72-11.61,2.27-2.41.34-5.37.92-7.9.48.27,2.49.6,4.97.95,7.45,1.62,11.9,2.69,24.08,2.82,36.1.05,4.54-.04,9.09.38,13.62.4,4.37,1.09,9.98,5.01,12.68,3.94,2.71,9.67,3.33,14.33,2.99,1.76-.13,3.47-.5,5.16-.95Z"/>
    <path class="cls-7" d="M424.01,825.85c-1.97,5.03-6.4,8.23-11.13,10.5-2.9,1.39-6.05,2.7-9.26,3.76-.32-1.09-.63-2.19-.95-3.31,3.65-1.09,7.22-2.54,10.34-4.18,4.91-2.58,8.5-6.32,8.98-12.03.4-4.7-.75-9.38-1.46-13.98-1.84-11.9-3.51-23.49-7.07-35.04-.02-.07-.05-.15-.07-.23-1.89,2.02-6.91,2.61-9.13,3.16-4.52,1.13-9.09,2.08-13.64,3.11-.72.16-1.44.33-2.16.5-.22-1.11-.44-2.21-.65-3.32.18-.04.35-.09.53-.12,4.57-1.01,9.18-1.87,13.76-2.9,2.3-.51,4.6-1.06,6.89-1.66,1.23-.32,2.55-.98,3.77-.78-2.86-9.04-6.49-18.58-13.44-25.18-5.14-4.88-11.2-6.15-17.47-5.85-.12-.86-.23-1.72-.34-2.58,7.54-.34,14.84,1.51,20.63,7.43,7.79,7.96,11.64,19.34,14.8,29.77,3.84,12.7,5.51,25.7,7.55,38.76.73,4.68,1.28,9.66-.49,14.19Z"/>
    <path class="cls-7" d="M521.42,856.42v3.77c-5.1,5.86-12.82,10.5-19.56,14.07-7.19,3.8-15.05,6.19-23.13,7.03-3.96.41-7.85.18-11.82.09-3.43-.08-6.85.07-10.27-.11-5.8-.31-12.02-.52-15.94-5.38-.4-.51.23-1.17.72-.72,4.76,4.25,12.22,3.87,18.12,3.51,6.38-.38,12.84-.02,19.19-.78,7.96-.94,15.66-3.58,22.58-7.63,6.38-3.73,13.01-7.97,18.01-13.46.67-.73,1.47-.75,2.1-.38Z"/>
    <path class="cls-6" d="M630.33,1337.25c-.16,5.84-3.93,10.99-9.5,12.77-9.9,3.17-30.08,4.21-69.89-9.06-1.59-.53-2.78-1.86-3.13-3.49-.31-1.44-1.09-2.68-2.17-3.57-1.07-.89-2.44-1.42-3.91-1.46-5.97-.15-14.99-1.43-13.29-7.85,1.33-5.07,4.33-14.32,6.83-21.84,0,0,8.62,2.55,13.5,17.21s21.37,20.15,32.97,11.6c11.6-8.55,27.48-14.04,39.08-3.66,3.09,2.76,6.3,3.44,9.34,2.94.17,2.01.23,4.15.17,6.41Z"/>
    <path class="cls-3" d="M316.96,873.05l-95.58,366c-.43,1.66-2.05,2.68-3.6,2.27l-2.56-.67c-1.56-.41-2.47-2.08-2.03-3.74l95.66-366.3c1.06,1.15,2.42,2.01,4.02,2.43,1.38.36,2.78.35,4.1.02Z"/>
    <path class="cls-6" d="M421.95,471.02l-104.99,402.03c-1.32.33-2.72.34-4.1-.02-1.59-.42-2.96-1.28-4.02-2.43l104.91-401.73,8.19,2.14Z"/>
    <path class="cls-3" d="M236.81,1210.66l-22.03-5.75c-1.88-.49-2.41-3.03-.92-4.42l11.68-10.88,8.19,2.14,5.99,15.36c.76,1.96-.96,4.06-2.91,3.56Z"/>
    <path class="cls-14" d="M328.88,846.26l-5.21,19.96c-.92,3.51-3.58,6.06-6.71,6.83-1.32.33-2.72.34-4.1-.02-1.59-.42-2.96-1.28-4.02-2.43-2.04-2.22-2.93-5.52-2.08-8.8l5.21-19.96,16.9,4.41Z"/>
    <path class="cls-3" d="M216.73,1207.49h14.82v4.71c0,2.08-1.69,3.77-3.77,3.77h-7.29c-2.08,0-3.77-1.69-3.77-3.77v-4.71h0Z" transform="translate(313.45 -17.32) rotate(14.64)"/>
    <rect class="cls-6" x="214.36" y="1240.92" width="2.65" height="8.48" transform="translate(321.62 -14.09) rotate(14.64)"/>
    <path class="cls-3" d="M414.25,374.11h29.11v97.65c0,4.44-3.6,8.04-8.04,8.04h-13.03c-4.44,0-8.04-3.6-8.04-8.04v-97.65h0Z" transform="translate(121.8 -94.5) rotate(14.64)"/>
    <path class="cls-14" d="M456.25,379.51l-28.17-7.36h0c1.58-6.04,7.75-9.66,13.79-8.08l6.29,1.64c6.04,1.58,9.66,7.75,8.08,13.79h0Z"/>
    <path class="cls-3" d="M801.88,889.69l139.92,351.44c.64,1.59-.06,3.37-1.55,3.96l-2.46.98c-1.49.59-3.22-.22-3.85-1.81l-140.04-351.73c1.53.3,3.14.18,4.67-.42,1.33-.53,2.45-1.37,3.31-2.41Z"/>
    <path class="cls-6" d="M648.18,503.65l153.7,386.04c-.87,1.04-1.98,1.88-3.31,2.41-1.53.61-3.14.73-4.67.42l-153.58-385.75,7.87-3.13Z"/>
    <path class="cls-3" d="M937.41,1209.12l-21.15,8.42c-1.81.72-3.74-1.01-3.36-3.01l2.96-15.68,7.87-3.13,13.93,8.82c1.78,1.12,1.64,3.84-.24,4.59Z"/>
    <path class="cls-14" d="M795.6,861.05l7.63,19.17c1.34,3.37.7,7-1.35,9.48-.87,1.04-1.98,1.88-3.31,2.41-1.53.61-3.14.73-4.67.42-2.96-.57-5.64-2.71-6.89-5.86l-7.63-19.17,16.23-6.46Z"/>
    <path class="cls-3" d="M920.43,1213.26h14.82v4.71c0,2.08-1.69,3.77-3.77,3.77h-7.29c-2.08,0-3.77-1.69-3.77-3.77v-4.71h0Z" transform="translate(-384.53 429.55) rotate(-21.71)"/>
    <rect class="cls-6" x="939.51" y="1245.19" width="2.65" height="8.48" transform="translate(-395.45 436.66) rotate(-21.71)"/>
    <path class="cls-3" d="M613.04,411.25h29.11v97.65c0,4.44-3.6,8.04-8.04,8.04h-13.03c-4.44,0-8.04-3.6-8.04-8.04v-97.65h0Z" transform="translate(-127.16 265.07) rotate(-21.71)"/>
    <path class="cls-14" d="M621.57,409.62l-27.05,10.77h0c-2.31-5.8.52-12.37,6.32-14.68l6.04-2.41c5.8-2.31,12.37.52,14.68,6.32h0Z"/>
    <path class="cls-5" d="M391.28,402.41l17.38-17.77c2.34-2.39,5.52-3.69,8.81-3.59l19.63.57c1.57.05,3.14,0,4.7-.12l6.53-.54c4.1-.34,8.1,1.48,10.64,4.85l3.05,4.04,2.38,3.01c1.53,1.93,1.63,4.67.24,6.71h0c-1.33,1.96-3.47,3.15-5.78,3.22l-1.96.06-.22,3.95c-.09,1.65-.48,3.26-1.15,4.76l-1.17,2.62s-.58,6.44-5.15,8.99c0,0,2.56,7.95-5.05,12.2,0,0,7.96,6.99-8.1,13.9,0,0-38.16,18.82-45.17-8.28-7.01-27.1.39-38.57.39-38.57Z"/>
    <path class="cls-10" d="M454.3,414.48c-.65,0-1.19-.52-1.22-1.17,0-.04-.23-4.05-3.76-7.81-3.66-3.9-20.16-3.36-26.2-2.82-.68.05-1.27-.44-1.32-1.11-.06-.67.44-1.26,1.11-1.33,2.35-.21,23.07-1.88,28.2,3.58,4.19,4.45,4.42,9.19,4.43,9.39.03.67-.5,1.24-1.17,1.27-.02,0-.03,0-.05,0Z"/>
    <path class="cls-10" d="M449.21,424.38c-.34,0-.68-.14-.92-.42-3.66-4.17-20.32-5.74-26.43-5.99-.67-.03-1.2-.6-1.17-1.27.03-.67.61-1.17,1.27-1.17,2.36.1,23.15,1.12,28.17,6.82.45.51.4,1.28-.11,1.72-.23.2-.52.3-.81.3Z"/>
    <path class="cls-10" d="M444.16,436.58s-.05,0-.08,0l-25.61-1.64c-.67-.04-1.18-.62-1.14-1.3.04-.67.6-1.2,1.3-1.14l25.61,1.64c.67.04,1.18.62,1.14,1.3-.04.65-.58,1.14-1.22,1.14Z"/>
    <path class="cls-10" d="M457.02,403.4c-.48,0-.93-.28-1.12-.74-.02-.06-2.45-5.75-5.71-12.78-2.19-4.7-22.13-7.31-34.18-7.85-.67-.03-1.2-.6-1.17-1.27.03-.67.62-1.21,1.27-1.17,3.34.15,32.77,1.68,36.29,9.26,3.28,7.07,5.72,12.79,5.74,12.85.26.62-.03,1.34-.65,1.6-.16.07-.32.1-.48.1Z"/>
    <path class="cls-5" d="M653.17,427.83l-23.37-7.12c-3.15-.96-6.56-.54-9.45,1.15l-17.26,10.09c-1.38.81-2.8,1.54-4.25,2.19l-6.07,2.72c-3.81,1.71-6.57,5.26-7.35,9.46l-.93,5.04-.79,3.81c-.51,2.44.62,4.9,2.75,6.02h0c2.05,1.07,4.49,1.07,6.59,0l1.77-.91,1.95,3.36c.81,1.4,1.88,2.63,3.13,3.61l2.2,1.73s3.37,5.38,8.58,5.38c0,0,1.24,8.24,9.91,8.25,0,0-4,10.03,13.38,8.25,0,0,42.37-2.11,36.63-29.34-5.75-27.23-17.43-33.69-17.43-33.69Z"/>
    <path class="cls-10" d="M601.94,469.31c-.53,0-1.01-.34-1.17-.88-.05-.17-1.24-4.36,1.23-10,3.36-7.67,21.14-16.66,21.9-17.04.6-.3,1.34-.06,1.64.54.3.6.06,1.34-.54,1.64-.18.09-17.75,8.96-20.75,15.83-2.12,4.83-1.13,8.29-1.12,8.33.19.65-.18,1.33-.82,1.52-.12.03-.23.05-.35.05Z"/>
    <path class="cls-10" d="M610.68,475.58c-.1,0-.21-.01-.31-.04-.65-.17-1.04-.84-.87-1.49,1.94-7.43,20.01-18.47,22.07-19.71.58-.35,1.33-.16,1.68.42.35.58.16,1.33-.42,1.68-5.35,3.21-19.54,12.75-20.96,18.23-.14.55-.64.91-1.18.91Z"/>
    <path class="cls-10" d="M620.59,483.83c-.41,0-.8-.2-1.03-.57-.36-.57-.19-1.32.38-1.68l22.12-13.95c.57-.36,1.32-.19,1.68.38.36.57.19,1.32-.38,1.68l-22.12,13.95c-.2.13-.43.19-.65.19Z"/>
    <path class="cls-10" d="M594.66,461.06c-.62,0-1.15-.47-1.21-1.1,0-.06-.62-6.4-.82-14.23-.22-8.54,11.61-14.84,12.12-15.1.6-.31,1.34-.08,1.65.52.31.6.08,1.34-.51,1.65-.11.06-10.99,5.85-10.81,12.87.2,7.74.8,13.99.81,14.06.07.67-.43,1.27-1.1,1.33-.04,0-.08,0-.12,0Z"/>
    <path class="cls-6" d="M486.95,1160.16s-19.34,96.32,4.76,97.49c32.33,1.56,24.06-104.4,24.06-104.4,0,0-10.04,11.31-28.81,6.92Z"/>
    <path class="cls-6" d="M617,1303.9c-10.85.12-23.35-2.56-37.71-17.31-14.36-14.75-8.05-51.97-8.05-51.97,10.04-6,23.62-1.31,23.62-1.31,0,0,.17.14.45.43.3.31.72.78,1.2,1.44,2.28,3.11,5.92,10.3,4.16,23.1-1.89,13.67,7.63,32.28,12.38,40.53.26.45.53.88.81,1.31.14.21.28.41.43.61.79,1.14,1.7,2.2,2.71,3.16Z"/>
    <path class="cls-15" d="M514.68,1210.15c-1.84-4.8-8.18-5.44-12.46-6.56-2.94-.77-5.87-1.55-8.81-2.33-1.98-.53-8.12-1.15-8.43-3.34-.19-1.36.43-1.15,1.56-1.58.75-.29,1.52-.55,2.28-.82l4-1.43c3.24-1.16,6.47-2.34,9.69-3.54,3.74-1.39,9.56-2.5,11.4-6.55,1.98-4.36-1.84-6.79-5.56-7.67-7.05-1.67-14.18-3.07-21.27-4.6-1.16-.25-1.66,1.5-.49,1.78,6.25,1.53,12.51,3.07,18.76,4.6,2.57.63,7.14,1,6.07,4.83-.73,2.62-7.5,3.78-9.75,4.55-5.76,1.99-11.74,3.76-17.34,6.16-3.15,1.35-4.82,4.7-1.86,7.29,1.34,1.17,3.13,1.61,4.8,2.06,3.33.89,6.66,1.73,9.99,2.61,2.94.77,5.88,1.52,8.81,2.33,1.59.44,3.47.84,4.69,2.03,1.71,1.66.74,3.75-.99,4.85-2.18,1.39-4.8,2.21-7.17,3.22-3.11,1.33-6.22,2.65-9.33,3.98-4.09,1.74-9.65,3.21-11.69,7.61-1.91,4.12.33,7.7,4.3,9.22,6.26,2.39,12.94,4,19.36,5.94,2.06.62,2.93-2.57.89-3.21-5.91-1.85-11.86-3.57-17.74-5.52-1.15-.38-2.38-.68-3.22-1.61-1.4-1.55-.7-3.4.61-4.75,1.94-1.99,5.09-2.93,7.57-4.01,5.63-2.47,11.45-4.71,16.95-7.46,3.09-1.54,5.78-4.41,4.38-8.07Z"/>
    <path class="cls-15" d="M610.13,1291.45c-7.19-.95-14.39-1.83-21.57-2.84-1.82-.26-2.08-.7-1.01-2.03.46-.57,1.36-.95,1.97-1.35,1.48-.96,2.97-1.92,4.45-2.88,2.52-1.63,5.76-3.09,7.72-5.41,1.25-1.48,1.87-3.56.88-5.36-1.01-1.83-3.09-2.21-4.98-2.5-6.71-1.03-13.42-2.01-20.13-3.01,1.78-5.35,8-7.56,12.92-9.48,4.73-1.85,9.22-4.1,11.75-8.71.37-.67.06-1.6-.73-1.79-9.33-2.26-18.66-4.51-28.03-6.63-1.13-.25-1.61,1.43-.48,1.74,8.7,2.36,17.43,4.59,26.17,6.81-3.61,4.47-10.02,5.59-15.05,7.91-4.94,2.27-9.21,5.78-9.96,11.42-.08.59.53,1.4,1.13,1.48,7.21,1.02,14.44,1.98,21.64,3.06.4.06,1.9.12,2.16.4.13.99.26,1.98.38,2.97-.38.3-.76.61-1.14.91-1.35.98-2.85,1.79-4.27,2.68-2.77,1.73-5.95,3.27-8.45,5.38-3.34,2.83-2.58,6.65,1.85,7.29,7.57,1.09,15.18,1.95,22.76,2.93,1.91.25,1.89-2.75,0-3Z"/>
    <path class="cls-4" d="M488.36,1166.71c-.59,6.9-4.38,12.22-8.45,11.87-1.07-.09-2.05-.57-2.91-1.34-2.41-2.17-3.83-6.7-3.39-11.79.44-5.22,2.72-9.54,5.57-11.18.91-.53,1.89-.78,2.88-.69,4.07.35,6.89,6.23,6.3,13.13Z"/>
    <path class="cls-6" d="M482.57,1166.07c-.44,5.22-2.72,9.54-5.57,11.18-2.41-2.17-3.83-6.7-3.39-11.79.44-5.22,2.72-9.54,5.57-11.18,2.41,2.17,3.83,6.7,3.39,11.79Z"/>
  </g>
</svg>