<?xml version="1.0" encoding="UTF-8"?>
<svg id="people" xmlns="http://www.w3.org/2000/svg" viewBox="0 0 1046 1378">
  <defs>
    <style>
      .cls-1 {
        fill: #1e2127;
      }

      .cls-2 {
        fill: #ac5c04;
      }

      .cls-3 {
        fill: #c47665;
      }

      .cls-4 {
        fill: #b0b0b0;
      }

      .cls-5 {
        fill: #fff;
      }

      .cls-6 {
        fill: #f2f4f6;
      }

      .cls-7 {
        fill: #77569b;
      }

      .cls-8 {
        fill: #472912;
      }

      .cls-9 {
        fill: #f2f2f2;
      }

      .cls-10 {
        fill: #3c3c4c;
      }

      .cls-11 {
        fill: #874606;
      }

      .cls-12 {
        fill: #d46f4d;
      }

      .cls-13 {
        fill: #ffa88e;
      }
    </style>
  </defs>
  <g id="_5" data-name="5">
    <path class="cls-10" d="M128.46,399.01c-.16,0-.33-.03-.49-.1-.64-.29-15.71-7.14-15.07-18.08.63-10.77,16.4-21.07,46.87-30.62,48.35-15.14,86.74-60.41,110.43-95.71,23.08-34.4,53.9-63.6,89.13-84.46,39.64-23.47,101.19-52.14,169.3-55.48,77.06-3.77,146.29,24.99,205.8,85.51.74.78,72.93,77.26,109.65,145.33,18.88,35.02,41.59,46.11,57.3,49.25,17.03,3.4,29.79-1.52,29.92-1.57.62-.24,1.31.06,1.55.67.24.61-.06,1.31-.67,1.55-.54.21-13.44,5.21-31.13,1.72-16.26-3.21-39.71-14.58-59.08-50.49-36.56-67.79-108.54-144.04-109.26-144.81-135.17-137.46-291.19-77.57-372.16-29.63-34.92,20.68-65.48,49.63-88.36,83.73-23.91,35.62-62.69,81.31-111.71,96.66-36.64,11.48-44.8,21.81-45.19,28.47-.55,9.29,13.52,15.7,13.66,15.76.6.27.87.98.6,1.58-.2.45-.64.71-1.09.71Z"/>
    <path class="cls-10" d="M915.04,401.16c1.4,6.24,6.51,10.42,11.4,9.32,4.89-1.1,7.73-7.05,6.32-13.3-1.4-6.24-6.51-10.42-11.4-9.32-4.89,1.1-7.73,7.05-6.32,13.3Z"/>
    <polygon class="cls-10" points="849.51 392.76 923.06 387.69 925.49 410.63 853.89 415.93 849.51 392.76"/>
    <path class="cls-10" d="M146.19,401.79c-1.4,6.24-6.51,10.42-11.4,9.32-4.89-1.1-7.73-7.05-6.32-13.3,1.4-6.24,6.51-10.42,11.4-9.32s7.73,7.05,6.32,13.3Z"/>
    <polygon class="cls-10" points="211.71 393.38 138.16 388.32 135.73 411.25 207.33 416.56 211.71 393.38"/>
    <path class="cls-2" d="M748.51,241.7s-4.75,16.62-21.37,14.24c-16.62-2.37-7.12,35.6-40.35,23.75h0c.21.73,9.01,30.71-30.87,18.99,0,0-19,45.11-42.74,26.11-23.32-18.66-7.69-90.02-76.92-121.79-1.24-.57-2.51-1.12-3.8-1.67,0,0,9.5-28.49,52.23-28.49s66.48-16.62,80.72-4.75c14.24,11.87,23.74-7.12,23.74-7.12,0,0,4.75,7.12,4.75,14.24s18.99,11.87,2.37,33.24c0,0,11.87,2.37,21.37,21.37,9.5,18.99,30.86,11.87,30.86,11.87Z"/>
    <path class="cls-11" d="M655.92,298.68s-19,45.11-42.74,26.11c-23.32-18.66-7.69-90.02-76.92-121.79l-.75-7.57s58.93-21.3,96.52,35.7c37.58,57,41.85,55.76,54.75,48.55h0c.21.73,9.01,30.72-30.87,18.99Z"/>
    <path class="cls-11" d="M602.61,192.77c11.1,5.18,21.42,10.67,30.53,19.02,9.26,8.48,15.59,18.84,22.49,29.19,5.97,8.96,12.92,17.51,23.11,21.75,8.15,3.39,17.57,3.89,24.79-1.78.92-.72-.25-2.04-1.2-1.55-10.7,5.51-23.02,2.34-31.92-5.22-8.7-7.4-14.08-17.85-20.45-27.14-11.02-16.07-27.57-30.56-46.65-35.94-.96-.27-1.65,1.21-.7,1.66h0Z"/>
    <path class="cls-11" d="M680.72,246.44c8.85,6.09,22.13,3.9,29.01-4.14.8-.94-.44-2.21-1.37-1.37-7.68,6.97-17.4,8.14-26.74,3.96-1.05-.47-1.87.88-.9,1.55h0Z"/>
    <path class="cls-13" d="M914.81,415.75l-5.29,6.05c-1.27,1.45-3.1,2.28-5.02,2.28h-7.16c-1.43,0-2.84.42-4.04,1.2l-2.7,1.75c-.81.53-1.74.84-2.71.92l-4.55.35c-1.24.1-2.39.69-3.22,1.62-2.29,2.6-8.4,7.48-20.21,4.18-10-2.8-20.77-2.79-27.24-2.42-3.68.21-7.25,1.35-10.38,3.31l-37.55,23.54s-93.96,75.79-120.27,61.39c-11.69-6.4-26.87-51.42-40.11-99.45-16.56-60.04-30.11-124.8-30.11-124.8l16.69-21.72s39.44-.52,53.22,28.29c11.88,24.84,20.04,123.75,22.06,150.51.28,3.64,3.65,6.23,7.23,5.55,17.22-3.28,63.88-14.09,98.49-40.18,0,0,24.21-12.11,35.97-22.81,2.68-2.44,6-4.08,9.56-4.8,4.07-.81,9.98-1.51,17.74-1.21,0,0-1.25-3.13,1.88-5.01,0,0,1.25-6.89,11.9-1.25l2.22,1.58c1.22.87,2.76,1.14,4.2.77,3.13-.81,9.67.47,18.01,6.42,13,9.28,13.15,20.04,13.15,20.04,0,0,2.51-2.51,2.51-8.77s3.13-17.54,6.26-14.41c2.51,2.51,1.6,17.32,1.14,23.08-.12,1.48-.71,2.87-1.68,3.99Z"/>
    <path class="cls-12" d="M664.48,519.92c-11.69-6.4-26.87-51.42-40.11-99.45l-.28-4.82,10.97-21.47s1.12,80,29.43,125.73Z"/>
    <path class="cls-13" d="M612.2,546.27c-7.83-15.23-11.21-29.12-12.67-38.82-1.15-7.69-.57-15.53,1.68-22.98l33.18-109.82-23.35-100.92h-161l-23.35,100.92,33.17,109.82c2.25,7.44,2.83,15.29,1.68,22.98-1.45,9.7-4.84,23.59-12.67,38.82,0,0-23.65,40.19-29.55,75.19h222.44c-5.9-35-29.55-75.19-29.55-75.19Z"/>
    <path class="cls-13" d="M530.55,379.73h0s-.02,0-.02,0h-.01c-90.16-11.44-64.58-106.55-64.58-106.55,44.36-5.43,39.7-37.55,35.97-50.36,0-.01,0-.02,0-.02-.95-3.25-1.83-5.26-1.83-5.26l30.44-15.92v-.02h.01s.02,0,.02,0v.02l30.43,15.92s-1.99,4.52-3.19,10.99c0,0,0,0,0,.01-2.75,14.82-1.38,39.88,37.34,44.62,0,0,25.59,95.11-64.57,106.54Z"/>
    <path class="cls-12" d="M560.98,217.56s-1.99,4.52-3.19,10.99c0,0,0,0,0,.01-.38.61-10.19,21.17-25.35,21.37-15.16.21-30.12-26.31-30.51-27.1,0-.01,0-.02,0-.02-.95-3.25-1.83-5.26-1.83-5.26l30.44-15.92v-.02h.01s.02,0,.02,0v.02l30.43,15.92Z"/>
    <path class="cls-13" d="M552.45,84.5c-12.45-4.85-26.27-4.85-38.72,0-27.42,10.69-44.1,26.53-33.57,83.43,12.83,69.34,52.67,69.7,52.67,69.7h.51s39.84-.37,52.67-69.7c10.53-56.9-6.14-72.74-33.57-83.43Z"/>
    <ellipse class="cls-8" cx="552.95" cy="165.88" rx="4.11" ry="4.5"/>
    <path class="cls-8" d="M567.1,167.26c-.19,0-.38-.04-.55-.14-14.18-7.38-21.46-2.23-21.53-2.17-.53.39-1.28.28-1.67-.24-.39-.53-.29-1.27.23-1.67.34-.26,8.44-6.17,24.08,1.96.59.31.82,1.03.51,1.62-.21.41-.63.65-1.06.65Z"/>
    <path class="cls-13" d="M583.26,158.22c1.28-3.23,3.88-5.82,7.2-6.88,4.12-1.32,8.93-.28,8.79,11.88-.24,21.15-13.87,35.41-22,31.6-6.54-3.07,2.31-27.27,6.01-36.6Z"/>
    <path class="cls-13" d="M483.16,158.85c-1.28-3.23-3.88-5.82-7.2-6.88-4.12-1.32-8.93-.28-8.79,11.88.24,21.15,13.87,35.42,22,31.6,6.54-3.07-2.31-27.27-6.01-36.6Z"/>
    <path class="cls-13" d="M147.38,417.13l3.43,3.92c1.68,1.92,4.11,3.03,6.67,3.03h8.37l3.07,2c1.78,1.16,3.82,1.85,5.93,2.01l1.96.15c1.66.13,3.24.84,4.39,2.06,2.52,2.66,8.6,6.96,19.87,3.81,10-2.8,20.77-2.79,27.24-2.42,3.68.21,7.25,1.35,10.37,3.31l37.55,23.54s93.96,75.79,120.27,61.39c26.31-14.41,70.23-224.25,70.23-224.25l-16.69-21.72s-39.44-.52-53.22,28.29c-11.88,24.85-20.04,123.76-22.06,150.52-.27,3.64-3.65,6.23-7.23,5.54-17.22-3.28-63.88-14.1-98.49-40.18,0,0-24.21-12.11-35.97-22.81-2.68-2.44-6-4.08-9.56-4.8-4.06-.81-9.98-1.51-17.74-1.21,0,0,1.25-3.13-1.88-5.01,0,0-1.25-6.89-11.9-1.25l-4.38,3.13s-9.08-3.45-21.61,6.58c-12.47,9.98-11.59,19.11-11.59,19.11,0,0-2.51-2.51-2.51-8.77s-3.13-17.54-6.26-14.41c-2.26,2.26-1.75,14.52-1.28,21.13.19,2.7,1.25,5.27,3.04,7.31Z"/>
    <path class="cls-12" d="M176.32,418.4c-.38,0-.73-.24-.86-.63l-1.77-5.57c-1.71-5.36-.44-11.31,3.31-15.5l7.88-8.83c2.24-2.5,4.77-4.52,7.53-5.98,3.45-1.83,6.33-2.41,8.57-1.71,1.49.46,2.66,1.47,3.47,3.01.23.44.06.98-.38,1.21-.44.23-.98.06-1.21-.38-.58-1.11-1.37-1.81-2.4-2.13-1.74-.54-4.22.01-7.19,1.59-2.58,1.36-4.94,3.24-7.04,5.59l-7.88,8.83c-3.33,3.73-4.45,9-2.94,13.76l1.77,5.57c.15.47-.11.98-.58,1.13-.09.03-.18.04-.27.04Z"/>
    <path class="cls-12" d="M165.85,424.97c-.24,0-.48-.1-.66-.28l-11.45-12.21c-.34-.36-.32-.93.04-1.27.36-.34.93-.32,1.27.04l11.45,12.21c.34.36.32.93-.04,1.27-.17.16-.39.24-.61.24Z"/>
    <path class="cls-13" d="M629.08,835.36c-2.94,12.42-4.13,25.15-3.89,37.89.44,23.01-6.2,48.97-14.21,71.67h0c-1.89,5.37-3.86,10.55-5.84,15.47h0c-5.08,12.67-10.17,23.58-13.99,31.32-3.71,7.52-5.51,15.77-5.23,24.07.03.95.08,1.89.17,2.84l2.07,22.86s12.92,55.87,12.92,72.95-12.92,45.35-48.25,34.83c-35.34-10.52-15.63-93.98-15.63-93.98,0,0-5.44-24.97-6.31-36.15-.44-5.59,3.52-10.52,7.59-14.05,2.74-2.38,5.03-5.16,6.77-8.22,1.84-3.24,3.08-6.8,3.57-10.54,1.05-7.9,2.06-18.39,1.89-28.62-.11-6.36-.67-12.62-1.97-18.09-5.43-23-5.43-36.8-1.36-59.8,4.08-23,2.72-30.24,2.72-30.24l-16.31-138.67-3.24-19.37-6.28,16.74s3.4,125.53,5.49,162.66c1.28,22.81-5.18,52.68-10.37,72.34-3.36,12.77-4.79,25.94-4.33,39.12.53,15.66-.5,34.33-2.17,53.23h0c-1.12,12.82-2.53,25.73-3.93,37.88-1.06,9.15-2.11,17.88-3.04,25.81-3.09,26.48.71,51.01,3.74,64.95,1.64,7.51,3.06,11.95,3.06,11.95,0,0,3.39,21.03,13.59,64.41,3.89,16.57,4.02,28.63,2.69,37.21-1.79,11.54-10.79,20.63-22.29,22.59-21.35,3.65-34.68-5.64-44.27-20.37-11.55-17.75,3.4-70.98,6.8-97.27.74-5.71.83-12.06.53-18.52-.31-6.62-1.03-13.34-1.91-19.58-2.02-14.33-5.73-28.39-10.84-41.98-3.85-10.24-7.03-19.96-9.63-29.2l-.08-.29c-3.8-13.55-6.36-26.04-7.97-37.58-7.16-51.32,4.39-83.73,8.13-106.28,5.41-32.6-16.96-118.55-16.96-118.55-33.61-106.14-15.93-185.11,1.27-228.34,7.94-19.99,15.77-32.34,18.38-36.19.58-.86.91-1.3.91-1.3l160.94,1.25c6.89,8.14,15.47,23.87,19.37,36.39.7,2.22,1.36,4.45,2,6.68v.05c2.05,7.15,3.8,14.38,5.31,21.67,18.07,87.33.26,182.7-9.59,224.34Z"/>
    <path class="cls-3" d="M533.68,545.6c0,2.55-1.12,4.63-2.51,4.63s-2.51-2.07-2.51-4.63,1.12-4.63,2.51-4.63,2.51,2.07,2.51,4.63Z"/>
    <path class="cls-12" d="M521.14,180.79c-.59.34-1.08.91-1.56,1.39-.44.44-.91.86-1.29,1.35-.81,1.02-1.26,2.26-1.32,3.56-.1,2.36,1.36,5.23,3.68,6.06,1.07.38,1.86-1.12,1.09-1.87-.66-.63-1.38-1.09-1.87-1.89-.46-.75-.68-1.58-.64-2.47.04-.84.34-1.64.87-2.29.72-.89,1.72-1.57,2.37-2.51.57-.83-.53-1.8-1.33-1.33h0Z"/>
    <path class="cls-12" d="M538.72,182.22c.69.75,1.49,1.36,2.12,2.16.58.73.99,1.58,1.14,2.5.13.8,0,1.62-.51,2.26-.59.75-1.46,1.15-2.17,1.76-.46.39-.45,1.16-.1,1.6.39.48,1.02.61,1.57.31,1.04-.55,2.07-1.52,2.72-2.5.73-1.1.9-2.42.69-3.7-.39-2.39-2.42-4.52-4.31-5.9-.91-.66-1.85.73-1.15,1.5h0Z"/>
    <path class="cls-12" d="M538.48,188c-.27-.31-.7-.44-1.08-.55-.36-.11-.73-.17-1.1-.21-.63-.07-1.31-.03-1.93.12-1.2.28-2.4,1.25-2.7,2.48-.11.47.04.96.43,1.25.4.31.88.31,1.32.09.24-.12.4-.32.54-.54.19-.29.19-.67.06-.98-.14-.33-.38-.51-.71-.64-.27-.1-.53-.08-.8-.03l1.47,1.47s.03-.09.05-.14c.07-.2-.1.18-.03.05.04-.08.09-.17.14-.25.03-.05.08-.1.1-.15-.02.04-.16.19-.05.07.06-.07.12-.15.19-.22.08-.08.16-.15.24-.22.11-.1-.18.12-.06.05.04-.03.08-.06.12-.08.09-.06.18-.11.28-.17.04-.02.09-.04.13-.07.17-.09-.15.05-.02,0,.1-.04.2-.07.3-.1.06-.01.12-.02.17-.04.11-.03-.15,0,.04,0,.12,0,.24,0,.35,0,.06,0,.12,0,.18.01,0,0,.27.03.13.01-.12-.02.07.01.09.02.06.01.12.02.18.04.13.03.26.06.39.1.31.1.6.24.94.23.39-.02.72-.22.87-.59.16-.37.06-.74-.2-1.04h0Z"/>
    <path class="cls-12" d="M522.8,189.63c.32.02.6-.12.9-.21.24-.08.49-.13.74-.18-.15.03-.05,0,.04,0,.06,0,.12,0,.18-.01.12,0,.24,0,.35,0,.1,0,.18.03.04,0,.06.01.12.02.17.04.12.03.23.07.34.11.13.05-.18-.09-.06-.02.04.02.09.04.13.06.1.05.19.11.28.16.04.03.08.05.12.08.13.08-.02,0-.06-.05.07.08.17.14.24.22.07.07.13.14.19.21.12.15,0,.04-.03-.04.02.04.06.08.08.12.05.08.09.16.14.25.11.21-.06-.19-.02-.06.01.06.04.11.06.17l1.47-1.47c-.28-.05-.54-.07-.8.03-.33.12-.57.31-.71.64-.13.31-.13.69.06.98.14.22.31.42.54.54.44.22.92.22,1.32-.09.38-.3.54-.78.43-1.25-.3-1.24-1.5-2.2-2.7-2.48-.6-.14-1.27-.19-1.88-.12-.37.04-.74.1-1.1.21-.39.11-.85.24-1.12.56-.25.3-.36.67-.2,1.04.15.36.49.57.87.59h0Z"/>
    <path class="cls-12" d="M524.37,157.66c.33.73.72,1.42.96,2.19.23.73.44,1.48.64,2.22.4,1.5.66,3.03.72,4.58.05,1.5-.04,3-.38,4.47-.34,1.49-1,2.76-1.57,4.16-.51,1.24,1.34,1.78,2.02.85.96-1.31,1.48-3.14,1.8-4.72.33-1.61.46-3.27.35-4.92-.23-3.41-1.29-6.79-2.79-9.85-.58-1.18-2.26-.15-1.75,1.02h0Z"/>
    <path class="cls-2" d="M574.74,155.13c-.88.62-2.04.65-3.03.22-2.96-1.28-5.19-3.76-28.02-3.79-16.74-.02.48-14.86,18.86-8.04,14.36,5.33,14.48,10,12.19,11.61Z"/>
    <ellipse class="cls-8" cx="509.59" cy="165.88" rx="4.11" ry="4.5"/>
    <path class="cls-8" d="M496.31,167.11c-.43,0-.84-.23-1.06-.63-.31-.58-.09-1.31.49-1.62,15.05-8.04,22.92-2.06,23.25-1.8.52.41.61,1.16.2,1.68-.41.52-1.16.61-1.68.2-.3-.23-7.1-5.21-20.64,2.03-.18.1-.37.14-.56.14Z"/>
    <path class="cls-2" d="M487.8,155.13c.88.62,2.04.65,3.03.22,2.96-1.28,5.19-3.76,28.02-3.79,16.74-.02-.48-14.86-18.86-8.04-14.36,5.33-14.48,10-12.19,11.61Z"/>
    <path class="cls-5" d="M515.32,201.74c4.15,1.3,17.73,4.73,31.48-.81.45-.18.85.33.58.72-3.7,5.24-18.22,22.9-32.6.82-.25-.38.11-.87.55-.73Z"/>
    <path class="cls-12" d="M530.06,213.61c-.08,0-.16,0-.24,0-5.48-.1-10.63-3.79-15.31-10.96-.18-.28-.17-.64.03-.91.2-.27.53-.37.86-.27h0c3.87,1.21,17.55,4.73,31.28-.8.33-.13.69-.03.91.24.22.28.23.64.03.93-2.51,3.56-9.22,11.78-17.56,11.78ZM515.17,202.02c-.07,0-.12.05-.14.07-.02.02-.07.11,0,.22,4.56,7,9.54,10.59,14.81,10.69,8.14.15,14.81-8.01,17.29-11.52.07-.1.02-.18,0-.21-.02-.03-.09-.1-.21-.06-13.92,5.61-27.77,2.04-31.68.82-.02,0-.04,0-.06,0Z"/>
    <path class="cls-12" d="M514.98,201.39s8.56-3.72,14.17-.93c.98.49,2.12.45,3.1-.04,2.69-1.34,8.34-3.23,14.55.35,0,0-15.03,8.04-31.81.62Z"/>
    <path class="cls-12" d="M517.15,205.77s12.87,25.33,26.89,0c0,0-13.45,13.18-26.89,0Z"/>
    <path class="cls-9" d="M610.82,461.81s-.28,4.3-.3,4.51c0-.06.07-1.21.28-4.49.02-.02.03-.03.03-.03Z"/>
    <path class="cls-2" d="M593.82,150.9c-6.89-.06-10.56,7.32-10.56,7.32-.28-5.31-.73-10.19-1.38-14.66h0c-3.9-26.65-15.05-38.92-41.54-40.22h0c-1.11-.05-2.26-.09-3.42-.1-6.25-.09-13.3.38-21.24,1.35-.05,0-.1.01-.15.02-1.08.13-2.12.29-3.13.49-36.18,6.95-30.07,52.04-30.07,52.04-1.25-3.21-6.36-5.18-6.36-5.18-5.68-24.14-.83-46.52,12.62-60.79.7-.74,1.42-1.45,2.15-2.15,2.56-2.4,5.4-4.52,8.49-6.35,1.25-.73,2.47-1.38,3.69-1.95,1.17-.56,2.31-1.04,3.45-1.46,17.94-6.68,31.7,2.16,31.7,2.16.59-.12,1.17-.23,1.74-.33,1-.18,1.99-.34,2.96-.49,2.66-.39,5.17-.65,7.57-.76.94-.04,1.86-.08,2.76-.08,28.24-.21,38.17,18.8,41.17,37.23h0c2.8,17.22-.44,33.9-.44,33.9Z"/>
    <path class="cls-10" d="M629.19,835.36c-2.94,12.42-4.13,25.15-3.89,37.89.43,23.01-6.19,48.97-14.21,71.67h0c-.63.45-32.84,23.25-62.24-5.3-5.44-23-5.44-36.8-1.36-59.8,4.08-23,2.72-30.24,2.72-30.24l-2.95-25.11v-.05s-13.35-113.51-13.35-113.51l-1.9-10.98c-.25-1.43-1.58-2.09-2.75-1.84-.46.09-.9.33-1.23.72-.17.2-.31.44-.42.72l-1.21,3.29c-1.33,3.61-1.96,7.44-1.85,11.28.67,24.14,3.29,116.85,5.11,152.75v.09c.08,1.42.15,2.76.22,4,1.28,22.81-5.18,52.68-10.36,72.34-3.37,12.77-4.79,25.94-4.34,39.12.54,15.66-.49,34.33-2.16,53.23h0s-35.42,34.04-73.57.01c-7.17-51.32,4.39-83.73,8.13-106.28,5.41-32.6-16.96-118.55-16.96-118.55-33.61-106.14-15.93-185.11,1.26-228.34,7.94-19.99,14.33-32.7,16.94-36.56,13.81,6.15,75.64,32.66,164.12,1.88,8.77,9.4,14.65,22.31,18.54,34.82.7,2.22,1.37,4.45,2,6.68v.05c2.05,7.15,3.8,14.38,5.31,21.67,18.07,87.33.26,182.7-9.59,224.34Z"/>
    <path class="cls-12" d="M572.94,151.66c-.81,0-.81,1.25,0,1.25s.81-1.25,0-1.25Z"/>
    <path class="cls-12" d="M558.49,178.11c-.05-.16-.14-.29-.26-.4-.08-.07-.17-.13-.25-.2-.2-.11-.41-.17-.63-.17-.11.01-.22.03-.33.04-.21.06-.4.17-.55.32-.09.09-.19.19-.28.28-.12.11-.21.25-.26.4-.08.15-.11.31-.11.48,0,.17.03.33.11.48.05.16.14.29.26.4.08.07.17.13.25.2.2.11.41.17.63.17.11-.01.22-.03.33-.04.21-.06.4-.17.55-.32.09-.09.19-.19.28-.28.12-.11.21-.25.26-.4.08-.15.11-.31.11-.48,0-.17-.03-.33-.11-.48Z"/>
    <path class="cls-12" d="M567.4,174.22c-.05-.16-.14-.29-.26-.4-.11-.12-.25-.21-.4-.26-.15-.08-.31-.11-.48-.11-.11.01-.22.03-.33.04-.21.06-.4.17-.55.32-.07.08-.13.17-.2.25-.11.2-.17.41-.17.63v.56c0,.17.03.33.11.48.05.16.14.29.26.4.11.12.25.21.4.26.15.08.31.11.48.11.11-.01.22-.03.33-.04.21-.06.4-.17.55-.32.07-.08.13-.17.2-.25.11-.2.17-.41.17-.63v-.56c0-.17-.03-.33-.11-.48Z"/>
    <path class="cls-12" d="M575.72,168.16c-1.61,0-1.61,2.51,0,2.51s1.62-2.51,0-2.51Z"/>
    <path class="cls-12" d="M564.59,182.35c-1.61,0-1.62,2.51,0,2.51s1.61-2.51,0-2.51Z"/>
    <path class="cls-12" d="M577.92,175.74c-.09-.19-.19-.37-.28-.56-.08-.15-.19-.26-.32-.35-.12-.11-.26-.19-.43-.22-.17-.05-.33-.06-.5-.02-.17,0-.32.06-.47.15l-.25.2c-.16.16-.26.34-.32.55-.02.11-.03.22-.04.33,0,.23.06.44.17.63.09.19.19.37.28.56.08.15.19.26.32.35.12.11.26.19.43.22.17.05.33.06.5.02.17,0,.32-.06.47-.15.08-.07.17-.13.25-.2.16-.16.26-.34.32-.55.01-.11.03-.22.04-.33,0-.23-.06-.44-.17-.63Z"/>
    <path class="cls-12" d="M572.94,182.35c-1.61,0-1.61,2.51,0,2.51s1.61-2.51,0-2.51Z"/>
    <path class="cls-12" d="M492.3,172.42c-.06-.21-.17-.4-.32-.55l-.28-.28c-.11-.12-.25-.21-.4-.26-.15-.08-.31-.11-.48-.11-.17,0-.33.03-.48.11-.16.05-.29.14-.4.26-.07.08-.13.17-.2.25-.11.2-.17.41-.17.63.01.11.03.22.04.33.06.21.17.4.32.55.09.09.19.19.28.28.11.12.25.21.4.26.15.08.31.11.48.11.17,0,.33-.03.48-.11.16-.05.29-.14.4-.26.07-.08.13-.17.2-.25.11-.2.17-.41.17-.63-.02-.11-.03-.22-.04-.33Z"/>
    <path class="cls-12" d="M498.92,175.89c-.05-.16-.14-.29-.26-.4-.11-.12-.25-.21-.4-.26-.15-.08-.31-.11-.48-.11-.11.01-.22.03-.33.04-.21.06-.4.17-.55.32-.07.08-.13.17-.2.25-.11.2-.17.41-.17.63v.28c0,.17.03.33.11.48.05.16.14.29.26.4.11.12.25.21.4.26.15.08.31.11.48.11.11-.01.22-.03.33-.04.21-.06.4-.17.55-.32.07-.08.13-.17.2-.25.11-.2.17-.41.17-.63v-.28c0-.17-.03-.33-.11-.48Z"/>
    <path class="cls-12" d="M506.12,177.06c-1.61,0-1.61,2.51,0,2.51s1.61-2.51,0-2.51Z"/>
    <path class="cls-12" d="M493.69,178.54c-.06-.21-.17-.4-.32-.55-.08-.07-.17-.13-.25-.2-.2-.11-.41-.17-.63-.17h-.28c-.17,0-.33.03-.48.11-.16.05-.29.14-.4.26-.12.11-.21.25-.26.4-.08.15-.11.31-.11.48.02.11.03.22.04.33.06.21.17.4.32.55.08.07.17.13.25.2.2.11.41.17.63.17h.28c.17,0,.33-.03.48-.11.16-.05.29-.14.4-.26.12-.11.21-.25.26-.4.08-.15.11-.31.11-.48-.01-.11-.03-.22-.04-.33Z"/>
    <path class="cls-12" d="M503.93,182.57c-.05-.16-.14-.29-.26-.4-.11-.12-.25-.21-.4-.26-.15-.08-.31-.11-.48-.11-.11.01-.22.03-.33.04-.21.06-.4.17-.55.32-.07.08-.13.17-.2.25-.11.2-.17.41-.17.63v.28c0,.17.03.33.11.48.05.16.14.29.26.4.11.12.25.21.4.26.15.08.31.11.48.11l.33-.04c.21-.06.4-.17.55-.32.07-.08.13-.17.2-.25.11-.2.17-.41.17-.63v-.28c0-.17-.03-.33-.11-.48Z"/>
    <path class="cls-12" d="M495.27,185.42c-1.61,0-1.61,2.51,0,2.51s1.61-2.51,0-2.51Z"/>
    <path class="cls-12" d="M483.95,283.56c6.38,1.28,13.02,1.22,19.46,2.5,6.47,1.28,12.69,3.33,18.94,5.4,1.08.36,1.86-1.4.79-1.87-6.38-2.83-13.13-4.68-19.99-5.96-6.1-1.14-13.04-2.37-19.2-1.37-.66.11-.63,1.17,0,1.3h0Z"/>
    <path class="cls-12" d="M542.19,291.22c4.44-1.21,8.54-3.62,12.89-5.17,4.37-1.56,8.85-2.9,13.34-4.07,1.04-.27.59-1.78-.44-1.59-8.6,1.6-19.42,4.19-26.37,9.84-.48.39.04,1.14.58.99h0Z"/>
    <path class="cls-12" d="M528.94,357.47c.03,6.25-.29,12.72.44,18.93.14,1.21,1.86,1.27,1.93,0,.37-6.25-.34-12.68-.67-18.93-.06-1.08-1.7-1.1-1.7,0h0Z"/>
    <path class="cls-12" d="M455.38,469.65s65.15,38.99,146.59,12.69l5.42-18.27h-153.69l1.69,5.58Z"/>
    <path class="cls-9" d="M632.67,366.09l-21.6-92.14s-8.63-6.9-16.69-5.43c0,0,15.4,72.15-39.39,90.42-9.18,3.06-16.67,16.56-23.8,13.78-7.13,2.77-15.87-10.72-25.06-13.78-54.8-18.27-39.39-90.42-39.39-90.42-8.07-1.47-16.69,5.43-16.69,5.43l-21.6,92.14c-11.29,29.71,8.58,49.56,8.58,49.56,3.55,10.36,10.17,50.68,10.17,50.68,31.84,13.54,59.89,18.08,83.37,17.95,23.48.13,51.53-4.4,83.37-17.95,0,0,6.61-40.32,10.17-50.68,0,0,19.87-19.85,8.58-49.56Z"/>
    <path class="cls-11" d="M515.67,104.59c-.05,0-.1.01-.15.02-1.08.13-2.12.29-3.13.49-1.61-2.49-2.96-5.24-4.22-7.79-1.85-3.69-3.2-7.56-4.16-11.57-.39-1.62-.76-3.3-1.09-5.02,1.17-.56,2.31-1.04,3.45-1.46.4,1.83.88,3.65,1.4,5.44,1.12,3.77,2.42,7.5,3.78,11.19,1.13,3.04,2.71,5.83,4.12,8.69Z"/>
    <path class="cls-11" d="M542.79,90.12c-.36,4.27-.93,9.02-2.45,13.22h0c-1.11-.05-2.26-.09-3.42-.1,1-4.55,2.37-8.93,2.76-13.67.23-2.83.28-5.65.14-8.46,1-.18,1.99-.34,2.96-.49.26,3.16.28,6.33.02,9.51Z"/>
    <path class="cls-11" d="M552.68,89.97c-.41,1.25-2.41,1.08-2.37-.33.07-2.57.49-5.07.31-7.65-.06-.73-.16-1.45-.28-2.15.94-.04,1.86-.08,2.76-.08.64,3.51.55,7.27-.41,10.2Z"/>
    <path class="cls-11" d="M496.95,103.94c-4.37-2.67-7.11-7.67-8.37-12.76.7-.74,1.42-1.45,2.15-2.15.43,2.08,1.13,4.09,2.1,5.99,1.42,2.77,3.5,4.83,5.44,7.19.75.91-.2,2.41-1.33,1.72Z"/>
    <path class="cls-11" d="M593.82,150.9c-6.89-.06-10.56,7.32-10.56,7.32-.28-5.31-.73-10.19-1.38-14.66h0s12.81-6.03,12.38-26.54c2.8,17.21-.44,33.89-.44,33.89Z"/>
    <path class="cls-12" d="M380.07,482.19c.2-9.64-2.71-18.89-8.08-26.86l-1.9,1.9c6.64,3.93,11.22,9.03,15.91,15.02.77.98,2.1-.27,1.63-1.26-3.35-6.95-9.53-12.37-16.13-16.16-1.13-.65-2.74.72-1.9,1.9,5.49,7.64,8.13,16.08,8.31,25.46.03,1.39,2.14,1.4,2.17,0h0Z"/>
    <path class="cls-12" d="M677.8,466.72c2.72-4.38,5.65-7.82,10.64-9.56l-1.15-1.97c-5.55,6.17-9.28,14.67-8.41,23.1.13,1.25,1.84,1.26,1.96,0,.77-8.12,2.78-15.07,8.12-21.44.67-.8.06-2.42-1.15-1.97-5.17,1.95-9.89,5.74-11.35,11.27-.21.81.9,1.27,1.34.56h0Z"/>
    <path class="cls-1" d="M493.36,674.81c3.75,6.14,9.81,10.98,15.78,14.88,5.32,3.47,13.54,8.65,20.12,8.38,1.05-.04,1.42-1.39.53-1.95-2.51-1.6-5.62-2.13-8.38-3.21-3.56-1.39-7-3.09-10.26-5.08-6.35-3.85-11.26-8.94-16.78-13.79-.52-.46-1.4.13-1,.77h0Z"/>
    <path class="cls-1" d="M528.43,698.27c15.93-2.4,33.75-14.68,41.15-29.08.56-1.1-.94-2.46-1.81-1.4-5.4,6.57-10.37,12.76-17.39,17.75-6.99,4.96-14.52,7.8-22.54,10.57-1.39.48-.81,2.37.59,2.16h0Z"/>
    <path class="cls-1" d="M467.84,671.06c4.73,8.08,14.59,12.82,22.88,16.29,11.6,4.86,23.53,9.02,35.55,12.69,2.06.63,2.94-2.6.89-3.22-10.99-3.3-21.91-6.81-32.7-10.72-10.13-3.67-18.28-7.8-25.5-15.9-.54-.61-1.52.17-1.11.86h0Z"/>
    <path class="cls-1" d="M529.36,606.36c-15.92,0-29.71-2.28-41.04-5.31-33.74-9.04-53.37-26.57-53.56-26.75-.36-.33-.49-.84-.32-1.3,5.53-15.04,13.27-27.59,13.35-27.72.31-.5.94-.7,1.48-.47,43.73,18.33,85.75,17.87,113.3,14.26,29.89-3.92,49.68-12.29,49.88-12.37.45-.19.97-.09,1.32.25,10.1,10.1,16.61,28.18,16.88,28.95.19.55-.03,1.15-.54,1.44-38.7,22.07-72.95,29.03-100.76,29.03ZM436.98,573.05c3.52,2.96,22.14,17.72,52.08,25.72,30.49,8.14,79.31,10.72,138.98-23.01-1.45-3.77-7.26-18.03-15.41-26.55-3.94,1.58-22.77,8.69-49.66,12.22-27.66,3.64-69.76,4.13-113.67-14.01-1.78,3.01-7.74,13.42-12.32,25.63Z"/>
    <path class="cls-1" d="M529.66,866.86l-15.39-171.55,14.99,1.71v1.08c-.7.14-1.34.61-1.65,1.44l-1.21,3.29c-1.33,3.61-1.96,7.44-1.85,11.28.67,24.14,3.29,116.85,5.11,152.75Z"/>
    <path class="cls-1" d="M540.84,719.38l6.41,105.05-13.35-113.51-1.9-10.98c-.25-1.43-1.58-2.09-2.75-1.84-.46.09-.9.33-1.23.72l-.06-.39,2.46-1.82,22.14-10.86-4.48,6.72c-5.29,7.94-7.84,17.39-7.26,26.91Z"/>
    <path class="cls-1" d="M436.95,1004.46c22.32,15.93,53.1,16.78,77.13,4.28,1.94-1.01.22-3.97-1.72-2.94-23.59,12.44-51.76,10.45-74.39-3.08-1.14-.68-2.07,1.01-1.02,1.75h0Z"/>
    <path class="cls-1" d="M544.75,909.01c21.63,15.05,50.33,17.92,74.8,8.55,1.94-.75,1.1-3.91-.87-3.15-24.16,9.31-50.95,6.32-72.94-7.09-1.09-.66-2.01.98-.99,1.69h0Z"/>
    <path class="cls-1" d="M574.95,855.55c10.52,7.68,27.87,9.43,38.95,1.83,1-.69.41-2.62-.89-2.11-6.04,2.39-11.46,4.39-18.08,4.24-6.88-.16-13.01-2.37-18.87-5.85-1.24-.73-2.22,1.08-1.11,1.89h0Z"/>
    <path class="cls-1" d="M473.45,896.14c1.96,3.66,4.66,6.88,6.63,10.56,1.98,3.69,3.19,7.68,5,11.42.64,1.32,2.47.34,2.24-.94-1.38-7.45-6.6-17.26-12.37-22.19-.81-.69-2.03.17-1.5,1.16h0Z"/>
    <path class="cls-1" d="M507.75,920.54c1.8-1.28,3.41-2.84,5.05-4.31,1.61-1.44,3.54-2.81,4.76-4.6.72-1.07-.66-2.22-1.67-1.67-1.79.96-3.28,2.68-4.78,4.05-1.64,1.49-3.39,2.93-4.85,4.59-.87.99.28,2.8,1.5,1.94h0Z"/>
    <path class="cls-9" d="M547.88,609.79c-.99-6.62-3.09-13.06-6.1-19.04-3.34-6.65-7.87-12.73-13.31-17.81-.64-.6-1.45-.35-1.87.18-.38.13-.71.43-.77.83-.03.15-.05.31-.07.46-.03.02-.05.04-.07.06-.58-.11-1.36.25-1.45.89-.01.1-.02.21-.04.31-7.59,7.87-12.96,17.91-15.12,28.64-.55,2.74-.75,6.03,1.57,8.05,2.04,1.79,4.77,1.39,6.62-.45,1.89-1.89,2.79-4.58,3.74-7,.58-1.49,1.13-3,1.65-4.52-.48,6.4-.77,12.81-.83,19.23-.04,4.31.02,8.62.17,12.92.06,1.61,2.56,1.62,2.51,0-.41-11.83-.1-23.67.93-35.46.81,3.18,1.9,6.3,3.27,9.32,2.08,4.58,4.95,8.81,6.65,13.56,1.72,4.81,1.67,9.7.13,14.55-1.77,5.56-5,10.55-8.19,15.39-.89,1.35,1.28,2.61,2.16,1.26,5.56-8.42,11.53-18.17,9.24-28.7-1.09-5-3.79-9.44-6.14-13.92-2.45-4.68-4.28-9.61-5.33-14.8-.39-1.95-.67-3.93-.84-5.91.02-.15.03-.29.05-.44.18-1.53.39-3.06.6-4.59,1.51,12.28,4.14,24.72,12.44,34.28,1.08,1.25,2.38,2.59,4.07,2.92,1.54.3,3.03-.33,3.9-1.62,1.63-2.43.88-5.9.48-8.57ZM522.49,592.01c-.69,2.74-1.49,5.45-2.4,8.12-.87,2.55-1.77,5.17-2.97,7.58-.68,1.37-2.12,3.91-4.04,3.25-2.43-.83-1.96-4.23-1.57-6.13.99-4.83,2.63-9.53,4.86-13.92,2.02-3.98,4.51-7.69,7.41-11.07-.12,2.1-.13,4.21-.02,6.31-.37,1.97-.79,3.93-1.27,5.87ZM544.94,617.37c-1.14.76-2.51-.73-3.21-1.48-4.25-4.63-7.07-10.49-8.93-16.44-2.29-7.34-3.18-15-3.97-22.63,7.8,8.05,13.3,18.21,15.79,29.16.63,2.79,1.32,5.82,1.24,8.7-.02.86-.12,2.17-.92,2.69Z"/>
    <path class="cls-4" d="M614.43,442.98c-42.06,16.67-89.16,20.31-133.32,10.51-12.48-2.77-24.51-6.81-36.5-11.2-1.17-.43-2,1.5-.85,2.03,20.43,9.47,43.2,14.56,65.54,16.77,22.86,2.26,45.92,1.1,68.43-3.5,12.86-2.62,25.45-6.39,37.65-11.22,2.08-.82,1.17-4.22-.93-3.39Z"/>
    <path class="cls-4" d="M582.93,420.96c-8.19-3-16.79-4.96-25.21-7.18-6.9-1.82-14.4-4.84-21.64-4.06-5.8.62-11.1,3.23-16.34,5.62-2.9,1.32-5.82,2.65-8.88,3.54-3.37.97-6.47.88-9.92.82-1.03-.02-1.1,1.37-.23,1.7,5.15,1.93,11.41-.19,16.22-2.16,5.71-2.34,11.19-5.52,17.31-6.72,7.61-1.5,15.54,1.8,22.8,3.74,8.42,2.25,16.86,4.83,25.46,6.28,1.03.17,1.43-1.21.43-1.57Z"/>
    <path class="cls-12" d="M218.2,402.02c-.47,0-.87-.37-.9-.85-.03-.5.35-.92.85-.95,1.41-.08,5.45-.55,7.24-1.82.41-.29.97-.19,1.25.22.29.41.19.97-.22,1.25-2.58,1.82-7.95,2.13-8.18,2.14-.02,0-.03,0-.05,0Z"/>
    <path class="cls-12" d="M167.55,415.89c-.42,0-.8-.3-.88-.73l-1.87-9.81c-.48-2.52-.01-5.13,1.31-7.34,3.7-6.18,12.53-14.66,21.67-12.71.49.1.79.58.69,1.07-.1.49-.58.8-1.07.69-8.23-1.76-16.32,6.14-19.75,11.87-1.1,1.84-1.49,4-1.09,6.08l1.87,9.81c.09.49-.23.96-.71,1.05-.06.01-.11.02-.17.02Z"/>
    <path class="cls-10" d="M217.57,406c-.94,6.33-5.73,10.86-10.69,10.12-4.96-.74-8.22-6.47-7.28-12.8s5.73-10.86,10.69-10.12c4.96.74,8.22,6.47,7.28,12.8Z"/>
    <path class="cls-12" d="M189.48,422.78c-.4,0-.76-.27-.87-.67l-2.77-10.67c-1.13-4.37-.28-8.98,2.33-12.64,4.35-6.1,10.55-13.72,15.44-15.35.17-.06.36-.06.53-.01.1.03,2.41.71,3.11,2.61.42,1.14.17,2.41-.73,3.76l-.33.49c-2.53,3.78-6.35,9.5-5.79,14.57.59,5.32,5.72,12.01,5.77,12.08.3.39.23.96-.16,1.26-.39.3-.96.23-1.26-.16-.22-.29-5.49-7.16-6.13-12.98-.64-5.72,3.41-11.77,6.08-15.77l.33-.49c.57-.85.75-1.57.54-2.15-.27-.73-1.15-1.21-1.66-1.41-3.45,1.33-8.5,6.49-14.26,14.58-2.3,3.23-3.05,7.3-2.05,11.15l2.77,10.67c.12.48-.16.97-.64,1.1-.08.02-.15.03-.23.03Z"/>
    <path class="cls-12" d="M843.03,401.39s-.03,0-.05,0c-.23-.01-5.6-.32-8.18-2.14-.41-.29-.5-.85-.22-1.25.29-.41.85-.5,1.25-.22,1.79,1.26,5.84,1.74,7.24,1.82.5.03.88.45.85.95-.03.48-.42.85-.9.85Z"/>
    <path class="cls-10" d="M843.66,405.37c.94,6.33,5.73,10.86,10.69,10.12,4.96-.74,8.22-6.47,7.28-12.8s-5.73-10.86-10.69-10.12c-4.96.74-8.22,6.47-7.28,12.8Z"/>
    <path class="cls-12" d="M884.9,417.77c-.09,0-.18-.01-.27-.04-.47-.15-.73-.66-.58-1.13l1.77-5.57c1.52-4.76.39-10.03-2.94-13.76l-7.88-8.83c-2.09-2.35-4.46-4.23-7.03-5.59-2.97-1.57-5.46-2.12-7.19-1.59-1.03.32-1.82,1.02-2.4,2.13-.23.44-.77.61-1.21.38-.44-.23-.61-.77-.38-1.21.81-1.54,1.97-2.55,3.46-3.01,2.24-.69,5.12-.11,8.57,1.71,2.76,1.46,5.3,3.47,7.53,5.98l7.88,8.83c3.75,4.2,5.02,10.14,3.31,15.5l-1.77,5.57c-.12.38-.48.63-.86.63Z"/>
    <path class="cls-12" d="M895.38,424.35c-.22,0-.44-.08-.61-.24-.36-.34-.38-.91-.04-1.27l11.45-12.21c.34-.36.91-.38,1.27-.04.36.34.38.91.04,1.27l-11.45,12.21c-.18.19-.42.28-.66.28Z"/>
    <path class="cls-12" d="M893.67,415.27c-.06,0-.11,0-.17-.02-.49-.09-.81-.56-.71-1.05l1.87-9.81c.4-2.08,0-4.25-1.09-6.08-3.43-5.74-11.52-13.63-19.75-11.87-.48.1-.96-.21-1.07-.69-.1-.49.21-.96.69-1.07,9.15-1.96,17.97,6.53,21.67,12.71,1.33,2.22,1.79,4.83,1.31,7.34l-1.87,9.81c-.08.43-.46.73-.88.73Z"/>
    <path class="cls-12" d="M871.75,422.16c-.08,0-.15,0-.23-.03-.48-.12-.77-.61-.64-1.1l2.77-10.67c1-3.85.25-7.92-2.05-11.15-5.77-8.1-10.81-13.25-14.26-14.58-.52.21-1.4.69-1.66,1.42-.21.57-.03,1.29.54,2.14l.33.49c2.68,4,6.72,10.04,6.08,15.77-.65,5.82-5.91,12.69-6.13,12.98-.3.39-.87.47-1.26.16-.39-.3-.47-.87-.16-1.26.05-.07,5.18-6.76,5.77-12.08.56-5.07-3.26-10.79-5.79-14.57l-.33-.49c-.9-1.35-1.15-2.62-.73-3.76.7-1.9,3.01-2.58,3.11-2.61.17-.05.36-.05.53.01,4.88,1.63,11.09,9.24,15.43,15.35,2.61,3.67,3.46,8.27,2.33,12.64l-2.77,10.67c-.11.4-.47.67-.87.67Z"/>
    <path class="cls-10" d="M797.14,417.3c.22,5.94,2.02,15.86,10.13,26.28.94,1.21.74,2.95-.49,3.88l-6.07,4.56c-1.05.79-2.51.72-3.48-.16-4.05-3.72-13.68-14.27-12.38-29.39.07-.77.45-1.49,1.06-1.96l6.84-5.25c1.75-1.35,4.31-.16,4.39,2.05Z"/>
    <path class="cls-10" d="M787.67,446.72h32.57v.33c0,3.96-3.22,7.18-7.18,7.18h-18.22c-3.96,0-7.18-3.22-7.18-7.18v-.33h0Z" transform="translate(-116.21 501.14) rotate(-32.41)"/>
    <path class="cls-6" d="M585.73,168.96c1.8-1.53,4.4-1.91,6.48-.78,1.77.95,3.14,2.86,1.5,6.68-2.95,6.87-8.54,15.51-9.63,17.17-.12.18-.31.28-.52.28h-1.04c-.32,0-.59-.24-.62-.56l-.16-1.44c-.01-.12,0-.24.06-.34l5.06-10.3c.63-1.28.27-2.85-.91-3.66-1.95-1.35-4-3.82-.21-7.04Z"/>
    <path class="cls-6" d="M482.08,170.84c-1.8-1.53-4.4-1.91-6.48-.78-1.77.95-3.14,2.86-1.5,6.68,2.95,6.87,8.54,15.51,9.63,17.17.12.18.31.28.52.28h1.04c.32,0,.59-.24.62-.56l.16-1.44c.01-.12,0-.24-.06-.34l-5.06-10.3c-.63-1.28-.27-2.85.91-3.66,1.95-1.35,4-3.82.21-7.04Z"/>
    <path class="cls-12" d="M582.31,183.76c-.3,0-.6-.11-.83-.33-.48-.46-.49-1.22-.03-1.69l2.79-2.9c.78-.81.98-2.04.51-3.05l-.73-1.56c-1.09-2.34-.26-5.14,1.93-6.52l2.58-1.62c.56-.35,1.3-.18,1.65.38.35.56.18,1.3-.38,1.65l-2.58,1.62c-1.17.73-1.61,2.23-1.03,3.48l.73,1.56c.89,1.91.51,4.21-.95,5.73l-2.79,2.9c-.23.24-.55.37-.86.37Z"/>
    <path class="cls-12" d="M485.99,184.38c-.31,0-.63-.12-.86-.37l-2.79-2.9c-1.46-1.52-1.84-3.82-.95-5.73l.73-1.56c.58-1.25.14-2.74-1.03-3.48l-2.58-1.62c-.56-.35-.73-1.09-.38-1.65.35-.56,1.09-.73,1.65-.38l2.58,1.62c2.19,1.37,3.02,4.18,1.93,6.52l-.73,1.56c-.47,1.02-.27,2.25.51,3.05l2.79,2.9c.46.48.44,1.24-.03,1.69-.23.22-.53.33-.83.33Z"/>
    <path class="cls-7" d="M527.83,1283.4c-2.17,7.99-8.54,14.13-16.59,16.09-24.04,5.85-38.56-3.68-48.81-19.42-8.57-13.17-2.56-45.87,2.51-72.61.01-.08.02-.12.02-.12.92-4.86,1.81-9.52,2.57-13.83.7-3.9,1.28-7.5,1.7-10.71.74-5.71.83-12.06.53-18.52,0,0,18.71,38.3,39.9,0,1.64,7.51,3.06,11.95,3.06,11.95,0,0,.78,4.79,2.69,14.5,2.1,10.65,5.57,27.22,10.91,49.91,1.63,6.93,2.6,13.07,3.08,18.5h0c.94,10.64,0,18.54-1.56,24.27Z"/>
    <path class="cls-1" d="M527.83,1283.4c-2.17,7.99-8.54,14.13-16.59,16.09-24.04,5.85-38.56-3.68-48.81-19.42-8.57-13.17-2.56-45.87,2.51-72.61-.39,2.51-6.47,42.81.02,61.32,3.79,10.8,11.44,17.9,17.38,22.02,6.89,4.8,15.46,6.73,23.67,4.94,10.26-2.24,22.04-10.56,23.38-36.6.94,10.64,0,18.54-1.56,24.26Z"/>
    <path class="cls-1" d="M504.48,1231.94l2.61,1.79c2.12,1.46,2.42,4.47.64,6.32l-8.51,8.82c-3,3.11-7.86,3.47-11.28.83l-10.04-7.74c-1.83-1.41-2.22-4.02-.89-5.9l2.9-4.1c1.02-1.45.8-3.43-.53-4.61l-1.98-1.77c-1.53-1.36-1.65-3.71-.27-5.23l1.48-1.63c1.67-1.84,1.43-4.72-.52-6.26l-.79-.62c-1.45-1.14-1.67-3.27-.47-4.68l1.19-1.4c1.91-2.24,1.29-5.67-1.27-7.1l-9.19-5.15h0c.7-3.91,1.28-7.52,1.7-10.72.74-5.71.83-12.06.53-18.52,0,0,18.71,38.3,39.9,0,1.64,7.51,3.06,11.95,3.06,11.95,0,0,.78,4.79,2.69,14.5l-14.36,8.02c-1.79,1-2.02,3.48-.45,4.79l1.23,1.03c1.82,1.52,1.86,4.3.09,5.88l-.91.82c-1.57,1.4-1.46,3.88.22,5.14l3.56,2.67c1.74,1.31,2.03,3.81.62,5.48l-1.66,1.96c-1.41,1.67-1.07,4.19.73,5.43Z"/>
    <path class="cls-1" d="M478.89,1175.85s-5.31-11.17,0-10.95c5.31.21,22.09,0,22.09,0,0,0,4.73-2.02.87,12.25-3.86,14.27-21.37,8.82-22.95-1.29Z"/>
    <path class="cls-9" d="M504.77,1213.89c-3.29-3.86-8.83-6.63-13.34-8.77-.03-.01-.06-.03-.09-.04,4.02-1.66,8.27-2.88,12.83-3.68,1.15-.2.9-2.21-.28-2.06-5.22.67-10.5,2.2-15.46,4.46-3.93-1.63-8.01-2.87-12.21-3.58-1.18-.2-2.16,1.5-.89,2.11.17.08.34.16.51.24.22.1.44.12.64.09,3.01.73,5.96,1.59,8.84,2.68-4.13,2.2-7.96,4.92-11.23,8.08-.87.84.4,2.05,1.31,1.31,4.1-3.35,8.31-6.07,12.77-8.22.81.35,1.61.72,2.4,1.11,4.62,2.29,8.3,5.68,12.68,8.24,1.27.74,2.39-.91,1.51-1.95Z"/>
    <path class="cls-9" d="M505.39,1230.17c-3.29-3.86-8.83-6.63-13.34-8.77-.03-.01-.06-.03-.09-.04,4.02-1.66,8.27-2.88,12.83-3.68,1.15-.2.9-2.21-.28-2.06-5.22.67-10.5,2.2-15.46,4.46-3.93-1.63-8.01-2.87-12.21-3.58-1.18-.2-2.16,1.5-.89,2.11.17.08.34.16.51.24.22.1.44.12.64.09,3.01.73,5.96,1.59,8.84,2.68-4.13,2.2-7.96,4.92-11.23,8.08-.87.84.4,2.05,1.31,1.31,4.1-3.35,8.31-6.07,12.77-8.22.81.35,1.61.72,2.4,1.11,4.62,2.29,8.3,5.68,12.68,8.24,1.27.74,2.39-.91,1.51-1.95Z"/>
    <path class="cls-9" d="M506.02,1246.46c-3.29-3.86-8.83-6.63-13.34-8.77-.03-.01-.06-.03-.09-.04,4.02-1.65,8.27-2.88,12.83-3.68,1.15-.2.9-2.21-.28-2.06-5.22.67-10.5,2.2-15.46,4.46-3.93-1.63-8.01-2.87-12.21-3.58-1.18-.2-2.16,1.5-.89,2.11.17.08.34.16.51.24.22.1.44.12.64.09,3.01.73,5.96,1.59,8.84,2.68-4.13,2.2-7.96,4.92-11.23,8.08-.87.84.4,2.05,1.31,1.31,4.1-3.35,8.31-6.07,12.77-8.22.81.35,1.61.72,2.4,1.11,4.62,2.29,8.3,5.68,12.68,8.24,1.27.74,2.39-.91,1.51-1.95Z"/>
    <path class="cls-9" d="M495.54,1168.86c-2.43-.49-6.23-.13-8.65.5-2.19.57-3.48,2.11-3.27,4.41.15,1.56.53,3.22,1,4.87.14.62.3,1.24.48,1.85.64,2.08,1.36,5.31,3.38,6.56,3.65,2.27,6.45-2.67,7.59-6.6,1.08-2.32,2.32-5,2.52-7.35.17-2.08-.97-3.82-3.06-4.23Z"/>
    <path class="cls-7" d="M601.07,1114.44c0,17.09-12.92,45.35-48.25,34.83-35.05-10.43-15.95-92.61-15.64-93.96v-.02s-3.92-18.02-5.63-30.29h0c-.3-2.19-.53-4.18-.66-5.86-.44-5.59,3.52-10.52,7.59-14.05,2.74-2.38,5.03-5.16,6.77-8.22.1.75,4.37,32.3,40.67,18.92.03.95.08,1.89.17,2.84l1.66,18.33.41,4.54s4.59,19.84,8.3,39.49c.04.26.09.51.14.77.01.05.02.1.03.15.23,1.23.46,2.46.68,3.68,0,.02,0,.04,0,.06,2.12,11.67,3.76,22.7,3.76,28.8Z"/>
    <path class="cls-1" d="M585.46,1082.85l-10.71,11.53c-1.63,1.76-4.32,2.03-6.27.63l-13.7-9.84c-1.55-1.12-1.76-3.35-.45-4.74l3.33-3.51c1.36-1.44,1.16-3.74-.43-4.91l-2.63-1.95c-1.51-1.11-1.79-3.25-.64-4.72l3.14-3.99c.92-1.18.79-2.87-.32-3.88l-1.85-1.7c-2.11-1.93-2.43-5.15-.73-7.45l1.44-1.96c1.35-1.85.9-4.45-.99-5.73l-23.08-15.61h0c-.3-2.19-.53-4.18-.66-5.86-.44-5.59,3.52-10.52,7.59-14.05,2.74-2.38,6.63-8.55,8.37-11.62.1.74,4.69,37.72,38.47,21.17.46-.22.99.12.95.63-.08,1.15-.24,2.67-.18,3.35l1.66,18.33-9.71,4.11c-1.44.61-1.8,2.47-.7,3.58l3.08,3.08c1.24,1.24,1.45,3.18.5,4.66l-2.84,4.42c-.66,1.02-.41,2.38.57,3.1l4.59,3.37c1.66,1.22,1.96,3.58.65,5.17l-2.7,3.29c-1.08,1.32-.76,3.28.68,4.19l2.93,1.85c1.76,1.11,2.07,3.55.66,5.07Z"/>
    <path class="cls-1" d="M601.07,1114.44c0,17.09-12.92,45.35-48.25,34.83-35.05-10.43-15.95-92.61-15.64-93.96v-.02s-3.38,43.92,0,56.83c3.38,12.9,4.85,32.96,31.57,34.82,26.94,1.88,32.34-36.73,28.55-61.3,2.12,11.67,3.76,22.7,3.76,28.8Z"/>
    <path class="cls-9" d="M585.33,1055.11c-3.56-3.96-8.11-7.13-12.92-9.49,2.73-1.33,5.52-2.51,8.23-3.99,1.16-.63.33-2.25-.85-2.03-3.56.68-7.17,2.51-10.48,4.6-3.1-1.28-6.32-2.21-9.63-2.77-2.18-.37-5.5-1.5-7.21.22-.19.19-.17.47,0,.67,1.41,1.68,4.49,1.22,6.52,1.62,2.56.5,5.08,1.23,7.52,2.15-.72.5-1.41,1.01-2.08,1.5-4.23,3.14-9.05,7.07-11.63,11.75-.47.85.61,1.66,1.32,1.02,4.18-3.82,7.58-8.06,12.3-11.34.93-.65,1.89-1.22,2.86-1.77,5.3,2.44,9.76,5.88,13.98,9.93,1.37,1.31,3.32-.67,2.07-2.07Z"/>
    <path class="cls-9" d="M587.21,1072.65c-3.56-3.96-8.11-7.13-12.92-9.49,2.73-1.33,5.52-2.51,8.23-3.99,1.16-.63.33-2.25-.85-2.03-3.56.68-7.17,2.51-10.48,4.6-3.1-1.28-6.32-2.21-9.63-2.77-2.18-.37-5.5-1.5-7.21.22-.19.19-.17.47,0,.67,1.41,1.68,4.49,1.22,6.52,1.62,2.56.5,5.08,1.23,7.52,2.15-.72.5-1.41,1.01-2.08,1.5-4.23,3.14-9.05,7.07-11.63,11.75-.47.85.61,1.66,1.32,1.02,4.18-3.82,7.58-8.06,12.3-11.34.93-.65,1.89-1.22,2.86-1.77,5.3,2.44,9.76,5.88,13.98,9.93,1.37,1.31,3.32-.67,2.07-2.07Z"/>
    <path class="cls-9" d="M589.09,1090.19c-3.56-3.96-8.11-7.13-12.92-9.49,2.73-1.33,5.52-2.51,8.23-3.99,1.16-.63.33-2.25-.85-2.03-3.56.68-7.17,2.51-10.48,4.6-3.1-1.28-6.32-2.21-9.63-2.77-2.18-.37-5.5-1.5-7.21.22-.19.19-.17.47,0,.67,1.41,1.68,4.49,1.22,6.52,1.62,2.56.5,5.08,1.23,7.52,2.15-.72.5-1.41,1.01-2.08,1.5-4.23,3.14-9.05,7.07-11.63,11.75-.47.85.61,1.66,1.32,1.02,4.18-3.82,7.58-8.06,12.3-11.34.93-.65,1.89-1.22,2.86-1.77,5.3,2.44,9.76,5.88,13.98,9.93,1.37,1.31,3.32-.67,2.07-2.07Z"/>
    <path class="cls-1" d="M555.61,1019.16s-2.51-20.49,1.88-19.37c4.38,1.12,11.9,6.22,21.92,4.47,8.68-1.51-1.25,19.28-1.25,19.28l-22.55-4.38Z"/>
    <path class="cls-9" d="M576.54,1011.04c-1.32-3.24-4.41-1.08-6.8-1.57-2.82-.58-4.77-2.73-7.51-.33-2.61,2.29-2.1,5.97-1.79,9.04.27,2.69.51,5.39.82,8.07.12,1.06.23,1.89.72,2.68.2.41.48.8.84,1.15,1.92,1.88,4.8,1.66,6.92.27,2.89-1.9,4.24-5.68,5.39-8.78,1.06-2.87,2.64-7.49,1.4-10.54Z"/>
  </g>
</svg>