<?xml version="1.0" encoding="UTF-8"?>
<svg id="people" xmlns="http://www.w3.org/2000/svg" viewBox="0 0 1046 1378">
  <defs>
    <style>
      .cls-1 {
        fill: #e29478;
      }

      .cls-2 {
        fill: #4a2515;
      }

      .cls-3 {
        fill: #1e2127;
      }

      .cls-4 {
        fill: #585765;
      }

      .cls-5 {
        fill: #b7cbed;
      }

      .cls-6 {
        fill: #523c6d;
      }

      .cls-7 {
        fill: #6989af;
      }

      .cls-8 {
        fill: #ffaa8d;
      }

      .cls-9 {
        fill: #aa624f;
      }

      .cls-10 {
        fill: #bc7461;
      }

      .cls-11 {
        fill: #b96241;
      }

      .cls-12 {
        fill: #b0b0b0;
      }

      .cls-13 {
        fill: #130903;
      }

      .cls-14 {
        fill: #fff;
      }

      .cls-15 {
        fill: #77569b;
      }

      .cls-16 {
        fill: #3c3c4c;
      }

      .cls-17 {
        fill: #fcfcfc;
      }

      .cls-18 {
        fill: #fcdeca;
      }
    </style>
  </defs>
  <g id="_7" data-name="7">
    <ellipse class="cls-13" cx="625.51" cy="1244.85" rx="33.03" ry="21.19" transform="translate(-755.83 1425.98) rotate(-70.79)"/>
    <ellipse class="cls-13" cx="521.73" cy="1202.04" rx="30.52" ry="17.13" transform="translate(-785.04 1299.25) rotate(-70.79)"/>
    <ellipse class="cls-13" cx="590.57" cy="1231.94" rx="33.28" ry="18.68" transform="translate(-767.08 1384.32) rotate(-70.79)"/>
    <ellipse class="cls-13" cx="551.32" cy="1216.48" rx="30.52" ry="17.13" transform="translate(-778.83 1336.87) rotate(-70.79)"/>
    <path class="cls-11" d="M634.3,1246.09c-2.87,8.25-9.49,13.44-14.78,11.6-5.29-1.84-7.25-10.03-4.38-18.27,2.87-8.25,9.49-13.44,14.78-11.6,5.29,1.84,7.25,10.03,4.38,18.27Z"/>
    <path class="cls-11" d="M597.66,1233.74c-2.78,7.97-8.5,13.23-12.78,11.73-4.28-1.49-5.5-9.16-2.72-17.13,2.78-7.97,8.5-13.23,12.78-11.74,4.28,1.49,5.5,9.16,2.72,17.13Z"/>
    <path class="cls-11" d="M558.59,1218c-2.55,7.31-7.79,12.13-11.72,10.76s-5.04-8.4-2.49-15.71c2.55-7.31,7.79-12.13,11.72-10.76,3.92,1.37,5.04,8.4,2.49,15.71Z"/>
    <path class="cls-11" d="M526.44,1203.62c-2.35,6.73-7.18,11.17-10.79,9.91-3.61-1.26-4.64-7.74-2.3-14.47,2.35-6.73,7.18-11.17,10.79-9.91s4.64,7.74,2.3,14.47Z"/>
    <ellipse class="cls-11" cx="164.34" cy="1230.59" rx="14.95" ry="23.36" transform="translate(-1013.82 839.09) rotate(-64.01)"/>
    <path class="cls-13" d="M175.28,1238.68c-8.6,14.9-20.88,23.9-27.44,20.12-6.55-3.78-4.9-18.93,3.7-33.82,8.6-14.9,20.88-23.9,27.44-20.12,6.55,3.78,4.9,18.93-3.7,33.82Z"/>
    <path class="cls-1" d="M907.44,575.82l-6.85,23.98c-.98,3.46-3.02,6.51-5.83,8.76l-3.16,2.53c-2.1,1.68-3,2.24-5.69,2.24h0c-1.54.17-2.8-1.21-2.48-2.73l2.25-10.82c.34-1.65.19-3.38-.45-4.94l-3.92-9.59c-.5-1.23-2.22-1.33-2.83-.15-1.2,2.29-2.2,6.5-.12,13.57,2.07,7.05.24,10.97-1.66,13.02-1.1,1.19-3.07.76-3.58-.78-.95-2.91-2.95-8.06-6.91-15.1-4.8-8.54-6.61-35.18-7.23-48.13-.22-4.74-1.98-9.27-5-12.94l-45.67-55.43,38.97-20.82,2.49-1.33.95,2.2,27.89,64.46c1.28,2.96,2.93,5.73,4.91,8.25.02.03.06.07.08.1,1.36,1.74,2.9,3.37,4.57,4.85l9.47,8.41c2.32,2.06,3.79,4.89,4.15,7.97l.47,4.02c.26,2.21,1.06,4.31,2.32,6.14l1.12,1.61c2.14,3.1,2.79,7,1.75,10.63Z"/>
    <path class="cls-9" d="M883.51,532.09c-17.86-21.38-36.24-61.11-36.24-61.11v-12.48l3.44.87,27.89,64.46c1.28,2.96,2.93,5.73,4.91,8.25Z"/>
    <path class="cls-16" d="M727.19,325.04c-14.54,24.73-245.8,139.63-245.8,139.63,0,0,5.82-40.73-24.73-42.18-28.28-1.35-46.65,26.71-85-2.58-7.62-5.82-17.07-8.75-26.65-8.27-7.6.39-16.15,1.47-22.07,4.09-11.02,4.9-42.64-3.6-39.36-15.09v-.02c.62-2.16,2.46-4.42,5.91-6.71,21.82-14.54,27.54-25.25,26.08-35.43-1.45-10.18-8.73-97.45,71.27-95.99,79.99,1.45,132.36,4.36,135.26-14.55,2.91-18.9,15.82-36.81,49.8-35.24,5.97.27,13.67.6,22.32.94,22.12.87,50.38,1.88,71.51,2.61,17.61.61,30.26,1.03,30.26,1.03,0,0,.66,20.48,16.66,30.66,16,10.18,21.82,26.18,10.18,33.46-11.64,7.27,0,15.99,0,15.99,0,0,18.91,2.91,4.36,27.64Z"/>
    <path class="cls-3" d="M727.19,325.04c-14.54,24.73-245.8,139.63-245.8,139.63,0,0,5.82-40.73-24.73-42.18-28.28-1.35-46.65,26.71-85-2.58-7.62-5.82-17.07-8.75-26.65-8.27-7.6.39-16.15,1.47-22.07,4.09-11.02,4.9-42.64-3.6-39.36-15.09-2.32,14.63,112.77,5.89,118.94-48.37,6.16-54.28,77.6-53.95,77.6-53.95,0,0,73.49-18.72,70.48-44.1-3.01-25.38,29.78-28.42,29.78-28.42,4.51-4.98,9.16-8.99,13.85-12.16,25.58-17.26,52.95-9.57,71.51,2.61,12.51,8.21,21.01,18.46,22.26,24.47,3.43,16.58,14.08,24.14,14.08,24.14l20.76,16.54c-11.64,7.27,0,15.99,0,15.99,0,0,18.91,2.91,4.36,27.64Z"/>
    <path class="cls-6" d="M328.38,541.85s-10.51,7.34,6.31,19.79c16.82,12.46,22.76,55.83,37.37,80.97,42.35,72.87,199.08,89.67,325.63-76.93l-369.31-23.83Z"/>
    <path class="cls-10" d="M583.02,220.86s-10.37-9.9-10.86,3.62c-.49,13.52,19.74,30.43,19.74,30.43l-8.87-34.05Z"/>
    <path class="cls-17" d="M710.84,481.27l31-89.02-15.5-105.78s-68.12-43.72-192.48,12.03c0,0,5,146.52-37.88,198.69,0,0,120.25,110.38,214.86-15.93Z"/>
    <path class="cls-12" d="M531.71,371.08c50.47,34.88,114.79,45.93,173.98,29.6,16.76-4.62,33.43-11.18,48.29-20.26,1.46-.89.17-3.08-1.33-2.28-27.43,14.48-56.26,24.29-87.34,26.68-29.53,2.27-59.38-2-87.16-12.23-16.02-5.9-31.24-13.76-45.39-23.31-1.12-.75-2.15,1.04-1.05,1.8h0Z"/>
    <path class="cls-12" d="M530.04,397.12c11.99,8.77,26.09,16.47,40.37,20.7,14.48,4.29,30.1,5,45.07,6.3,30.3,2.63,61.04,3.79,91.19-1.04,16.03-2.57,33.44-6.38,47.71-14.4,1.08-.61.36-2.46-.86-2.04-8.81,3.05-17.33,6.66-26.35,9.13-9.4,2.57-18.99,4.41-28.66,5.64-18.4,2.35-37.02,2.58-55.53,1.81-19.15-.8-38.57-2.15-57.55-4.86-10.18-1.46-19.85-4.29-29.17-8.69-8.77-4.14-16.81-9.53-25.41-13.94-.94-.48-1.65.79-.82,1.4h0Z"/>
    <path class="cls-12" d="M529.9,336c16.8,4.87,33.45,9.52,49.71,16.06,15.34,6.17,29.81,14.78,45.48,20.05,12.85,4.33,25.83,4.42,38.4-.82,11.39-4.76,21.23-12.4,31.3-19.39,5.62-3.91,11.36-7.72,17.53-10.73,6.65-3.24,13.29-4.32,20.39-5.97,1.49-.35.96-2.29-.33-2.45-10.9-1.39-22.68,5.33-31.51,10.95-10.22,6.5-19.55,14.32-30.05,20.39-12.82,7.41-26.23,10.31-40.79,6.44-15.56-4.14-29.72-12.8-44.51-18.98-17.63-7.37-36.21-14.1-55.01-17.79-1.45-.29-2.07,1.82-.62,2.24h0Z"/>
    <path class="cls-12" d="M529.32,313.96c17.39-1.81,34.25-3.83,51.8-2.85,17.36.97,34.02,5.05,51.14,7.58,15.34,2.26,30.41,1.32,45.4-2.6,7.81-2.04,15.44-4.75,22.9-7.82,8.28-3.41,16.13-7.06,25.31-6.76,1.53.05,1.95-2.51.37-2.74-7.62-1.09-14.53,1.37-21.5,4.28-7.42,3.1-14.84,6.11-22.55,8.46-17.48,5.32-34.92,6.57-52.94,3.65-16.72-2.71-33.06-6.19-50.06-6.9-16.46-.68-34.08-.28-50.15,3.69-1.08.27-.89,2.12.27,2h0Z"/>
    <path class="cls-12" d="M511.4,429.37c15.45,10.95,33.2,20.17,50.57,27.66,16.51,7.12,33.76,11.77,51.62,13.9,18.95,2.25,38.15,1.75,57.12-.07,9.45-.91,18.87-2.15,28.25-3.58,4.92-.75,9.83-1.56,14.74-2.4,4.79-.82,9.98-1.26,14.5-3.07,1.37-.55,1.28-2.66-.36-2.69-8.56-.17-17.7,2.71-26.15,4.07-9.67,1.56-19.38,2.92-29.12,3.93-18.68,1.93-37.53,2.56-56.24.75-19.16-1.85-37.73-6.69-55.37-14.4-16.89-7.39-32.11-17.65-48.6-25.72-1.1-.54-1.94.93-.95,1.63h0Z"/>
    <path class="cls-12" d="M502.02,456.98c52.87,24.98,114.4,34.33,172.44,29.83,16.67-1.29,33.37-3.61,49.62-7.54,2.05-.49,1.17-3.54-.86-3.13-36.98,7.41-74.18,10.15-111.8,6.54-37.71-3.62-73.44-13.81-108.4-28.09-1.36-.56-2.35,1.76-1.01,2.39h0Z"/>
    <path class="cls-1" d="M691.31,315.61c-4.67,14.05-23.87,54.29-85.19,24.8-4.14-1.99-5.91-6.98-3.89-11.11,3.33-6.78,9.32-19.56,9.01-34.24-.09-4.03-.65-8.2-1.87-12.44,0-.01-1.87-8.72-1.87-8.72-.31-1.05-.53-2.08-.68-3.09,6.77-16.55,33.24-27.69,55.46-22.68,7.13,2.53,13.85,6.49,19.33,12.06,0,0-2.58,19.07,1.16,34.53.02.12.05.23.08.35,1.26,5.04,4.12,8.68,7.3,13.05,1.57,2.16,1.99,4.95,1.15,7.48Z"/>
    <path class="cls-9" d="M682.78,294.72c-6.79,7.36-17.22,16.85-28.76,17.37-24.45,1.09-36.79-8.88-42.78-17.04-.09-4.03-.65-8.2-1.87-12.44,0-.01-1.87-8.72-1.87-8.72-.31-1.05-.53-2.08-.68-3.09,6.77-16.55,33.24-27.69,55.46-22.68,7.13,2.53,13.85,6.49,19.33,12.06,0,0-2.58,19.07,1.16,34.53Z"/>
    <path class="cls-1" d="M643.95,297.35c-29.62,2.48-59.35-41.81-65.1-79.35-.32-2.05-.57-4.09-.73-6.1-3.24-38.64,19.47-72.09,50.7-74.7,30.38-2.54,57.64,25,62.1,62.05v.02c.13,1.05.23,2.1.33,3.16,3.24,38.64-16.05,92.3-47.28,94.91Z"/>
    <path class="cls-15" d="M854.71,468.61s-25.44,3.7-36.63,22.58c0,0-10.25-10.78-24.25-26.25-13.62-15.03-30.77-34.48-45.55-52.79,0,0,0,1.08-.06,3.11-.5,16.14-5.28,91.89-50.53,150.44l-219.02,6.98c-16.87.54-33.52,4.2-48.91,11.13-13.01,5.85-31.2,10.64-47.42,2.73-29.3-14.29-28.59-36.47-53.96-44.68,0,0,142.58-38.94,156.16-99.69,13.58-60.75-5.72-100.77,49.32-143.65l16.17-8.54.34-.18,2.49-1.31.07-.04,7.9-4.17c5.01-2.65,11.1.67,11.57,6.31,1.43,16.85,1.39,94.82,33.23,129.69,13.44,14.71,18.4,30.01,19.12,43.77.02.32.03.65.04.97.02.62.04,1.24.04,1.85.01,1.04,0,2.07-.03,3.1-.75,23.54-12.95,41.26-12.95,41.26l-17.25,45.92,75.17-37.2s-4.44-29.17,3.65-59.46c.13-.49.27-.98.4-1.48.26-.92.53-1.84.8-2.75,0,0,0-.01,0-.01.39-1.28.81-2.57,1.26-3.85,3.26-9.46,7.9-18.78,14.43-27.12,41.66-53.18,20.55-126.44,8.36-147.18-1.79-3.05,2.39-6.45,5.73-5.29,2.08.72,4.51,1.59,7.22,2.6.37.14.74.28,1.12.42,1.02.39,2.07.78,3.15,1.2.12.05.25.09.37.14,4,1.55,8.43,3.34,13.1,5.34,1.2.52,2.42,1.05,3.66,1.59,14.85,6.57,31.67,15.23,45.12,25.46,5.23,3.97,9.53,8.15,13.2,12.47,0,0,0,0,.01.02,18.49,21.72,20.95,46.87,44.8,66.54,24.14,19.92,16.17,29.98,16.56,40.02.02.66.08,1.31.19,1.97.19,1.2.54,2.4,1.11,3.63,5.72,12.27.66,34.42.66,34.42Z"/>
    <path class="cls-16" d="M589.78,222.59s15.64-12.65,24.83-10.44c9.19,2.21,1.51-13.46-15.21-8.02-16.73,5.44-17.33,19.06-9.61,18.46Z"/>
    <path class="cls-16" d="M667.44,205.03s-19.42-5.23-26.93.51c-7.51,5.74-6.83-11.7,10.66-13.5,17.5-1.8,23.57,10.41,16.26,12.99Z"/>
    <path class="cls-3" d="M610.69,227.05c.6,2.83-.7,5.51-2.9,5.97s-4.47-1.45-5.07-4.28c-.6-2.83.7-5.51,2.9-5.97,2.2-.47,4.47,1.45,5.07,4.28Z"/>
    <path class="cls-3" d="M656.79,217.08c.6,2.83-.7,5.51-2.9,5.97-2.2.47-4.47-1.45-5.07-4.28-.6-2.83.7-5.51,2.9-5.97s4.47,1.45,5.07,4.28Z"/>
    <path class="cls-3" d="M597.14,230.39c-.22,0-.45-.06-.66-.19-.58-.36-.76-1.13-.4-1.71.07-.12,7.52-11.77,21.31-5.24.62.29.89,1.04.59,1.66-.29.62-1.04.89-1.66.59-11.81-5.59-17.88,3.9-18.13,4.3-.24.38-.64.59-1.06.59Z"/>
    <path class="cls-3" d="M642.8,220.84c-.23,0-.45-.06-.66-.19-.58-.36-.76-1.13-.4-1.71.07-.12,7.52-11.77,21.31-5.24.62.29.89,1.04.59,1.66-.29.62-1.04.89-1.66.59-11.75-5.57-17.88,3.9-18.13,4.3-.24.38-.64.58-1.06.58Z"/>
    <path class="cls-9" d="M621.47,260.33c5.74.21,19.93,0,33.59-5.79,1.13-.48,2.33.51,2.04,1.71-1.36,5.69-5.53,17.88-16.47,18.92-10.83,1.03-17.76-8.09-20.49-12.58-.61-1.01.14-2.3,1.32-2.25Z"/>
    <path class="cls-14" d="M620.73,263.51s19.61,4.48,36.11-6.24l.3-1.43c.22-1.04-.8-1.89-1.79-1.5-5.36,2.12-19.3,6.92-34.05,6.04-1.05-.06-1.76,1.06-1.24,1.97l.66,1.16Z"/>
    <path class="cls-8" d="M488.22,572.37s-66.57,103.51-116.6,310.77l-31.45,47.89s-84.34,50.03-124.36,169.39l31.45,22.87,164.38-162.95,155.57-245.48-79-142.48Z"/>
    <path class="cls-5" d="M726.62,787.92c-.24,4.3-.54,8.65-.87,13-1.27,16.52-3.23,33.45-6.01,50.65,0,0-4.61,28.08-17.63,50.95-13.02,22.87-85.58,170.8-85.58,170.8,0,0-31.45,13.39-65.4-13.08,0,0,23.36-149.17,78.57-188.38l-59.57-160.1-124.92,208.45s-25.49,66.54-167.81,188.93c0,0-47.02,3.43-53.56-42.98,0,0,27.72-94.36,133.6-171.59,0,0,5.42-7.03,8.63-19.71,3.21-12.68,44.94-223.2,151.13-351.82,0,0,65.31,30,142.64,17.07,9.54-1.59,19.27-3.84,29.09-6.88.88-.27,1.78-.56,2.67-.85,0,0,.67,1.73,1.82,5.03,6.36,18.14,27.42,83.81,32.9,172.06,1.53,24.58,1.85,50.92.31,78.46Z"/>
    <path class="cls-7" d="M634.03,544.79c3.34,19.52,5.52,38.51,2.46,58.22-2.76,17.81-8.8,34.8-17.98,50.31-1.02,1.72,1.65,3.28,2.68,1.57,9.58-15.91,16.06-33.66,18.57-52.08,2.7-19.8-.07-39.08-3.86-58.53-.24-1.23-2.08-.7-1.87.51h0Z"/>
    <path class="cls-7" d="M654.76,536.61c-.26,7.6,1.39,15.45,1.95,23.04.59,7.99.86,16.01.39,24.01-.45,7.66-.83,17.55-4.71,24.41-3.72,6.57-10.81,7.61-17.16,10.27-1.46.61-.94,2.64.66,2.38,5.8-.92,12.54-3.7,16.59-8.12,4.82-5.27,5.63-13.62,6.48-20.38,1.19-9.53,1.16-19.16.54-28.73-.57-8.86-.82-18.54-3.24-27.1-.24-.84-1.47-.65-1.5.2h0Z"/>
    <path class="cls-7" d="M533,529.96c-30.16,28.86-51.72,65.01-69.79,102.32-19.48,40.22-36.36,81.81-51.3,123.91-7.82,22.03-15.05,44.27-21.68,66.69-3.2,10.82-6.24,21.69-9.19,32.59-2.82,10.45-5.64,21.04-10.55,30.74-9.6,18.94-28.83,28.87-44.62,41.98-14.99,12.44-28.86,26.22-41.43,41.09-28.15,33.3-49.49,71.83-63.07,113.24-.62,1.9,2.39,2.73,2.99.83,12.1-37.88,31.3-73.47,56.02-104.61,11.94-15.05,25.18-29.07,39.53-41.84,7.71-6.86,15.74-13.33,24.07-19.42,7.83-5.72,15.86-11.28,21.92-18.97,12.27-15.6,15.95-36.23,21.15-54.88,6.1-21.91,12.77-43.67,20-65.23,14.74-43.97,31.78-87.2,51.14-129.35,19.57-42.59,42.45-84.56,76.41-117.5,1.04-1.01-.55-2.6-1.59-1.59h0Z"/>
    <path class="cls-7" d="M726.31,709.46c-8.36-66.63-33.88-123.83-43.59-144.46-4.53-9.63-14.24-15.75-24.88-15.75h-25.5l1.11-1.7,26.38-7.44,11.28-3.18,16.72-4.72.98.91.11.11,4.49,4.18c6.36,18.14,27.42,83.81,32.9,172.06Z"/>
    <path class="cls-15" d="M684.54,492.91s-3.04,44.13,17.01,72.48l19.38-51.75-36.39-20.73Z"/>
    <path class="cls-6" d="M677.37,452.59c-7.05,5.18-7.56,17.4-8.5,25.32-1.24,10.43-.87,21.16,5.29,30.08,3.58,5.19,6.97,9.73,9,15.81,1.9,5.68,2.93,11.59,4.23,17.42,2.17,9.73,5.43,19.45,13.1,26.23,1.78,1.58,4.42-1.04,2.63-2.63-15.34-13.55-10.64-37.01-21.79-53.04-3-4.31-6.45-8.09-8.14-13.17-1.67-5.04-1.92-10.44-1.66-15.7.52-10.3,1.96-20.3,6.68-29.48.26-.5-.31-1.24-.84-.84h0Z"/>
    <path class="cls-1" d="M609.62,500.05l2.14,53.6,90.11-25.41c3.26-.92,6.66-1.16,10.02-.71l5.49.74c5.26.71,10.62.09,15.58-1.8l7.45-2.84s31.45,0,23.59-10.01c0,0,11.06-5.72,2.32-13.58,0,0,8.87-7.52-1.86-12.52l4.67-.22c1.26-.42,2.62-.36,3.83.16,3.05,1.32,9.14,3.6,11.76,2.02,2.57-1.54,1.56-5.81-4.42-10.81-4.49-3.76-10.26-5.62-16.1-5.27l-32.03,1.91c-5.44.32-10.64,2.39-14.82,5.89l-6.7,3.08c-3.85,1.77-7.55,3.86-11.18,6.05-3.76,2.26-8.01,3.62-12.42,3.95l-77.43,5.76Z"/>
    <path class="cls-15" d="M533.86,298.51s36.27,33.01,40,93.89l6.45,100.51,35.02,6.72s-5.48,35.86,17.01,48.32c0,0-46.28,35.83-105.63,8.57,0,0-42.17-69.88-40.48-117.08,0,0-17.29-114.45,47.63-140.93Z"/>
    <path class="cls-6" d="M556.19,521.27c-.25,0-.51-.06-.75-.19-.75-.42-1.03-1.36-.61-2.12.46-.83,11.34-20.36,24.76-27.43.58-.31,1.3-.21,1.78.24.48.45.63,1.16.37,1.76-.02.05-2.36,5.53-4.16,16.37-.14.85-.94,1.42-1.79,1.28-.85-.14-1.42-.94-1.28-1.79.95-5.72,2.04-9.98,2.89-12.82-10.97,7.95-19.75,23.72-19.85,23.89-.28.51-.82.81-1.36.81Z"/>
    <path class="cls-7" d="M668.95,892.48h0c-.86,0-1.55-.7-1.55-1.56.1-23.88,0-30.91,0-30.97-.01-.86.67-1.57,1.53-1.58.85,0,1.57.67,1.58,1.53,0,.07.1,7.11,0,31.03,0,.86-.7,1.55-1.56,1.55Z"/>
    <path class="cls-7" d="M386.8,921.76c-.28,0-.57-.08-.83-.24-.73-.46-.94-1.42-.48-2.15,7.93-12.55,10.25-23.76,10.27-23.87.17-.84.99-1.39,1.83-1.22.84.17,1.39.99,1.22,1.83-.1.48-2.43,11.85-10.69,24.92-.3.47-.8.73-1.32.73Z"/>
    <path class="cls-7" d="M414.11,923.52c-.53,0-1.04-.27-1.34-.76-.44-.74-.2-1.69.53-2.14l18.69-11.21c.74-.44,1.69-.2,2.14.53.44.74.2,1.69-.53,2.14l-18.69,11.21c-.25.15-.53.22-.8.22Z"/>
    <path class="cls-16" d="M578.76,217.86s5.79-31.57,44.61-55.88c5.81-3.64,13.03-4.16,19.29-1.36,12.74,5.7,34.08,19.99,48.68,54.66l7.51,8.87s25.16-60.61-7.43-90.92c-26.37-24.52-52.22-28.81-72.58-11.22l-4.36,3.04s-39.27-17.45-55.27,32c-16,49.45,19.57,60.81,19.57,60.81Z"/>
    <path class="cls-9" d="M623.01,220.55c.66,1.95,1.48,3.84,2.09,5.81.58,1.87,1.26,3.9.87,5.86-.74,3.76-3.39,6.87-4.37,10.55-.36,1.35-.33,2.87.6,3.99.67.8,1.54,1.47,2.33,2.15,2.07,1.77,4.62,3.19,7.31,3.72,2,.39,3.6-.05,5.53-.33,1.26-.18.97-2.31-.3-2.22-.72.05-1.42.25-2.14.36-1.27.18-2.55-.02-3.77-.4-1.61-.51-3.34-1.38-4.54-2.38-.88-.73-2.16-1.56-2.79-2.52-.44-.67.11-2.25.52-3.16.46-1.04.92-2.09,1.39-3.13.9-1.94,1.95-3.9,2.37-6.02.43-2.2-.08-4.27-.71-6.38-.68-2.27-1.5-4.53-2.48-6.69-.49-1.08-2.29-.31-1.91.81h0Z"/>
    <path class="cls-9" d="M636.43,245.37s-.02.02-.03.03c.24-.1.48-.2.72-.3h-.04c.17.05.35.09.52.14.04.03.09.07.13.1.09.15.18.31.27.46,0-.02-.01-.03-.02-.05v.56c-.63.46-.79.64-.48.54.06-.02.13-.04.19-.05.11-.03.22-.06.34-.09.24-.06.48-.12.72-.18.1-.02.19-.04.29-.06.05,0,.46-.07.19-.04.22-.03.45-.04.67-.05.1,0,.2,0,.29,0,.07,0,.38,0,.08,0,.18,0,.4.08.57.13.05.02.11.03.16.05.12.05.1.04-.04-.02.07,0,.16.08.22.11.19.11.37.23.55.36.44.32,1.1.11,1.4-.28.34-.44.28-1.02-.08-1.43-1.07-1.2-2.9-1.28-4.37-1.03-.36.06-.71.15-1.06.25-.37.11-.79.19-1.12.39-.65.39-.83,1.32-.28,1.87.48.48,1.48.48,1.78-.21.2-.47.17-.97-.26-1.3-.4-.31-.95-.27-1.33.08h0Z"/>
    <path class="cls-9" d="M643.83,250.77c1.04-.3,1.95-1.09,2.63-1.91.7-.85,1.24-1.84,1.52-2.91.58-2.23.04-4.72-1.46-6.48-.75-.88-2.23.27-1.6,1.24.92,1.41,1.36,3.06.91,4.73-.19.72-.54,1.41-1.02,1.98-.57.68-1.28,1.11-1.97,1.65-.83.65.08,1.97.99,1.71h0Z"/>
    <path class="cls-1" d="M685.13,202.42s14.57-12.88,16.01.57c3.43,32.02-13.15,37.74-13.15,37.74l-2.86-38.31Z"/>
    <path class="cls-9" d="M692.18,209.21c.38,1.21.51,2.68.12,3.9-.75,2.4-3.53,3.01-4.51,5.31-1.26,2.93.3,6.21,2.15,8.52,1.5,1.88,4.13-.78,2.64-2.64-.23-.28-1.55-2.33-1.52-3.45.05-1.91,3.15-3.25,4.11-4.97,1.26-2.25,1.37-5.22.6-7.66-.72-2.29-4.33-1.31-3.6.99h0Z"/>
    <path class="cls-6" d="M748.27,412.15s0,1.08-.06,3.11c-1-1.56-1.71-3.28-1.93-5.28-.64-5.69.85-11.66.99-17.37.33-13.6-1.52-27.04-3.18-40.5-.86-6.99-1.64-13.94-3.08-20.85-1.41-6.83-3.11-13.6-4.5-20.44-1.3-6.35-2.65-12.67-4.26-18.95-.8-3.11-1.61-6.37-2.87-9.4,1.2.52,2.42,1.05,3.66,1.59.67,1.89,1.21,3.83,1.73,5.76,1.86,6.88,3.38,13.8,4.86,20.75,2.82,13.28,5.91,26.25,7.58,39.74.57,4.62,1.17,9.24,1.71,13.86,0,.01,0,.02,0,.03,0,.02,0,.04,0,.06.24,2.07.47,4.14.67,6.2,1.15,8.79,3.16,17.49,5.92,25.94,1.64,3.5,3.47,6.94,4.91,10.46,1.97,4.83,3.84,9.66,6,14.37.6,1.23,1.19,2.47,1.78,3.7.6,1.19,1.22,2.37,1.88,3.54,3.72,6.58,7.98,12.84,11.88,19.32.68,1.13,1.33,2.27,1.99,3.42,1.08,1.2,2.14,2.4,3.17,3.63.92.79,1.71,1.69,2.22,2.78.04.06.09.11.12.16,1.58,2.09,3.49,4.54,4.35,7.15-13.62-15.03-30.77-34.48-45.55-52.79Z"/>
    <path class="cls-6" d="M853.73,468.39c-15.46-.45-30.29,8.96-39.06,21.19,1.08.14,2.16.28,3.24.42-1.55-8.2,2.35-16.04,8.4-21.45,5.74-5.14,13.05-7.02,19.09-11.44,1.17-.86.49-2.63-.99-2.35-8.31,1.57-17.82,7.76-23.35,14.09-5.37,6.14-8.22,13.99-6.56,22.1.33,1.62,2.44,1.58,3.24.42,8.72-12.54,21.59-18.45,36.31-20.65,1.36-.2.97-2.29-.32-2.33h0Z"/>
    <path class="cls-16" d="M602.54,116.05c5.23,1.98,7.77,4.77,10.53,9.6.77,1.34,3.32.87,3.11-.84-.9-7.29,2.99-18.34,10.5-21,1.39-.49,1.2-2.57-.35-2.62-4.72-.14-7.63,4.06-9.75,7.77-2.92,5.11-4.58,10.41-3.68,16.29,1.02-.43,2.04-.86,3.05-1.29-2.9-4.36-7.33-10.76-13.41-9.53-.88.18-.7,1.34,0,1.61h0Z"/>
    <path class="cls-16" d="M396.63,266.65c-1.11,0-2.05-.84-2.17-1.96-.12-1.2.75-2.27,1.95-2.39l3.63-.37c73.34-7.36,90.77-9.11,102.08-36.05,4.03-9.6,10.65-16.25,19.67-19.77,21.78-8.51,49.82,4.08,51.01,4.62,1.09.5,1.58,1.79,1.08,2.89-.5,1.09-1.79,1.58-2.89,1.08-.27-.13-27.58-12.37-47.62-4.53-7.87,3.08-13.67,8.93-17.22,17.4-12.32,29.33-32.09,31.32-105.66,38.7l-3.63.36c-.07,0-.15.01-.22.01Z"/>
    <path class="cls-15" d="M478.67,572.67s28.91,4.87,48.04-16.16l-15.29-31.2s-32.02,31.6-32.75,47.36Z"/>
    <path class="cls-6" d="M571.99,568.14c-13.66,0-29.26-2.61-45.8-10.16-1.5-.42-10.17-3.66-16.5-23.11-2.37-7.29-6.68-13.34-12.46-17.49-10.12-7.26-20.51-26.73-12.53-78.2.13-.85.93-1.43,1.78-1.3.85.13,1.43.93,1.3,1.78-8.15,52.54,3.57,69.66,11.27,75.19,6.33,4.54,11.03,11.13,13.61,19.05,6.15,18.92,14.32,21.06,14.4,21.08.1.02.22.06.31.1,50.17,22.97,92.11-.29,102.62-7.07-19.45-8.02-17.17-39.78-16.36-47.15l-33.59-6.45c-.63-.12-1.13-.62-1.24-1.26l-17.35-97.87c-.15-.85.41-1.65,1.26-1.8.85-.16,1.66.42,1.81,1.26l17.16,96.81,33.97,6.52c.82.16,1.36.93,1.25,1.75-.06.4-5.46,40.48,16.96,46.18.58.15,1.02.61,1.14,1.2.12.58-.11,1.19-.58,1.55-.49.38-12.31,9.27-31.63,14.93-8.32,2.43-18.8,4.44-30.78,4.44Z"/>
    <path class="cls-4" d="M586.21,172.38c4.05-4.59,8.87-7.63,14.46-10.02,5.76-2.46,12.18-5.12,18.48-5.49-.2-.72-.39-1.45-.59-2.17-10.57,6.02-21.02,12.53-29.04,21.84-7.03,8.16-11.86,17.62-15.28,27.78-.63,1.87,2.4,2.72,2.97.82,3.07-10.19,8.31-19.8,15.41-27.75,7.67-8.57,17.46-14.62,27.11-20.68.93-.58.62-2.24-.59-2.17-6.71.4-13.4,3.09-19.53,5.72-5.81,2.49-11.16,5.78-14.99,10.9-.68.91.83,2.07,1.58,1.22h0Z"/>
    <path class="cls-4" d="M621.84,125.67c-3.41,3.23-6.1,6.94-8.36,11.04-.49.89.12,2.06,1.18,2.05,4.6-.03,9.06.35,13.59,1.21-.21-.79-.42-1.59-.63-2.38-2.47,2.5-4.37,5.1-5.97,8.22-.62,1.21.39,2.38,1.66,2.16,6.1-1.05,12.57-1.7,18.51.49,5.29,1.95,10.3,5.53,14.98,8.64,4.53,3,8.72,6.38,12.36,10.43,3.71,4.12,6.45,9.11,10.31,13.06,1.36,1.4,3.39-.37,2.59-2-5.32-10.84-15.57-19.82-25.69-26.01-5.09-3.11-10.36-6.63-16.26-7.93-5.84-1.29-11.78-.6-17.59.47.55.72,1.11,1.44,1.66,2.16,1.44-2.9,3.17-5.37,5.44-7.7.7-.71.46-2.18-.63-2.38-4.76-.87-9.5-1.28-14.35-1.19.39.68.78,1.37,1.18,2.05,2.13-3.97,4.69-7.37,7.74-10.69,1.07-1.16-.58-2.82-1.73-1.73h0Z"/>
    <path class="cls-4" d="M321.73,382.61c6.97-7.84,8.64-18.65,9.19-28.77.71-13.19-.28-26.43,3.61-39.25,3.44-11.36,10.89-21.09,20.82-27.59,4.64-3.04,9.72-5.38,15.07-6.87,5.99-1.66,11.74-1.35,17.82-1.9,1.67-.15,2.23-2.6.42-3.07-9.88-2.55-22.18,1.48-30.85,6.15-9.62,5.18-17.93,13.22-22.93,22.98-5.97,11.64-6.89,24.88-6.96,37.73-.08,13.85.17,27.34-7.92,39.24-.71,1.04.91,2.3,1.75,1.35h0Z"/>
    <path class="cls-6" d="M852.74,428.58c-2.07-18.98-8.4-20.54-22.26-32.15-14.33-12.01-14.78-19.58-14.78-19.58-7.8-30.48-23.82-54.11-24.32-54.84,18.49,21.72,20.95,46.87,44.8,66.54,24.14,19.92,16.17,29.98,16.56,40.02Z"/>
    <path class="cls-6" d="M615.65,498.06c-1.56-1.25-3.56-1.69-5.38-2.47-2.32-.98-4.44-2.35-6.74-3.35-2.96-1.29-5.93-2.47-8.8-3.95-2.22-1.14-5.26-2.19-6.62-4.35-1.37-2.17-2.02-5.08-2.96-7.46-1-2.52-2.12-4.98-3.28-7.43-2.39-5.07-5.34-10.57-6.64-16.05-.33-1.39-2.49-1.08-2.48.34,0,.98.2,1.96.48,2.93-.01.14,0,.28.04.44,1.04,3.86,1.37,7.86,2.43,11.74,1.25,4.59,2.06,9.29,2.89,13.97.41,2.3.8,4.6,1.17,6.9.23,1.41.39,2.68,1.39,3.77,1.93,2.12,5.58,1.94,8.19,1.94.31,0,.61-.1.87-.26,1.41.73,3.37,1.49,4.44.54.53.14,1.07.27,1.61.4,1.21.56,2.42,1.13,3.65,1.65.02.01.05.02.07.03,0,0,0,0,0,0,.14.06.27.12.41.17.73.3,1.37-.04,1.76-.6,1.8.4,3.58.87,5.28,1.52.79.37,1.58.72,2.39,1.06.42.22.83.45,1.24.71.46.29.91.33,1.3.21.22.1.41.21.57.33,1.93,1.53,4.68-1.17,2.74-2.74Z"/>
    <path class="cls-6" d="M527.39,556.1c-.04-.05-.08-.1-.13-.15-.53-.64-1.46-.57-2.13-.27-1.06.47-1.84,1.64-2.72,2.38-1.65,1.4-3.42,2.8-5.18,4.05-3.74,2.67-7.88,4.9-12.16,6.59-8.55,3.37-17.25,4.2-26.35,3.63-1.6-.1-1.99,2.54-.38,2.82,9.04,1.6,18.62.29,27.17-2.93,4.26-1.61,8.36-3.66,12.17-6.17,2.07-1.36,3.92-2.95,5.89-4.45.94-.72,1.86-1.8,2.82-2.53,1.16-.21,2.01-1.75,1-2.96Z"/>
    <path class="cls-6" d="M624.81,469.94c-.68-.01-1.25-.45-1.45-1.07-7.7-19.6-18.78-37.6-32.9-53.5-21.61-24.31-36.3-101.46-40.42-125.41l.34-.18,2.49-1.31c.07.14.12.3.16.47,3.97,23.14,18.56,100.5,39.77,124.37,13.47,15.16,24.22,32.2,31.97,50.72.02.32.03.65.04.97.02.62.04,1.24.04,1.85.01,1.04,0,2.07-.03,3.1Z"/>
    <path class="cls-6" d="M725.55,382.03c-3.84,13.02-10.26,25.04-19.08,35.71-8.56,10.36-20.88,25.81-30.91,40.62-.05.07-.11.14-.17.21-.28.3-.69.49-1.13.49-.15,0-.29-.02-.43-.06.26-.92.53-1.84.8-2.75,0,0,0-.01,0-.01.39-1.28.81-2.57,1.26-3.85,9.49-13.56,20.37-27.19,28.16-36.61,8.55-10.35,14.77-21.99,18.5-34.61,13.62-46.13-2.28-88.2-9.75-104.14-.1-.21-.15-.43-.15-.66,0-.19.04-.38.11-.55,1.02.39,2.07.78,3.15,1.2.12.05.25.09.37.14,7.85,17.25,22.78,59.08,9.26,104.89Z"/>
    <path class="cls-9" d="M900.05,572.03c.44,2.95,1.53,5.66,1.79,8.69.23,2.68.1,5.35-.15,8.02-.16,1.7,2.62,1.75,2.69,0,.23-5.39.33-12.71-3-17.27-.5-.68-1.45-.26-1.33.56h0Z"/>
    <path class="cls-9" d="M890.13,577.62c1.24,4.72,3.3,9.13,4.29,13.95,1.28,6.24.1,10.9-.97,16.97-.22,1.24,1.39,2.06,2.1.89,5.43-8.86,1.57-24.42-3.85-32.47-.53-.79-1.83-.32-1.57.66h0Z"/>
    <path class="cls-9" d="M742.98,514.26c3.23.85,6.76.48,10.09.46,3.84-.02,7.69-.04,11.53-.08,1.78-.02,1.78-2.78,0-2.76-3.84.04-7.69.11-11.53.18-3.35.06-6.86-.24-10.09.69-.74.21-.76,1.32,0,1.52h0Z"/>
    <path class="cls-9" d="M744.67,501.5c3.9.16,7.81-.05,11.72-.05,3.45,0,6.97.38,10.37-.18,1.18-.2,1.13-2.11,0-2.34-6.79-1.38-15.53-.47-22.37.51-1.22.17-.85,2.02.28,2.07h0Z"/>
    <path class="cls-9" d="M744.83,490.02c7.24-.17,14.41-1.34,21.64-1.68,3.1-.14,5.15.71,7.97,1.6,2.71.85,5.47.96,8.3,1.01,1.54.03,1.54-2.37,0-2.4-6.17-.14-11.05-3.14-17.25-2.54-6.95.67-14,1.14-20.89,2.26-1,.16-.76,1.78.24,1.76h0Z"/>
    <path class="cls-7" d="M612.28,786.39c12.85,27.19,24.68,61.48,17.64,85.44-2.49-6.23-19.54-41.08-21.18-51.07l-41.53-102.56-1.7,2.78c.37-.86,23.99-56.19,59.31-67.85-.06.08-.58.78-1.46,2.04-26.97,38.56-31.2,88.68-11.09,131.22Z"/>
    <path class="cls-7" d="M567.22,719.75c-.18,0-.36-.03-.54-.1-.81-.3-1.22-1.19-.92-2,.3-.81,7.56-20.17,24.64-39.45,15.8-17.85,43.28-38.79,84.43-37.14.86.03,1.53.76,1.49,1.62-.03.86-.75,1.55-1.62,1.49-39.89-1.58-66.56,18.71-81.91,36.02-16.72,18.84-24.05,38.35-24.12,38.54-.23.63-.83,1.02-1.46,1.02Z"/>
    <path class="cls-7" d="M243.98,1031.89c9.57,27.26,41.08,45.8,69.22,45.8,2.42,0,2.42-3.81,0-3.76-26.45.55-57.2-17.48-66.72-42.73-.58-1.54-3.06-.9-2.5.69h0Z"/>
    <path class="cls-7" d="M554.96,1031.98c20.57,15.99,50.44,20.79,75.5,15.19,2.21-.49,1.26-3.8-.93-3.37-12.8,2.51-25.65,2.81-38.49.33-12.57-2.43-23.7-7.61-34.79-13.82-1.01-.57-2.28.91-1.29,1.67h0Z"/>
    <path class="cls-11" d="M657.67,1213.77c-2.51,3.4-6.13,6.58-11.06,9.44-31.47,18.22-90.11-15.07-118.87-33.91-10.38-6.8-15.7-19.11-13.53-31.32.21-1.19.43-2.42.66-3.69h0c5.08-27.98,14.7-73.62,26.51-94.09,2.93-5.07,9.66-6.4,14.32-2.87,6.29,4.78,17.41,10.87,34.74,12.86.75.09,1.51.17,2.29.24.46.04.93.07,1.4.12.49.03.99.07,1.49.1,6.94.44,14.76.22,23.55-.91,2.5-.32,4.57,1.6,4.68,3.91.02.5-.04,1.03-.22,1.56-.76,2.2-1.64,4.88-2.58,7.86-.37,1.21-.76,2.47-1.14,3.77-1.04,3.53-2.09,7.36-3.03,11.29-.3,1.25-.59,2.5-.86,3.77-.87,3.99-1.59,8.02-2.06,11.88-.13,1.13-.25,2.24-.34,3.33-.29,3.68-.31,7.14.05,10.21.13,1.1.31,2.14.54,3.12.77,3.26,2.12,5.87,4.24,7.54.64.5,1.36,1.08,2.14,1.72.79.65,1.66,1.36,2.57,2.14,2.55,2.15,5.54,4.78,8.7,7.77.77.72,1.54,1.47,2.34,2.24,1.66,1.63,3.35,3.34,5.04,5.13.68.71,1.36,1.44,2.02,2.17,1.84,2.01,3.66,4.1,5.4,6.25.7.85,1.38,1.71,2.05,2.58.09.11.17.22.26.33.64.84,1.27,1.69,1.89,2.55,5.24,7.29,9.39,15.04,10.91,22.6.21,1.07.37,2.12.47,3.18.6,6.02-.65,11.84-4.56,17.12Z"/>
    <path class="cls-11" d="M283.62,1103.52l-42.62,62.63c-2.98,4.38-4.81,9.45-5.28,14.73-1.08,11.99-4.57,34.99-15.82,46.28h0c-1.6,1.61-3.35,2.98-5.28,4.05-.94.52-1.92.97-2.95,1.34-6.43,2.32-14.55,1.51-24.79-4.3-22.62-12.83-39.84-19.51-46.12-30.11-.58-.97-1.07-1.97-1.44-3.02-1.76-4.73-1.54-10.3,1.06-17.41h0c3.81-10.46,12.74-24.25,28.02-43.67,53.09-67.44,55.43-70.38,55.43-70.38,0,0,4.76,11.82,16.56,22.6,1.04.95,2.13,1.89,3.28,2.81,6.37,5.11,14.44,9.71,24.51,12.29,1.35.35,2.73.65,4.14.92,3.54.68,7.31,1.11,11.3,1.24Z"/>
    <path class="cls-18" d="M232.54,1077.83s31.77-19.15,42.35,24.45c0,0-36.13,31.77-45.47,55.43-10.49,26.58-16.82,49.83-47.96,34.26-27.37-13.68-7.47-35.5,8.17-55.41,16.58-21.1,37.92-44.56,42.9-58.73Z"/>
    <path class="cls-13" d="M267.04,1106.31c-6.68-4.39-13.91-7.71-21.68-9.67-3.87-5.18-8.6-10.32-14.12-13.53-1.04-.6-2.22.84-1.31,1.69,3.87,3.6,7.67,6.97,11.02,10.9-2.53-.46-5.08-.78-7.64-.93-3.85-.23-8.3-.5-12.01.69-1.05.33-.81,1.79.25,1.87,3.57.27,7.18-.28,10.78-.07,3.78.22,7.52.81,11.2,1.72.34.47.67.94.99,1.43,4.03,6.06,6.57,12.54,8.78,19.43.62,1.91,3.44,1.14,3.01-.83-1.46-6.62-4.61-13.1-8.4-18.76,6.08,2.01,11.88,5.01,16.92,8.94,2.08,1.62,4.42-1.42,2.21-2.87Z"/>
    <path class="cls-13" d="M253.07,1124.09c-6.55-4.46-13.66-7.87-21.33-9.94-3.75-5.19-8.35-10.37-13.78-13.65-1.02-.62-2.21.8-1.32,1.66,3.78,3.63,7.49,7.04,10.74,10.98-2.5-.49-5.02-.86-7.56-1.05-3.81-.29-8.21-.63-11.91.48-1.04.31-.83,1.76.22,1.86,3.53.32,7.13-.16,10.68.11,3.74.28,7.44.92,11.07,1.88.33.47.65.94.96,1.43,3.89,6.08,6.3,12.54,8.38,19.4.58,1.91,3.39,1.18,3-.77-1.34-6.59-4.36-13.06-8.02-18.73,5.99,2.09,11.7,5.17,16.62,9.14,2.03,1.64,4.41-1.33,2.24-2.81Z"/>
    <path class="cls-13" d="M238.36,1142.42c-5.39-5.65-12.5-9.82-19.87-12.29-.23-.08-.47-.15-.71-.23-3.64-4.42-7.85-8.34-12.5-11.72-.96-.7-1.84.88-.92,1.58,3.49,2.66,6.66,5.71,9.5,9.04-6.04-1.47-12.67-2.03-18.49-.47-.89.24-.71,1.62.22,1.61,7.24-.05,13.98-.02,20.92,2.16,1.15,1.55,2.23,3.15,3.23,4.8,1.99,3.27,3.71,6.71,5.07,10.29,1.2,3.16,1.69,6.99,3.41,9.88.61,1.02,2,.5,2.1-.57.34-3.64-1.74-7.95-3.16-11.22-1.57-3.63-3.46-7.11-5.66-10.39-.29-.43-.59-.84-.89-1.26,5.92,2.54,11.06,6.25,15.68,10.84,1.33,1.32,3.35-.7,2.05-2.05Z"/>
    <path class="cls-13" d="M227.43,1160.96c-6.06-6.01-13.96-10.36-22.09-12.83-.26-.08-.52-.15-.78-.23-4.11-4.72-8.84-8.88-14.02-12.44-1.07-.74-1.98,1.02-.96,1.75,3.9,2.8,7.45,6.04,10.65,9.59-6.64-1.43-13.91-1.83-20.23.05-.76.23-.77,1.2-.25,1.59-.11.33-.02.74.34,1.01,2.97,2.28,6.79,3.71,10.01,5.66,3.6,2.18,7.07,4.59,10.35,7.22,6.26,5.01,12,10.79,16.8,17.22.19.25.4.41.62.51.03.05.07.12.1.17.7,1.09,2.2.49,2.27-.68.26-3.99-3.33-11.59-4.97-15.13-1.82-3.92-4-7.67-6.5-11.19-.33-.46-.67-.9-1.01-1.35,6.55,2.6,12.28,6.49,17.47,11.38,1.49,1.4,3.64-.87,2.18-2.31ZM212.76,1166.59c.61,1.47,1.29,3.63,2.03,5.86-4.05-4.55-8.45-8.74-13.29-12.5-3.12-2.42-6.37-4.66-9.75-6.7-2.69-1.62-5.73-3.61-8.83-4.72,6.93-.2,13.51-.12,20.3,1.82,1.3,1.66,2.53,3.38,3.68,5.15,2.28,3.51,4.26,7.22,5.86,11.09Z"/>
    <path class="cls-11" d="M259.9,1087.1c-2.33-2.97-11.24-9.84-14.45-4.66-.93,1.5-.7,3.01.17,4.44,1.43,4.81,7.24,8.07,11.55,9.58,2.13.75,4.48.88,5.12-1.8.61-2.57-.85-5.58-2.4-7.55Z"/>
    <path class="cls-2" d="M213.37,1227.47c-.94.52-1.92.97-2.95,1.34-1.16-2.25-2.29-4.46-3.43-6.48-5.36-9.51-12.28-16.84-22.57-20.95-10.27-4.09-21.06-4.58-31.95-5.08-4.28-.19-8.78-.67-12.96-1.9-.58-.97-1.07-1.97-1.44-3.02,7.04,2.59,15.43,2.23,22.84,2.6,9.45.47,19,2.09,27.64,6.09,8.85,4.1,15.25,10.78,20.18,19.08,1.62,2.73,3.11,5.54,4.64,8.32Z"/>
    <path class="cls-2" d="M233.5,1077.64c-.06-.13-.12-.26-.17-.39-.14-.3-.39-.48-.67-.57-1.72-1.84-3.32-3.77-4.67-5.91-1.38-2.2-2.29-4.75-3.85-6.82-.42-.56-1.44-.44-1.42.38.11,5.53,4.68,11.39,8.37,15.16,1.3,1.32,3.08-.35,2.41-1.86Z"/>
    <path class="cls-2" d="M285.7,1102.28c-1.92.03-3.73.57-5.68.46-1.63-.09-3.49-.99-5.05-.5-.44.14-.66.63-.43,1.05.93,1.68,3.54,1.99,5.3,2.18,2.07.22,4.64.18,6.49-.88,1.06-.6.6-2.32-.62-2.3Z"/>
    <path class="cls-2" d="M233.49,1079.44c9.96-5.94,23.04-5.29,30.79,3.86,1.8,2.13,3.26,4.54,4.49,7.04,1.46,2.97,3.83,7.47,3.93,10.84.01.51,1.22-.96-.06.61-.78.96-1.94,1.77-2.85,2.61-7.48,6.96-14.66,14.26-21.39,21.95-7.76,8.89-15.51,18.5-20.19,29.43-4.57,10.68-7.55,22.94-15.06,32.08-8.65,10.52-21.56,7.56-32.24,1.7-5.97-3.28-11.3-8.23-11.15-15.51.13-6.21,3.53-12.08,6.82-17.14,9.6-14.79,21.75-28.15,32.84-41.82,9.1-11.21,19.83-23.03,24.91-36.76.84-2.26-2.77-3.23-3.6-.99-3.91,10.55-11.76,19.82-18.66,28.53-8.42,10.62-17.13,21.01-25.55,31.64-9.32,11.77-29.12,32.46-16.49,48.17,5.98,7.44,17.5,12.38,26.93,13.11,7.52.58,14.05-2.54,18.82-8.26,5.64-6.75,8.83-15.39,12-23.48,3.8-9.7,7.86-18.35,14.1-26.77,9.93-13.38,21.82-25.65,34.32-36.67.5-.44.64-1.2.48-1.82-3.38-13.36-10.61-28.17-25.91-29.85-6.43-.71-13.61.96-19.18,4.28-2.06,1.23-.19,4.46,1.89,3.23Z"/>
    <path class="cls-2" d="M219.9,1227.16h0c-1.6,1.61-3.35,2.98-5.28,4.05-.94.52-1.92.97-2.95,1.34-6.43,2.32-14.55,1.51-24.79-4.3-22.62-12.83-39.84-19.51-46.12-30.11-.58-.97-1.07-1.97-1.44-3.02-1.76-4.73-1.54-10.3,1.06-17.41-.06.57-1.63,19.62,32.86,36.12,35.02,16.75,46.66,13.33,46.66,13.33Z"/>
    <path class="cls-18" d="M648.97,1168.33c-10.26,15.35-28.81,6.1-43.38-7.37-.82-.75-1.63-1.53-2.43-2.31-3.25-3.21-6.25-6.57-8.86-9.85l-1.66-2.16c-.9-1.2-1.73-2.37-2.5-3.51-.5-.74-.97-1.47-1.4-2.18-.52-.83-.99-1.63-1.41-2.4-1.73-3.14-2.72-7.17-3.16-11.69-.07-.75-.14-1.51-.17-2.29-.11-1.7-.14-3.45-.12-5.25.01-.77.03-1.55.06-2.34.21-5.35.87-10.96,1.74-16.35.11-.67.22-1.35.34-2.01.08-.47.16-.94.25-1.41.13-.74-.07-2.91.07-3.64,1.2-6.27,1.97-11.24,3.11-15.57.19-.71,1.32-.69,1.49-1.32,1.06-3.87,1.8-6.23,1.8-6.23,14.5-26.86,39.69-13.63,39.69-13.63l-2.47,4.86h0l-6.09,11.98c.01.31,0,.63-.07.95-.03.2-.09.4-.16.6-.76,2.2-1.64,4.88-2.58,7.86-.37,1.21-.76,2.47-1.14,3.77-.24.83-.49,1.68-.73,2.53-.5,1.75-.99,3.56-1.47,5.41-.28,1.1-.56,2.22-.83,3.34-.3,1.25-.59,2.5-.86,3.77-.51,2.36-.98,4.74-1.36,7.09-.27,1.62-.5,3.22-.69,4.8-.01.12-.03.25-.04.37-.11,1-.22,1.99-.29,2.96-.26,3.28-.31,6.38-.05,9.19.02.35.06.69.1,1.02.13,1.1.31,2.14.54,3.12.07.33.16.65.25.97h0c.8,2.82,2.09,5.08,3.99,6.58.64.5,1.36,1.08,2.14,1.72.47.38.96.78,1.48,1.22.35.29.72.6,1.1.92.45.38.92.77,1.39,1.18.11.09.22.19.34.29,1.16,1,2.39,2.08,3.67,3.24.29.27.59.54.89.81.74.68,1.5,1.38,2.27,2.11.05.04.1.09.15.14.77.72,1.54,1.47,2.34,2.24,1.66,1.63,3.35,3.34,5.04,5.13.68.71,1.36,1.44,2.02,2.17,1.84,2.01,3.66,4.1,5.4,6.25.78.96,1.55,1.93,2.3,2.91Z"/>
    <path class="cls-11" d="M629.93,1061.68l-6.09,11.98c.01.31,0,.63-.07.95-1.49-.09-2.99-.26-4.42-.65-2.86-.79-6.25-2.94-5.98-6.35.25-3.25,3.79-4.68,6.48-5.44,3.1-.87,6.85-1.36,10.08-.5Z"/>
    <path class="cls-13" d="M619.16,1089.39c-.5,1.75-.99,3.56-1.47,5.41-.9-.72-1.81-1.42-2.73-2.11-3.12.12-6.24.29-9.37.69-3.76.47-7.48,1.15-11.17,1.95-2.71.59-5.41,1.45-8.16,1.87.13-.74.27-1.48.41-2.2,5.67-2.49,12.62-3.36,18.57-4.22,1.95-.29,3.94-.55,5.94-.78-.6-.4-1.2-.82-1.81-1.21-3.39-2.21-6.9-4.26-10.51-6.11-2.68-1.37-5.91-2.34-8.47-3.99.19-.71.37-1.38.54-2.01,3.15.54,6.45,2.48,9.21,3.83,3.8,1.86,7.48,3.95,11.02,6.27,1.38.9,2.8,1.84,4.24,2.82,1.25-.09,2.51-.16,3.77-.2Z"/>
    <path class="cls-13" d="M614.64,1108.99c-.27,1.62-.5,3.22-.69,4.8-.01.12-.03.25-.04.37-.82-.55-1.66-1.08-2.5-1.6-3.1.37-6.19.82-9.29,1.48-3.69.79-7.35,1.78-10.96,2.88-2.43.75-4.83,1.73-7.3,2.39.01-.77.03-1.55.06-2.34,5.36-2.78,11.96-4.18,17.63-5.5,1.92-.44,3.87-.88,5.85-1.28-.63-.36-1.26-.72-1.91-1.07-3.56-1.92-7.24-3.66-10.98-5.19-2.81-1.15-6.15-1.85-8.86-3.31.11-.67.22-1.35.34-2.01,3.21.25,6.71,1.93,9.6,3.05,3.95,1.54,7.79,3.31,11.52,5.31,1.45.78,2.95,1.6,4.46,2.46,1.02-.16,2.04-.31,3.06-.44Z"/>
    <path class="cls-13" d="M614.46,1131.42c-.95-.28-1.9-.54-2.85-.8-2.86,1.26-5.69,2.59-8.45,4.12-3.31,1.83-6.51,3.84-9.65,5.96-1.14.77-2.25,1.59-3.37,2.41-.5-.74-.97-1.47-1.4-2.18,4-3.31,8.88-6.02,13.12-8.48,1.71-.99,3.45-1.98,5.23-2.94-.7-.16-1.41-.31-2.13-.45-3.97-.79-7.99-1.39-12.02-1.76-2.8-.26-5.93-.02-8.78-.46-.07-.75-.14-1.51-.17-2.29,2.99-.47,6.47.05,9.32.26,4.22.32,8.41.88,12.56,1.73,1.61.32,3.29.67,4.98,1.05.9-.44,1.81-.87,2.72-1.27.02.35.06.69.1,1.02.13,1.1.31,2.14.54,3.12.07.33.16.65.25.97Z"/>
    <path class="cls-13" d="M629.45,1147.37c-1.79.54-3.57,1.13-5.33,1.77-4.79,1.73-9.64,3.76-14.18,6.24,1.11-1.11,2.24-2.22,3.39-3.29,2.32-2.15,4.75-4.11,7.22-6.02,1.84.04,3.67.12,5.51.25.83.06,1.67.14,2.5.24-1.28-1.16-2.51-2.24-3.67-3.24-.24,0-.47-.01-.7-.02.12-.09.24-.18.36-.27-.47-.41-.94-.8-1.39-1.18-.37-.32-.74-.63-1.1-.92-1.01.75-1.99,1.55-2.96,2.36-1.74.04-3.44.1-5.09.17-4.23.18-8.44.63-12.61,1.33-2.7.45-6.04.77-8.77,1.83l1.66,2.16c2.46-.37,4.97-1.13,7.34-1.49,4-.6,8.05-.98,12.1-1.15.73-.03,1.45-.04,2.18-.06-1.5,1.35-2.96,2.73-4.38,4.1-2.7,2.59-5.72,5.41-8.37,8.46.8.78,1.61,1.56,2.43,2.31,6.45-3.51,12.77-6.96,19.74-9.43,2.11-.75,4.24-1.43,6.38-2.04-.77-.73-1.53-1.43-2.27-2.11Z"/>
    <path class="cls-18" d="M644.25,1224.36c-20.06,3.52-49.65-5.48-75.17-15.88-9.85-18.95-5.3-43.82-.8-59.14,2.51-8.55,1.7-17.68-2.01-25.78-3.52-7.68-6.29-18.03-2.37-27.51,7.47-18.06,22.35-10.24,22.35-10.24l7.2-16.47c-14.05,4.43-30.8-6.92-30.8-6.92,0,0-8.1-8.1-14.88-6.92-6.78,1.18-10.26,12.42-10.26,12.42l8.93,36.19c3.26,13.2,2.51,27.08-2.16,39.86l-28.78,42.74-5.79,7.13c-7.34,8.04,10.9,18.36,13.08,19.28,17.26,7.27,86.45,37.99,99.03,41.14,17.44,4.36,16.86-8.58,14.95-16.19-1.91-7.61,7.47-13.7,7.47-13.7Z"/>
    <path class="cls-2" d="M626.81,1243.98c0,1.89-1.53,3.43-3.43,3.43s-3.43-1.53-3.43-3.43,1.53-3.43,3.43-3.43,3.43,1.53,3.43,3.43Z"/>
    <path class="cls-2" d="M593.17,1232.77c0,1.89-1.53,3.43-3.43,3.43s-3.43-1.53-3.43-3.43,1.53-3.43,3.43-3.43,3.43,1.53,3.43,3.43Z"/>
    <path class="cls-2" d="M524.04,1203.49c0,1.89-1.53,3.43-3.43,3.43s-3.43-1.53-3.43-3.43,1.53-3.43,3.43-3.43,3.43,1.53,3.43,3.43Z"/>
    <path class="cls-2" d="M553.93,1217.82c0,1.89-1.53,3.43-3.43,3.43s-3.43-1.53-3.43-3.43,1.53-3.43,3.43-3.43,3.43,1.53,3.43,3.43Z"/>
    <path class="cls-2" d="M563.9,1128.75c0,2.58-2.09,4.67-4.67,4.67s-4.67-2.09-4.67-4.67,2.09-4.67,4.67-4.67,4.67,2.09,4.67,4.67Z"/>
    <path class="cls-2" d="M648.97,1168.33c-.09-.11-.17-.22-.26-.33-6.6,7.46-17.78,8.19-27.14,3.74-5.91-2.81-10.88-7.13-15.52-11.67-4.5-4.41-9.11-8.89-13-13.86-4.34-5.56-6.95-11.72-7.67-18.75-.7-6.86-.24-13.9.14-20.77.67-12.27,2.13-25.4,8.61-36.13.14-.24.28-.47.43-.7,3.69-5.85,8.89-10.38,15.59-12.37,7.21-2.15,14.71-1.14,22.02-.22,1.16.15,1.38-1.74.27-2.02-13.28-3.31-27.69-2.84-37.24,8.13-1.19,1.37-2.27,2.82-3.24,4.32-10.27,1.27-20.36-1.42-28.67-7.6-3.4-2.53-6.58-5.67-10.95-6.34-3.34-.52-6.96.37-8.83,3.35-.68,1.09.88,2.28,1.77,1.37,3.97-4.08,9-1.14,12.57,1.86,3.19,2.68,6.2,5.28,9.94,7.19,6.69,3.43,14.16,5.01,21.63,4.61-4.55,9.15-6.14,19.84-6.92,29.86-1.17,14.99-2.76,31.57,6.44,44.46,4.2,5.89,9.46,11.07,14.61,16.13,5.21,5.12,10.9,9.95,17.66,12.89,6.47,2.81,14.03,3.94,20.78,1.45,3.51-1.29,6.64-3.31,8.87-6.03-.62-.85-1.25-1.71-1.89-2.55Z"/>
    <path class="cls-2" d="M657.67,1213.77c-2.51,3.4-6.13,6.58-11.06,9.44-31.47,18.22-90.11-15.07-118.87-33.91-10.38-6.8-15.7-19.11-13.53-31.32.21-1.19.43-2.42.66-3.69.04.44,1.99,18.83,40.85,39.35,14.72,7.77,28.49,15.08,41.53,20.23,6.53.19,13.05-.6,19.34-2.55,8.1-2.5,15.25-7.01,22.71-10.9,6.44-3.36,13.14-6.15,20.43-6.81.65-.06,1.33-.11,2.04-.12.21,1.07.37,2.12.47,3.18-2.14.03-4.28.29-6.35.72-7.69,1.58-14.56,5.49-21.38,9.22-6.83,3.72-13.76,7.17-21.41,8.83-2.75.6-5.52.99-8.3,1.2,18.84,6.27,36.21,7.13,52.88-2.85Z"/>
  </g>
</svg>