<svg width="15" height="15" viewBox="0 0 15 15" fill="none" xmlns="http://www.w3.org/2000/svg">
<path d="M12.4706 7.5C12.4706 4.75482 10.2452 2.52941 7.5 2.52941C4.75482 2.52941 2.52941 4.75482 2.52941 7.5C2.52941 10.2452 4.75482 12.4706 7.5 12.4706C10.2452 12.4706 12.4706 10.2452 12.4706 7.5ZM8.96145 5.67412C9.26009 5.37548 9.74416 5.37548 10.0428 5.67412C10.3414 5.97275 10.3414 6.45682 10.0428 6.75546L7.32376 9.47449C7.02512 9.77313 6.54105 9.77313 6.24242 9.47449L5.31566 8.54774L5.26264 8.48949C5.01785 8.18913 5.03576 7.7463 5.31566 7.46639C5.59556 7.18649 6.0384 7.16859 6.33875 7.41337L6.397 7.46639L6.78309 7.85248L8.96145 5.67412ZM14 7.5C14 11.0899 11.0899 14 7.5 14C3.91015 14 1 11.0899 1 7.5C1 3.91015 3.91015 1 7.5 1C11.0899 1 14 3.91015 14 7.5Z" fill="currentColor"/>
</svg>
