<svg width="19" height="20" viewBox="0 0 19 20" fill="currentColor" xmlns="http://www.w3.org/2000/svg">
<path d="M11.3296 12.0331C11.3296 12.0283 11.3295 12.0155 11.3091 11.996C11.2875 11.9755 11.2498 11.9551 11.1968 11.955H7.79639C7.74333 11.9551 7.70565 11.9755 7.68408 11.996C7.66369 12.0155 7.66358 12.0283 7.66357 12.0331V17.4999H11.3296V12.0331ZM13.3296 17.4999H16.2964C16.7307 17.4999 16.9963 17.1774 16.9966 16.8837V7.5595C16.9966 7.55592 16.9961 7.55004 16.9917 7.54192L16.9595 7.5097L9.59326 2.52728C9.55222 2.4996 9.49488 2.49297 9.4458 2.50677L9.3999 2.52728L2.03369 7.5097C2.01595 7.5217 2.00601 7.5336 2.00146 7.54192C1.99706 7.55004 1.99659 7.55592 1.99658 7.5595V16.8837C1.99687 17.1774 2.26247 17.4999 2.69678 17.4999H5.66357V12.0331C5.66359 10.8389 6.66621 9.95511 7.79639 9.95501H11.1968C12.327 9.95511 13.3296 10.8389 13.3296 12.0331V17.4999ZM18.9966 16.8837C18.9963 18.3754 17.7395 19.4999 16.2964 19.4999H2.69678C1.25371 19.4999 -0.003147 18.3754 -0.00341797 16.8837V7.5595C-0.00340615 6.86518 0.350008 6.23296 0.912598 5.85247L8.27979 0.871025L8.41943 0.784111C9.13157 0.378237 10.0275 0.407247 10.7134 0.871025L18.0806 5.85247L18.1831 5.92669C18.6857 6.31215 18.9966 6.90843 18.9966 7.5595V16.8837Z" fill="currentColor"/>
</svg>
