<svg width="22" height="22" viewBox="0 0 22 22" fill="none" xmlns="http://www.w3.org/2000/svg">
<path d="M7.72 7.92019V6.92019C7.16771 6.92019 6.72 7.36791 6.72 7.92019H7.72ZM7.81562 7.92019H8.81562C8.81562 7.36791 8.36791 6.92019 7.81562 6.92019V7.92019ZM13.48 7.92019V6.92019C12.9277 6.92019 12.48 7.36791 12.48 7.92019H13.48ZM13.565 7.92019H14.565C14.565 7.36791 14.1173 6.92019 13.565 6.92019V7.92019ZM7.81562 7.99707V8.99707C8.36791 8.99707 8.81562 8.54935 8.81562 7.99707H7.81562ZM7.72 7.99707H6.72C6.72 8.54935 7.16771 8.99707 7.72 8.99707V7.99707ZM13.565 7.99707V8.99707C14.1173 8.99707 14.565 8.54935 14.565 7.99707H13.565ZM13.48 7.99707H12.48C12.48 8.54935 12.9277 8.99707 13.48 8.99707V7.99707ZM8.12223 13.193C7.83155 12.7234 7.21522 12.5784 6.74562 12.8691C6.27603 13.1598 6.13099 13.7761 6.42167 14.2457L8.12223 13.193ZM14.7783 14.2457C15.069 13.7761 14.924 13.1598 14.4544 12.8691C13.9848 12.5784 13.3684 12.7234 13.0778 13.193L14.7783 14.2457ZM20.2 10.8002H19.2C19.2 15.5498 15.3496 19.4002 10.6 19.4002V20.4002V21.4002C16.4542 21.4002 21.2 16.6544 21.2 10.8002H20.2ZM10.6 20.4002V19.4002C5.85035 19.4002 2 15.5498 2 10.8002H1H0C0 16.6544 4.74578 21.4002 10.6 21.4002V20.4002ZM1 10.8002H2C2 6.05055 5.85035 2.2002 10.6 2.2002V1.2002V0.200195C4.74578 0.200195 0 4.94598 0 10.8002H1ZM10.6 1.2002V2.2002C15.3496 2.2002 19.2 6.05055 19.2 10.8002H20.2H21.2C21.2 4.94598 16.4542 0.200195 10.6 0.200195V1.2002ZM7.72 7.92019V8.92019H7.81562V7.92019V6.92019H7.72V7.92019ZM13.48 7.92019V8.92019H13.565V7.92019V6.92019H13.48V7.92019ZM7.81562 7.92019H6.81562V7.99707H7.81562H8.81562V7.92019H7.81562ZM7.81562 7.99707V6.99707H7.72V7.99707V8.99707H7.81562V7.99707ZM7.72 7.99707H8.72V7.92019H7.72H6.72V7.99707H7.72ZM13.565 7.92019H12.565V7.99707H13.565H14.565V7.92019H13.565ZM13.565 7.99707V6.99707H13.48V7.99707V8.99707H13.565V7.99707ZM13.48 7.99707H14.48V7.92019H13.48H12.48V7.99707H13.48ZM10.6 15.6001V14.6001C9.57022 14.6001 8.65236 14.0494 8.12223 13.193L7.27195 13.7194L6.42167 14.2457C7.29142 15.6508 8.83147 16.6001 10.6 16.6001V15.6001ZM13.928 13.7194L13.0778 13.193C12.5476 14.0494 11.6298 14.6001 10.6 14.6001V15.6001V16.6001C12.3685 16.6001 13.9086 15.6508 14.7783 14.2457L13.928 13.7194Z" fill="currentColor"/>
</svg>
