<svg width="15" height="15" viewBox="0 0 15 15" fill="none" xmlns="http://www.w3.org/2000/svg">
<path d="M13.3158 13.1L13.386 13.1034C13.7309 13.1393 14 13.4376 14 13.8C14 14.1624 13.7309 14.4607 13.386 14.4966L13.3158 14.5H7.50005C7.12217 14.5 6.81584 14.1866 6.81584 13.8C6.81584 13.4134 7.12217 13.1 7.50005 13.1H13.3158ZM9.45244 1.31949C10.4927 0.226855 12.1866 0.226819 13.2269 1.31949L13.3205 1.42271C14.2264 2.47531 14.2263 4.07588 13.3205 5.12851L13.2269 5.23174C13.2242 5.23461 13.2217 5.2378 13.2189 5.24063L5.80089 12.7698C5.7224 12.8494 5.6259 12.9081 5.52026 12.9414L1.88542 14.0871C1.64492 14.1628 1.38311 14.0976 1.20389 13.9169C1.0246 13.7361 0.95689 13.4689 1.02749 13.2217L2.11794 9.40376L2.14534 9.32582C2.17683 9.25013 2.22091 9.18028 2.2763 9.12006L9.44375 1.32838L9.45244 1.31949ZM2.69725 12.3665L4.53204 11.7875L3.20372 10.5919L2.69725 12.3665ZM12.2467 2.29636C11.7436 1.76786 10.9358 1.76789 10.4326 2.29636L3.92267 9.37299L5.66124 10.9391L12.2467 4.25487L12.3369 4.15028C12.7298 3.64361 12.7298 2.90758 12.3369 2.40095L12.2467 2.29636Z" fill="currentColor"/>
</svg>
