<svg width="19" height="19" viewBox="0 0 19 19" fill="none" xmlns="http://www.w3.org/2000/svg">
<path d="M9.5 0C14.7467 0 19 4.25329 19 9.5C19 10.3647 18.8844 11.2029 18.668 11.999L18.5596 12.3691C17.3592 16.1628 13.8413 18.9266 9.66797 18.999L9.5 19C4.2533 19 0 14.7467 0 9.5C0 8.74332 0.0886968 8.00735 0.255859 7.30176L0.332031 7.00195C1.38113 3.14336 4.80107 0.260689 8.93066 0.0166016L9.33203 0.00195312C9.38791 0.00098431 9.44389 0 9.5 0ZM9.0127 2.01562C5.89542 2.21543 3.29125 4.32156 2.36328 7.18359C6.71773 8.04963 10 11.8911 10 16.5C10 16.6621 9.99338 16.8232 9.98535 16.9834C13.1035 16.7843 15.7066 14.6781 16.6348 11.8154C12.2813 10.9486 9 7.10819 9 2.5C9 2.33755 9.00462 2.17607 9.0127 2.01562ZM2.00781 9.16895C2.00308 9.27864 2 9.38898 2 9.5C2 13.0749 4.50171 16.0634 7.84961 16.8154C7.89678 16.826 7.94371 16.838 7.99121 16.8477C7.99644 16.7325 8 16.6166 8 16.5C8 12.8743 5.4273 9.84927 2.00781 9.15137C2.00755 9.15721 2.00806 9.1631 2.00781 9.16895ZM11 2.5C11 6.12456 13.5714 9.14755 16.9893 9.84668C16.9945 9.73182 17 9.61633 17 9.5C17 5.87398 14.4268 2.84891 11.0068 2.15137C11.0016 2.26682 11 2.38308 11 2.5Z" fill="black"/>
</svg>
