<svg width="21" height="21" viewBox="0 0 21 21" fill="none" xmlns="http://www.w3.org/2000/svg">
<path d="M11.04 0.0136719C11.4121 0.0325402 11.7788 0.0722916 12.1396 0.128906C15.092 0.5921 17.6346 2.28535 19.2295 4.66797C19.3642 4.8693 19.4924 5.07529 19.6133 5.28613C19.8968 5.78056 20.1407 6.30008 20.3418 6.84082C20.7026 7.81101 20.9256 8.84828 20.9834 9.92969C20.9935 10.1185 21 10.3086 21 10.5L20.9941 10.8574C20.9664 11.6867 20.8421 12.4919 20.6328 13.2617H20.6309L20.5117 13.6699C19.1853 17.8628 15.298 20.9159 10.6855 20.9961V20.999L10.5 21L9.95996 20.9863C6.84595 20.8286 4.09238 19.3122 2.27344 17.0205C2.18655 16.911 2.10111 16.8004 2.01855 16.6875C1.72489 16.2857 1.4597 15.8622 1.22461 15.4199C1.12011 15.2234 1.01985 15.0241 0.927734 14.8203C0.402254 13.6578 0.0817264 12.3828 0.0136719 11.041L0 10.5C1.51543e-05 10.1487 0.0190466 9.80146 0.0527344 9.45898C0.0991941 8.98624 0.175114 8.52252 0.282227 8.07031L0.367188 7.73828C1.52664 3.47377 5.30612 0.288381 9.87012 0.0185547L10.3135 0.00195312C10.3751 0.000884769 10.4372 2.72091e-06 10.499 0H10.5L11.04 0.0136719ZM9.97363 2.01562C6.41893 2.23256 3.44966 4.63686 2.40332 7.90234C7.31949 8.77677 11.0527 13.0699 11.0527 18.2373L11.0469 18.5947C11.0425 18.7246 11.0344 18.8538 11.0254 18.9824C14.58 18.7655 17.5483 16.362 18.5947 13.0967C13.8518 12.2524 10.2106 8.22718 9.96094 3.30371L9.94727 2.7627C9.94728 2.5115 9.9563 2.26241 9.97363 2.01562ZM2.02148 9.8916C2.01151 10.0328 2.00599 10.1751 2.00293 10.3184C2.00168 10.3784 2 10.4386 2 10.499C2 12.758 2.88287 14.8096 4.32031 16.332C4.70678 16.741 5.13322 17.1115 5.59375 17.4375C5.81139 17.5917 6.03645 17.7356 6.26855 17.8691C6.99509 18.2869 7.78861 18.6011 8.62988 18.79C8.76159 18.8196 8.89438 18.8458 9.02832 18.8691C9.04359 18.6607 9.05273 18.4501 9.05273 18.2373C9.05273 14.0446 6.01668 10.563 2.02344 9.86621C2.02282 9.87467 2.02208 9.88313 2.02148 9.8916ZM11.9697 2.12891C11.9544 2.33794 11.9473 2.5493 11.9473 2.7627C11.9473 6.9541 14.9812 10.4336 18.9727 11.1318C18.988 10.923 18.999 10.7121 18.999 10.499C18.999 9.36968 18.777 8.29246 18.377 7.30664C18.3446 7.22691 18.3111 7.14784 18.2764 7.06934C17.8819 6.17638 17.3381 5.36498 16.6768 4.66504C16.3854 4.35689 16.0716 4.07047 15.7373 3.80859C15.3178 3.47977 14.8671 3.18969 14.3896 2.94336C13.7618 2.61967 13.0886 2.37172 12.3818 2.21191C12.2456 2.1811 12.1083 2.15309 11.9697 2.12891Z" fill="black"/>
</svg>
