<svg width="19" height="20" viewBox="0 0 19 20" fill="none" xmlns="http://www.w3.org/2000/svg">
<path d="M4.70173 1.79954C9.23071 -0.849111 15.0501 0.674953 17.6988 5.20383C20.3475 9.73289 18.8226 15.5522 14.2935 18.2009C9.76453 20.8493 3.94606 19.3246 1.29744 14.7956C-1.35096 10.2667 0.173011 4.44826 4.70173 1.79954ZM3.58748 14.614C5.12332 16.5866 7.50835 17.6173 9.90779 17.488C9.82972 17.4347 9.75081 17.3803 9.67341 17.3239C8.38561 16.3864 7.07979 14.9636 5.95076 13.2322L3.58748 14.614ZM7.67927 12.2214C8.68839 13.751 9.81434 14.9531 10.8511 15.7077C11.463 16.1531 12.0042 16.4141 12.439 16.5202C12.8671 16.6247 13.1261 16.5664 13.2838 16.4743L13.2857 16.4734C13.443 16.3808 13.6203 16.1838 13.7388 15.7605C13.8596 15.3293 13.8974 14.7293 13.8092 13.9773C13.6597 12.7037 13.1631 11.134 12.3248 9.50461L7.67927 12.2214ZM14.0543 8.49387C15.0097 10.3268 15.6099 12.1628 15.7955 13.7448C15.8066 13.8396 15.8156 13.9341 15.8238 14.0281C17.1126 12.0004 17.3835 9.41649 16.4176 7.11106L14.0543 8.49387ZM3.17146 5.97141C1.88275 7.99883 1.61217 10.5831 2.57771 12.8884L4.94099 11.5066C3.98566 9.67368 3.38633 7.83755 3.20076 6.25559C3.1896 6.16044 3.17969 6.06569 3.17146 5.97141ZM6.55623 3.4802C6.128 3.37579 5.86906 3.43395 5.7115 3.5261C5.55396 3.61834 5.37629 3.81553 5.2574 4.23997C5.13667 4.67109 5.09888 5.27124 5.18709 6.02317C5.33652 7.2965 5.83253 8.86592 6.67048 10.4948L11.316 7.77805C10.307 6.24892 9.1817 5.04724 8.14509 4.2927C7.53297 3.84716 6.99116 3.58632 6.55623 3.4802ZM15.4078 5.3845C13.872 3.41293 11.4872 2.38223 9.08845 2.51145C9.16648 2.56478 9.2445 2.61921 9.32185 2.67551C10.6096 3.61285 11.9155 5.03609 13.0445 6.76731L15.4078 5.3845Z" fill="currentColor"/>
</svg>
