<svg width="19" height="20" viewBox="0 0 19 20" fill="none" xmlns="http://www.w3.org/2000/svg">
<path d="M16.9966 10C16.9966 5.85786 13.6387 2.5 9.49658 2.5C5.35445 2.5 1.99658 5.85786 1.99658 10C1.99658 14.1421 5.35445 17.5 9.49658 17.5C13.6387 17.5 16.9966 14.1421 16.9966 10ZM13.6118 4.62305C13.9701 4.50544 14.3647 4.59954 14.6313 4.86621C14.898 5.13299 14.9913 5.52741 14.8735 5.88574L12.7925 12.2178C12.6932 12.5195 12.4556 12.7563 12.1538 12.8555L11.8423 11.9053L11.8413 11.9043L12.1538 12.8555L5.82471 14.9346L5.68896 14.9688C5.36983 15.026 5.03854 14.9248 4.80518 14.6914C4.53867 14.4247 4.44529 14.0301 4.56299 13.6719L6.64209 7.34277L6.68604 7.2334C6.80188 6.9844 7.01561 6.79193 7.27979 6.70508L13.6118 4.62305ZM8.38428 8.44727L7.07959 12.416L11.0493 11.1123L12.355 7.1416L8.38428 8.44727ZM18.9966 10C18.9966 15.2467 14.7433 19.5 9.49658 19.5C4.24988 19.5 -0.00341797 15.2467 -0.00341797 10C-0.00341797 4.75329 4.24988 0.5 9.49658 0.5C14.7433 0.5 18.9966 4.75329 18.9966 10Z" fill="currentColor"/>
</svg>
