<svg width="14" height="14" viewBox="0 0 14 14" fill="none" xmlns="http://www.w3.org/2000/svg">
<path d="M2.96035 1.34961L5.12246 1.34961C5.53657 1.34972 5.87246 1.68546 5.87246 2.09961C5.87246 2.51375 5.53657 2.8495 5.12246 2.84961L2.96035 2.84961C2.82967 2.84964 2.70515 2.90146 2.61464 2.99121C2.52464 3.08065 2.4751 3.20058 2.475 3.32422L2.475 10.6748C2.47505 10.7985 2.52466 10.9183 2.61464 11.0078C2.70515 11.0976 2.82967 11.1494 2.96035 11.1494L5.12246 11.1494C5.53651 11.1495 5.87235 11.4854 5.87246 11.8994C5.87246 12.3136 5.53657 12.6493 5.12246 12.6494L2.96035 12.6494C2.43588 12.6494 1.93174 12.4429 1.55898 12.0732C1.18603 11.7034 0.975048 11.2006 0.974995 10.6748L0.974996 3.32422C0.9751 2.79852 1.18607 2.29558 1.55898 1.92578C1.93173 1.55618 2.43592 1.34964 2.96035 1.34961ZM5.27578 6.27539L10.5228 6.27539L9.05898 4.74316L9.0082 4.68457C8.77504 4.38458 8.80271 3.95074 9.08339 3.68262C9.38288 3.3967 9.85689 3.4077 10.143 3.70703L12.8178 6.50684L12.9086 6.62305C13.0902 6.90854 13.06 7.28936 12.8178 7.54297L10.143 10.3428L10.0873 10.3955C9.79835 10.6423 9.36416 10.6352 9.08339 10.3672C8.80271 10.0991 8.77506 9.66522 9.0082 9.36523L9.05898 9.30664L10.5219 7.77539L5.27578 7.77539C4.86173 7.77539 4.52604 7.43938 4.52578 7.02539C4.52578 6.61118 4.86156 6.27539 5.27578 6.27539Z" fill="currentColor"/>
</svg>
