<svg width="19" height="20" viewBox="0 0 19 20" fill="none" xmlns="http://www.w3.org/2000/svg">
<path d="M16.9976 10C16.9976 5.85778 13.6401 2.5 9.49854 2.5C5.35701 2.50009 1.99951 5.85783 1.99951 10C1.99951 14.1422 5.35701 17.4999 9.49854 17.5C10.8337 17.5 12.0845 17.1516 13.1685 16.542L13.2534 16.5C13.4561 16.4101 13.684 16.3893 13.9009 16.4434L16.7983 17.168L16.2856 13.5752C16.2592 13.3899 16.2852 13.2005 16.3608 13.0293C16.7698 12.1042 16.9976 11.08 16.9976 10ZM18.9976 10C18.9976 11.2578 18.7498 12.4594 18.3042 13.5605L18.9897 18.3574C19.0368 18.687 18.9167 19.0192 18.6694 19.2422C18.453 19.4373 18.1637 19.527 17.8784 19.4922L17.7573 19.4697L13.7876 18.4766C12.4981 19.1303 11.0404 19.5 9.49854 19.5C4.25226 19.4999 -0.000488281 15.2466 -0.000488281 10C-0.000488281 4.75344 4.25226 0.500092 9.49854 0.5C14.7449 0.5 18.9976 4.75338 18.9976 10Z" fill="currentColor"/>
</svg>
