<svg width="22" height="18" viewBox="0 0 22 18" fill="none" xmlns="http://www.w3.org/2000/svg">
<path d="M17.8 10.8857C19.0673 11.8326 20.2 14.2167 20.2 15.6857C20.2 16.1433 19.8661 16.5143 19.4542 16.5143H19M14.2 7.00451C15.0198 6.53026 15.5714 5.64384 15.5714 4.6286C15.5714 3.61336 15.0198 2.72694 14.2 2.25269M1.74577 16.5143H14.8828C15.2947 16.5143 15.6286 16.1433 15.6286 15.6857C15.6286 12.8091 13.2253 10.4771 8.31428 10.4771C3.40327 10.4771 1 12.8091 1 15.6857C1 16.1433 1.33389 16.5143 1.74577 16.5143ZM11.0571 4.6286C11.0571 6.14344 9.82912 7.37146 8.31428 7.37146C6.79945 7.37146 5.57143 6.14344 5.57143 4.6286C5.57143 3.11376 6.79945 1.88574 8.31428 1.88574C9.82912 1.88574 11.0571 3.11376 11.0571 4.6286Z" stroke="currentColor" stroke-width="2" stroke-linecap="round"/>
</svg>
