<svg width="15" height="15" viewBox="0 0 15 15" fill="none" xmlns="http://www.w3.org/2000/svg">
<path d="M12.4631 3.77355C12.3921 3.07474 11.8021 2.52941 11.0846 2.52941H3.91544C3.14995 2.52941 2.52941 3.14997 2.52941 3.91544V11.0846C2.52941 11.85 3.14995 12.4706 3.91544 12.4706H11.0846C11.8021 12.4706 12.3921 11.9253 12.4631 11.2264L12.4706 11.0846V3.91544L12.4631 3.77355ZM6.73529 10.3676V8.26471H4.63235C4.21003 8.26471 3.86766 7.92232 3.86765 7.5C3.86765 7.07766 4.21002 6.73529 4.63235 6.73529H6.73529V4.63235C6.73529 4.21002 7.07767 3.86765 7.5 3.86765C7.92234 3.86765 8.26471 4.21002 8.26471 4.63235V6.73529H10.3676L10.4461 6.73903C10.8316 6.77828 11.1324 7.10413 11.1324 7.5C11.1323 7.89586 10.8316 8.22172 10.4461 8.26097L10.3676 8.26471H8.26471V10.3676C8.26468 10.79 7.92232 11.1324 7.5 11.1324C7.07768 11.1324 6.73532 10.79 6.73529 10.3676ZM14 11.0846L13.9963 11.2347C13.9182 12.7751 12.6444 14 11.0846 14H3.91544C2.30529 14 1 12.6947 1 11.0846V3.91544C1 2.30529 2.30529 1 3.91544 1H11.0846C12.6947 1 14 2.30529 14 3.91544V11.0846Z" fill="currentColor"/>
</svg>
