<svg width="19" height="20" viewBox="0 0 19 20" fill="none" xmlns="http://www.w3.org/2000/svg">
<path d="M17 10C17 5.85786 13.6421 2.5 9.5 2.5C5.35786 2.5 2 5.85786 2 10C2 11.8303 2.65682 13.5066 3.74609 14.8086C3.9334 14.6137 4.13579 14.4066 4.3418 14.2061C4.65163 13.9044 4.98815 13.597 5.29688 13.3584C5.45001 13.24 5.61819 13.1209 5.78906 13.0273C5.92749 12.9515 6.20422 12.8136 6.53711 12.8135H12.4629C12.9646 12.8135 13.4256 13.0574 13.7295 13.248C14.073 13.4635 14.4171 13.7424 14.7246 14.0205C14.95 14.2243 15.1693 14.4456 15.373 14.6602C16.3901 13.3801 17 11.7619 17 10ZM6.69922 14.8135C6.65558 14.8414 6.59523 14.8819 6.51953 14.9404C6.29935 15.1107 6.02656 15.3581 5.7373 15.6396C5.56101 15.8113 5.38552 15.9883 5.22168 16.1582C6.43533 17.003 7.90921 17.5 9.5 17.5C11.1594 17.5 12.6914 16.9592 13.9336 16.0469C13.7684 15.8724 13.5818 15.6838 13.3828 15.5039C13.1232 15.2692 12.8754 15.0732 12.667 14.9424C12.5221 14.8515 12.4444 14.8217 12.4238 14.8135H6.69922ZM11.5449 7.10254C11.5447 6.06387 10.6542 5.15625 9.5 5.15625C8.34593 5.15638 7.45625 6.06395 7.45605 7.10254C7.45605 8.14127 8.3458 9.04967 9.5 9.0498C10.6543 9.0498 11.5449 8.14134 11.5449 7.10254ZM19 10C19 15.2467 14.7467 19.5 9.5 19.5C4.25329 19.5 0 15.2467 0 10C0 4.75329 4.25329 0.5 9.5 0.5C14.7467 0.5 19 4.75329 19 10ZM13.5449 7.10254C13.5449 9.30704 11.6968 11.0498 9.5 11.0498C7.30335 11.0497 5.45605 9.30695 5.45605 7.10254C5.45625 4.89829 7.30347 3.15639 9.5 3.15625C11.6967 3.15625 13.5447 4.89821 13.5449 7.10254Z" fill="currentColor"/>
</svg>
