<svg width="15" height="15" viewBox="0 0 15 15" fill="none" xmlns="http://www.w3.org/2000/svg">
<path d="M6.69434 9.79938C7.22553 9.48922 7.8992 9.51156 8.41002 9.86611L11.4286 11.9618V3.03556H3.57143V11.9618L6.58998 9.86611L6.69434 9.79938ZM13 11.9618L12.9962 12.0772C12.9133 13.2151 11.614 13.8703 10.6168 13.2769L10.5186 13.2132L7.5 11.1183L4.48145 13.2132L4.38323 13.2769C3.38601 13.8703 2.08673 13.2151 2.00384 12.0772L2 11.9618V3.03556C2 2.24041 2.61853 1.58676 3.41106 1.50825L3.57143 1.5H11.4286L11.5889 1.50825C12.3815 1.58676 13 2.24041 13 3.03556V11.9618Z" fill="currentColor"/>
</svg>
